{"glyphs":{"0":{"ha":736,"x_min":39,"x_max":697,"o":"m 368 -14 q 130 72 221 -14 q 39 319 39 158 q 130 567 39 481 q 368 653 221 653 q 607 567 517 653 q 697 319 697 481 q 607 72 697 158 q 368 -14 517 -14 m 368 181 q 426 217 406 181 q 447 319 447 254 q 426 422 447 385 q 368 458 406 458 q 310 422 331 458 q 289 319 289 385 q 310 217 289 254 q 368 181 331 181 z "},"1":{"ha":436,"x_min":19,"x_max":367,"o":"m 19 428 l 19 478 q 23 502 19 493 q 35 521 26 511 l 122 618 q 142 634 133 629 q 160 639 150 639 l 338 639 q 367 610 367 639 l 367 29 q 338 0 367 0 l 160 0 q 131 29 131 0 l 131 399 l 49 399 q 19 428 19 399 z "},"2":{"ha":638,"x_min":33,"x_max":599,"o":"m 67 194 q 213 290 160 254 q 292 345 267 325 q 325 378 318 365 q 332 407 332 392 q 324 431 332 419 q 300 451 317 443 q 256 458 283 458 q 183 444 211 458 q 122 415 154 431 q 83 432 94 401 l 38 558 q 35 580 33 569 q 51 597 36 590 q 147 635 88 617 q 306 653 207 653 q 508 596 440 653 q 575 444 575 539 q 541 335 575 383 q 444 245 507 288 q 293 156 382 203 l 296 188 l 569 188 q 599 158 599 188 l 599 26 q 569 0 599 0 l 75 0 q 46 26 46 0 l 46 151 q 51 179 46 171 q 67 194 57 188 z "},"3":{"ha":622,"x_min":-8,"x_max":589,"o":"m 171 193 l 171 290 q 179 319 171 308 q 206 331 188 331 q 276 342 251 331 q 309 372 300 354 q 318 407 318 389 q 300 442 318 426 q 242 458 282 458 q 169 444 197 458 q 108 415 140 431 q 69 432 81 401 l 24 558 q 21 580 19 569 q 38 597 22 590 q 133 635 74 617 q 292 653 193 653 q 494 593 426 653 q 561 439 561 533 q 533 342 561 388 q 445 270 504 297 q 294 243 386 243 l 299 279 q 512 222 435 279 q 589 71 589 164 q 548 -63 589 -7 q 433 -150 507 -119 q 261 -181 360 -181 q 110 -162 175 -181 q 10 -125 46 -143 q -7 -107 -6 -118 q -4 -86 -8 -96 l 42 40 q 81 57 53 71 q 150 28 113 42 q 246 14 188 14 q 318 32 290 14 q 346 82 346 50 q 310 137 346 121 q 207 153 274 153 q 180 164 189 153 q 171 193 171 175 z "},"4":{"ha":728,"x_min":22,"x_max":704,"o":"m 704 140 l 704 29 q 675 0 704 0 l 51 0 q 22 29 22 0 l 22 107 q 26 131 22 122 q 38 150 31 140 l 351 618 q 369 635 360 631 q 389 639 379 639 l 567 639 q 596 610 596 639 l 596 -137 q 567 -167 596 -167 l 403 -167 q 374 -137 374 -167 l 374 374 l 243 169 l 675 169 q 704 140 704 169 z "},"5":{"ha":629,"x_min":-1,"x_max":596,"o":"m 215 344 q 258 360 235 353 q 303 367 281 367 q 467 332 403 367 q 564 240 532 297 q 596 114 596 183 q 554 -39 596 28 q 439 -143 513 -106 q 268 -181 365 -181 q 117 -162 182 -181 q 17 -125 53 -143 q 0 -107 1 -118 q 3 -86 -1 -96 l 49 40 q 88 57 60 71 q 155 28 119 42 q 236 14 190 14 q 324 40 296 14 q 353 108 353 65 q 321 174 353 149 q 236 199 289 199 q 152 192 179 199 q 101 185 125 185 q 74 196 83 185 q 65 225 65 207 l 65 613 q 94 639 65 639 l 525 639 q 554 613 554 639 l 554 481 q 525 451 554 451 l 265 451 l 290 483 l 290 286 l 215 344 z "},"6":{"ha":731,"x_min":38,"x_max":696,"o":"m 367 181 q 425 208 404 181 q 446 285 446 235 q 425 361 446 333 q 367 389 404 389 q 308 361 329 389 q 288 285 288 333 q 308 208 288 235 q 367 181 329 181 m 278 458 l 222 546 q 291 563 254 557 q 367 569 328 569 q 540 538 465 569 q 655 444 614 507 q 696 285 696 382 q 606 63 696 140 q 367 -14 515 -14 q 128 63 219 -14 q 38 285 38 140 q 59 417 38 353 q 118 544 81 481 q 203 675 156 608 l 267 767 q 290 795 279 785 q 324 806 301 806 l 501 806 q 533 790 528 806 q 524 758 538 775 l 278 458 z "},"7":{"ha":582,"x_min":18,"x_max":557,"o":"m 69 -119 l 353 483 l 360 451 l 47 451 q 18 481 18 451 l 18 613 q 47 639 18 639 l 528 639 q 557 613 557 639 l 557 493 q 547 439 557 464 l 308 -128 q 251 -167 292 -167 l 92 -167 q 63 -153 65 -167 q 69 -119 60 -139 z "},"8":{"ha":731,"x_min":36,"x_max":694,"o":"m 365 -14 q 127 52 218 -14 q 36 243 36 118 q 127 413 36 354 q 365 472 218 472 q 604 413 514 472 q 694 243 694 354 q 604 52 694 118 q 365 -14 514 -14 m 365 167 q 428 190 406 167 q 451 257 451 214 q 428 324 451 300 q 365 347 406 347 q 302 324 325 347 q 279 257 279 300 q 302 190 279 214 q 365 167 325 167 m 365 361 q 142 416 226 361 q 57 575 57 471 q 142 756 57 693 q 365 819 226 819 q 589 756 504 819 q 674 575 674 693 q 589 416 674 471 q 365 361 504 361 m 365 486 q 419 506 400 486 q 438 563 438 526 q 419 619 438 599 q 365 639 400 639 q 312 619 331 639 q 293 563 293 599 q 312 506 293 526 q 365 486 331 486 z "},"9":{"ha":731,"x_min":35,"x_max":693,"o":"m 364 458 q 306 431 326 458 q 285 354 285 404 q 306 278 285 306 q 364 250 326 250 q 422 278 401 250 q 443 354 443 306 q 422 431 443 404 q 364 458 401 458 m 453 181 l 508 93 q 440 76 476 82 q 364 69 404 69 q 191 101 265 69 q 76 195 117 132 q 35 354 35 258 q 126 576 35 499 q 364 653 217 653 q 603 576 513 653 q 693 354 693 499 q 672 224 693 288 q 613 96 650 160 q 528 -36 575 32 l 464 -128 q 440 -156 451 -146 q 407 -167 429 -167 l 229 -167 q 198 -151 203 -167 q 207 -119 193 -136 l 453 181 z "},"\u0000":{"ha":0,"x_min":0,"x_max":0,"o":""},"\r":{"ha":0,"x_min":0,"x_max":0,"o":""}," ":{"ha":250,"x_min":0,"x_max":0,"o":""}," ":{"ha":250,"x_min":0,"x_max":0,"o":""},"A":{"ha":1036,"x_min":11,"x_max":1026,"o":"m 526 751 l 276 39 q 219 0 264 0 l 56 0 q 21 10 31 0 q 21 47 11 21 l 363 917 q 403 944 374 944 l 632 944 q 674 917 661 944 l 1015 47 q 1016 10 1026 21 q 981 0 1006 0 l 804 0 q 767 8 782 0 q 746 38 753 15 l 496 751 l 526 751 m 224 224 l 224 421 l 808 421 l 808 224 l 224 224 z "},"B":{"ha":913,"x_min":90,"x_max":878,"o":"m 90 28 l 90 917 q 119 944 90 944 l 311 944 q 340 917 340 944 l 340 28 q 311 0 340 0 l 119 0 q 90 28 90 0 m 415 556 q 767 487 656 556 q 878 299 878 418 q 831 140 878 207 q 701 36 785 72 q 506 0 617 0 l 218 0 l 218 208 l 506 208 q 584 233 554 208 q 614 306 614 257 q 583 378 614 353 q 504 403 553 403 l 218 403 l 218 556 l 415 556 m 479 944 q 660 911 582 944 q 781 818 738 878 q 824 681 824 758 q 778 554 824 611 q 641 464 732 497 q 413 431 550 431 l 190 431 l 190 583 l 478 583 q 537 602 514 583 q 560 660 560 621 q 537 716 560 696 q 476 736 514 736 l 190 736 l 190 944 l 479 944 z "},"C":{"ha":896,"x_min":43,"x_max":874,"o":"m 518 -14 q 276 42 383 -14 q 106 206 168 97 q 43 472 43 314 q 103 731 43 622 q 269 899 163 840 q 518 958 376 958 q 698 934 621 958 q 847 865 775 910 q 861 826 874 850 l 788 682 q 771 663 781 668 q 749 665 761 658 q 633 722 689 701 q 518 743 576 743 q 407 709 454 743 q 333 615 360 675 q 307 472 307 554 q 335 331 307 392 q 416 235 364 269 q 539 201 468 201 q 638 216 589 201 q 764 265 688 231 q 800 246 786 276 l 863 99 q 863 78 867 89 q 844 61 860 68 q 744 19 792 36 q 642 -6 696 3 q 518 -14 588 -14 z "},"D":{"ha":1011,"x_min":90,"x_max":972,"o":"m 90 28 l 90 917 q 119 944 90 944 l 311 944 q 340 917 340 944 l 340 28 q 311 0 340 0 l 119 0 q 90 28 90 0 m 449 0 l 190 0 l 190 208 l 446 208 q 584 241 525 208 q 676 333 643 274 q 708 472 708 393 q 676 611 708 551 q 585 703 643 671 q 447 736 526 736 l 190 736 l 190 944 l 447 944 q 722 887 604 944 q 906 724 840 829 q 972 472 972 618 q 906 223 972 329 q 722 58 840 117 q 449 0 604 0 z "},"E":{"ha":863,"x_min":90,"x_max":817,"o":"m 90 28 l 90 917 q 119 944 90 944 l 311 944 q 340 917 340 944 l 340 28 q 311 0 340 0 l 119 0 q 90 28 90 0 m 650 599 q 678 569 678 599 l 678 419 q 650 390 678 390 l 190 390 l 190 599 l 650 599 m 789 944 q 817 915 817 944 l 817 765 q 789 736 817 736 l 190 736 l 190 944 l 789 944 m 789 208 q 817 179 817 208 l 817 29 q 789 0 817 0 l 190 0 l 190 208 l 789 208 z "},"F":{"ha":800,"x_min":90,"x_max":775,"o":"m 90 28 l 90 917 q 119 944 90 944 l 311 944 q 340 917 340 944 l 340 28 q 311 0 340 0 l 119 0 q 90 28 90 0 m 664 543 q 692 514 692 543 l 692 364 q 664 335 692 335 l 190 335 l 190 543 l 664 543 m 747 944 q 775 915 775 944 l 775 765 q 747 736 775 736 l 190 736 l 190 944 l 747 944 z "},"G":{"ha":978,"x_min":43,"x_max":921,"o":"m 525 201 q 622 226 581 201 q 700 296 664 250 l 772 168 q 645 30 715 74 q 476 -14 575 -14 q 256 42 354 -14 q 101 206 158 97 q 43 472 43 314 q 103 731 43 622 q 272 899 164 840 q 525 958 381 958 q 722 936 639 958 q 886 867 804 914 q 903 849 901 858 q 900 828 906 839 l 826 682 q 810 663 819 668 q 788 665 800 658 q 690 714 732 697 q 609 737 647 731 q 525 743 571 743 q 410 709 460 743 q 334 615 361 675 q 307 472 307 554 q 334 331 307 392 q 410 235 361 269 q 525 201 460 201 m 685 28 l 685 431 q 714 458 685 458 l 892 458 q 921 431 921 458 l 921 28 q 892 0 921 0 l 714 0 q 685 28 685 0 z "},"H":{"ha":1069,"x_min":90,"x_max":979,"o":"m 90 28 l 90 917 q 119 944 90 944 l 311 944 q 340 917 340 944 l 340 28 q 311 0 340 0 l 119 0 q 90 28 90 0 m 729 28 l 729 917 q 758 944 729 944 l 950 944 q 979 917 979 944 l 979 28 q 950 0 979 0 l 758 0 q 729 28 729 0 m 190 404 l 190 613 l 858 613 l 858 404 l 190 404 z "},"I":{"ha":431,"x_min":90,"x_max":340,"o":"m 90 28 l 90 917 q 119 944 90 944 l 311 944 q 340 917 340 944 l 340 28 q 311 0 340 0 l 119 0 q 90 28 90 0 z "},"J":{"ha":686,"x_min":4,"x_max":607,"o":"m 607 279 q 524 58 607 131 q 306 -14 440 -14 q 155 6 217 -14 q 38 53 93 26 q 21 101 4 68 l 88 240 q 129 254 101 268 q 217 215 182 228 q 292 201 253 201 q 328 210 314 201 q 350 235 343 219 q 357 272 357 251 l 357 917 q 386 944 357 944 l 578 944 q 607 917 607 944 l 607 279 z "},"K":{"ha":953,"x_min":90,"x_max":946,"o":"m 90 28 l 90 917 q 119 944 90 944 l 311 944 q 340 917 340 944 l 340 28 q 311 0 340 0 l 119 0 q 90 28 90 0 m 274 510 l 629 924 q 651 941 640 938 q 685 944 663 944 l 883 944 q 910 933 907 944 q 899 904 914 922 l 533 482 l 535 544 l 931 39 q 940 10 946 21 q 915 0 935 0 l 688 0 q 650 7 661 0 q 625 32 639 14 l 274 510 z "},"L":{"ha":799,"x_min":90,"x_max":775,"o":"m 90 28 l 90 917 q 119 944 90 944 l 311 944 q 340 917 340 944 l 340 28 q 311 0 340 0 l 119 0 q 90 28 90 0 m 747 208 q 775 179 775 208 l 775 29 q 747 0 775 0 l 190 0 l 190 208 l 747 208 z "},"M":{"ha":1292,"x_min":90,"x_max":1201,"o":"m 603 0 q 579 6 589 0 q 564 22 569 13 l 307 539 l 326 544 l 326 28 q 297 0 326 0 l 119 0 q 90 28 90 0 l 90 917 q 119 944 90 944 l 335 944 q 379 922 369 944 l 681 286 l 639 286 l 940 922 q 958 940 947 935 q 985 944 968 944 l 1172 944 q 1201 917 1201 944 l 1201 28 q 1172 0 1201 0 l 994 0 q 965 28 965 0 l 965 544 l 985 539 l 728 22 q 713 6 722 11 q 689 0 704 0 l 603 0 z "},"N":{"ha":1014,"x_min":90,"x_max":924,"o":"m 326 28 q 297 0 326 0 l 119 0 q 90 28 90 0 l 90 917 q 119 944 90 944 l 321 944 q 365 922 351 944 l 707 336 l 688 331 l 688 917 q 717 944 688 944 l 894 944 q 924 917 924 944 l 924 28 q 894 0 924 0 l 700 0 q 677 6 686 0 q 661 22 668 13 l 307 608 l 326 614 l 326 28 z "},"O":{"ha":1061,"x_min":42,"x_max":1019,"o":"m 531 -14 q 274 45 385 -14 q 103 213 164 104 q 42 472 42 322 q 103 731 42 622 q 274 899 164 840 q 531 958 385 958 q 788 899 678 958 q 958 731 897 840 q 1019 472 1019 622 q 958 213 1019 322 q 788 45 897 104 q 531 -14 678 -14 m 531 201 q 649 235 599 201 q 728 331 700 269 q 756 472 756 392 q 728 615 756 554 q 649 709 700 675 q 531 743 599 743 q 412 709 463 743 q 333 615 361 675 q 306 472 306 554 q 333 331 306 392 q 412 235 361 269 q 531 201 463 201 z "},"P":{"ha":901,"x_min":90,"x_max":871,"o":"m 90 28 l 90 917 q 119 944 90 944 l 311 944 q 340 917 340 944 l 340 28 q 311 0 340 0 l 119 0 q 90 28 90 0 m 472 278 l 204 278 l 204 486 l 469 486 q 542 503 511 486 q 590 548 572 519 q 607 611 607 576 q 590 681 607 654 q 542 722 572 708 q 471 736 511 736 l 204 736 l 204 944 l 471 944 q 681 904 590 944 q 821 789 771 864 q 871 611 871 714 q 821 440 871 515 q 681 321 771 364 q 472 278 592 278 z "},"Q":{"ha":1061,"x_min":42,"x_max":1019,"o":"m 531 -14 q 274 45 385 -14 q 103 213 164 104 q 42 472 42 322 q 103 731 42 622 q 274 899 164 840 q 531 958 385 958 q 788 899 678 958 q 958 731 897 840 q 1019 472 1019 622 q 958 213 1019 322 q 788 45 897 104 q 531 -14 678 -14 m 531 201 q 649 235 599 201 q 728 331 700 269 q 756 472 756 392 q 728 615 756 554 q 649 709 700 675 q 531 743 599 743 q 412 709 463 743 q 333 615 361 675 q 306 472 306 554 q 333 331 306 392 q 412 235 361 269 q 531 201 463 201 m 408 149 l 657 183 l 914 -156 q 899 -194 943 -194 l 683 -194 q 646 -188 657 -194 q 621 -162 635 -182 l 408 149 z "},"R":{"ha":944,"x_min":90,"x_max":938,"o":"m 90 28 l 90 917 q 119 944 90 944 l 311 944 q 340 917 340 944 l 340 28 q 311 0 340 0 l 119 0 q 90 28 90 0 m 486 347 l 464 319 l 218 319 l 218 528 l 483 528 q 568 554 536 528 q 600 632 600 581 q 568 710 600 685 q 485 736 536 736 l 218 736 l 218 944 l 485 944 q 683 906 599 944 q 816 799 768 868 q 864 632 864 729 q 817 474 864 538 q 684 378 769 410 q 486 347 599 347 m 418 329 l 597 475 l 918 47 q 923 10 938 21 q 883 0 908 0 l 681 0 q 648 8 658 0 q 622 38 638 15 l 418 329 z "},"S":{"ha":868,"x_min":33,"x_max":826,"o":"m 468 201 q 519 208 497 201 q 551 227 540 214 q 563 258 563 240 q 547 293 563 279 q 490 322 532 307 q 364 360 447 338 q 184 434 251 392 q 86 533 117 476 q 56 664 56 590 q 96 813 56 746 q 219 919 136 879 q 431 958 303 958 q 628 929 529 958 q 800 858 728 900 q 817 840 815 849 q 814 819 819 831 l 744 668 q 726 645 736 650 q 694 651 715 640 q 614 692 660 671 q 519 728 568 714 q 419 743 469 743 q 360 737 382 743 q 328 718 338 731 q 319 689 319 706 q 338 651 319 667 q 402 621 356 636 q 533 581 449 606 q 687 520 621 556 q 790 429 753 485 q 826 288 826 374 q 779 124 826 192 q 650 22 732 57 q 463 -14 568 -14 q 235 13 331 -14 q 58 83 140 40 q 37 104 40 93 q 42 132 33 115 l 113 282 q 154 296 126 310 q 310 228 240 254 q 468 201 381 201 z "},"T":{"ha":893,"x_min":22,"x_max":871,"o":"m 321 28 l 321 917 q 350 944 321 944 l 542 944 q 571 917 571 944 l 571 28 q 542 0 571 0 l 350 0 q 321 28 321 0 m 50 736 q 22 765 22 736 l 22 915 q 50 944 22 944 l 843 944 q 871 915 871 944 l 871 765 q 843 736 871 736 l 50 736 z "},"U":{"ha":975,"x_min":71,"x_max":904,"o":"m 71 389 l 71 917 q 100 944 71 944 l 292 944 q 321 917 321 944 l 321 389 q 367 248 321 294 q 488 201 413 201 q 608 248 563 201 q 654 389 654 294 l 654 917 q 683 944 654 944 l 875 944 q 904 917 904 944 l 904 389 q 852 174 904 265 q 706 35 800 83 q 488 -14 613 -14 q 269 35 363 -14 q 123 174 175 83 q 71 389 71 265 z "},"V":{"ha":990,"x_min":10,"x_max":981,"o":"m 488 193 l 710 906 q 767 944 722 944 l 936 944 q 971 934 961 944 q 971 897 981 924 l 657 28 q 617 0 647 0 l 375 0 q 333 28 343 0 l 19 897 q 19 934 10 924 q 54 944 29 944 l 238 944 q 275 937 261 944 q 296 907 289 929 l 518 193 l 488 193 z "},"W":{"ha":1501,"x_min":15,"x_max":1485,"o":"m 608 28 q 568 0 601 0 l 322 0 q 297 7 308 0 q 281 28 285 14 l 22 897 q 24 934 15 924 q 57 944 32 944 l 240 944 q 278 937 264 944 q 299 907 293 929 l 474 214 l 454 214 l 617 907 q 633 936 622 928 q 675 944 644 944 l 843 944 q 880 937 865 944 q 900 907 894 929 l 1061 214 l 1042 214 l 1217 906 q 1274 944 1228 944 l 1443 944 q 1476 934 1468 944 q 1478 897 1485 924 l 1219 28 q 1179 0 1210 0 l 914 0 q 888 7 900 0 q 872 28 875 14 l 731 622 l 750 622 l 608 28 z "},"X":{"ha":972,"x_min":11,"x_max":963,"o":"m 660 38 l 61 892 q 49 931 43 917 q 82 944 56 944 l 281 944 q 319 937 304 944 q 347 907 333 929 l 943 56 q 956 14 963 28 q 925 0 950 0 l 729 0 q 660 38 685 0 m 575 399 l 449 607 l 649 907 q 678 938 664 931 q 715 944 693 944 l 886 944 q 918 930 914 944 q 907 892 922 915 l 575 399 m 29 56 l 390 593 l 517 385 l 288 38 q 258 8 274 15 q 218 0 242 0 l 47 0 q 17 14 22 0 q 29 56 11 28 z "},"Y":{"ha":906,"x_min":6,"x_max":899,"o":"m 449 513 l 625 892 q 651 932 638 919 q 686 944 664 944 l 851 944 q 888 932 876 944 q 885 893 899 919 l 572 306 l 332 306 l 19 893 q 17 932 6 919 q 53 944 28 944 l 233 944 q 269 935 257 944 q 294 897 282 925 l 472 513 l 449 513 m 326 28 l 326 403 q 356 431 326 431 l 547 431 q 576 403 576 431 l 576 28 q 547 0 576 0 l 356 0 q 326 28 326 0 z "},"Z":{"ha":872,"x_min":43,"x_max":832,"o":"m 832 26 q 803 0 832 0 l 72 0 q 43 26 43 0 l 43 156 q 50 194 43 179 q 72 226 57 208 l 503 736 l 86 736 q 57 763 57 736 l 57 915 q 86 944 57 944 l 782 944 q 811 915 811 944 l 811 775 q 806 743 811 754 q 781 710 800 732 l 351 208 l 803 208 q 832 179 832 208 l 832 26 z "},"Æ":{"ha":1350,"x_min":-7,"x_max":1304,"o":"m 265 224 l 265 421 l 808 421 l 808 224 l 265 224 m 733 944 l 628 751 l 249 39 q 226 10 239 21 q 192 0 214 0 l 42 0 q 5 10 17 0 q 7 47 -7 21 l 488 917 q 503 937 494 929 q 528 944 513 944 l 733 944 m 619 28 l 619 917 q 649 944 619 944 l 840 944 q 869 917 869 944 l 869 28 q 840 0 869 0 l 649 0 q 619 28 619 0 m 1138 599 q 1165 569 1165 599 l 1165 419 q 1138 390 1165 390 l 719 390 l 719 599 l 1138 599 m 1276 944 q 1304 915 1304 944 l 1304 765 q 1276 736 1304 736 l 719 736 l 719 944 l 1276 944 m 1276 208 q 1304 179 1304 208 l 1304 29 q 1276 0 1304 0 l 719 0 l 719 208 l 1276 208 z "},"Œ":{"ha":1528,"x_min":42,"x_max":1482,"o":"m 756 28 l 756 917 q 785 944 756 944 l 976 944 q 1006 917 1006 944 l 1006 28 q 976 0 1006 0 l 785 0 q 756 28 756 0 m 1315 599 q 1343 569 1343 599 l 1343 419 q 1315 390 1343 390 l 856 390 l 856 599 l 1315 599 m 1454 944 q 1482 915 1482 944 l 1482 765 q 1454 736 1482 736 l 856 736 l 856 944 l 1454 944 m 1454 208 q 1482 179 1482 208 l 1482 29 q 1454 0 1482 0 l 856 0 l 856 208 l 1454 208 m 531 -14 q 274 45 385 -14 q 103 213 164 104 q 42 472 42 322 q 103 731 42 622 q 274 899 164 840 q 531 958 385 958 q 699 924 626 958 q 832 844 772 890 l 878 151 q 777 68 829 106 q 665 8 725 31 q 531 -14 606 -14 m 531 201 q 649 235 599 201 q 728 331 700 269 q 756 472 756 392 q 728 615 756 554 q 649 709 700 675 q 531 743 599 743 q 412 709 463 743 q 333 615 361 675 q 306 472 306 554 q 333 331 306 392 q 412 235 361 269 q 531 201 463 201 z "},"Ł":{"ha":799,"x_min":0,"x_max":775,"o":"m 90 28 l 90 917 q 119 944 90 944 q 175 944 138 944 q 251 944 213 944 q 311 944 289 944 q 340 917 340 944 l 340 28 q 311 0 340 0 q 253 0 290 0 q 177 0 215 0 q 119 0 139 0 q 90 28 90 0 m 29 340 q 8 347 15 338 q 0 367 0 356 q 0 390 0 371 q 0 433 0 410 q 0 475 0 456 q 0 499 0 494 q 29 528 0 521 l 499 636 q 520 629 513 639 q 528 607 528 619 q 528 583 528 601 q 528 540 528 564 q 528 498 528 517 q 528 475 528 479 q 499 449 528 456 l 29 340 m 747 208 q 775 179 775 208 l 775 29 q 747 0 775 0 l 190 0 l 190 208 l 747 208 z "},"Ø":{"ha":1061,"x_min":42,"x_max":1019,"o":"m 806 917 q 828 938 817 931 q 854 944 839 944 l 992 944 q 1013 931 1010 944 q 1004 906 1015 918 l 250 28 q 228 7 239 14 q 201 0 217 0 l 64 0 q 44 13 46 0 q 51 39 42 26 l 806 917 m 531 -14 q 274 45 385 -14 q 103 213 164 104 q 42 472 42 322 q 103 731 42 622 q 274 899 164 840 q 531 958 385 958 q 788 899 678 958 q 958 731 897 840 q 1019 472 1019 622 q 958 213 1019 322 q 788 45 897 104 q 531 -14 678 -14 m 531 201 q 649 235 599 201 q 728 331 700 269 q 756 472 756 392 q 728 615 756 554 q 649 709 700 675 q 531 743 599 743 q 412 709 463 743 q 333 615 361 675 q 306 472 306 554 q 333 331 306 392 q 412 235 361 269 q 531 201 463 201 z "},"Ð":{"ha":1011,"x_min":6,"x_max":972,"o":"m 35 386 q 6 413 6 386 l 6 531 q 35 560 6 560 l 463 560 q 492 531 492 560 l 492 413 q 463 386 492 386 l 35 386 m 90 28 l 90 917 q 119 944 90 944 l 311 944 q 340 917 340 944 l 340 28 q 311 0 340 0 l 119 0 q 90 28 90 0 m 449 0 l 190 0 l 190 208 l 446 208 q 584 241 525 208 q 676 333 643 274 q 708 472 708 393 q 676 611 708 551 q 585 703 643 671 q 447 736 526 736 l 190 736 l 190 944 l 447 944 q 722 887 604 944 q 906 724 840 829 q 972 472 972 618 q 906 223 972 329 q 722 58 840 117 q 449 0 604 0 z "},"Þ":{"ha":901,"x_min":90,"x_max":871,"o":"m 90 28 l 90 917 q 119 944 90 944 l 311 944 q 340 917 340 944 l 340 28 q 311 0 340 0 l 119 0 q 90 28 90 0 m 472 139 l 204 139 l 204 347 l 469 347 q 542 364 511 347 q 590 409 572 381 q 607 472 607 438 q 590 542 607 515 q 542 583 572 569 q 471 597 511 597 l 204 597 l 204 806 l 471 806 q 681 765 590 806 q 821 650 771 725 q 871 472 871 575 q 821 301 871 376 q 681 182 771 225 q 472 139 592 139 z "},"a":{"ha":692,"x_min":25,"x_max":682,"o":"m 672 94 l 583 8 q 542 -10 568 -7 q 486 7 515 -12 l 388 75 l 371 96 l 371 344 q 353 384 371 371 q 304 397 336 397 q 215 384 263 397 q 119 353 168 371 q 95 351 103 347 q 81 372 88 356 l 36 486 q 60 532 25 515 q 185 577 114 557 q 346 597 257 597 q 481 576 422 597 q 574 501 540 554 q 607 349 607 447 l 607 200 q 610 177 607 183 q 624 164 614 171 l 668 138 q 682 117 682 129 q 672 94 682 104 m 403 340 l 403 231 l 321 231 q 276 219 290 231 q 263 185 263 207 q 277 153 263 165 q 321 142 292 142 q 371 155 349 142 q 431 194 393 168 l 454 51 q 346 3 392 17 q 251 -11 300 -11 q 94 37 151 -11 q 36 174 36 85 q 62 254 36 217 q 140 316 88 292 q 269 340 192 340 l 403 340 z "},"b":{"ha":765,"x_min":63,"x_max":732,"o":"m 63 28 l 63 917 q 92 944 63 944 l 269 944 q 299 917 299 944 l 299 28 q 269 0 299 0 l 92 0 q 63 28 63 0 m 394 181 q 458 211 435 181 q 482 292 482 242 q 457 372 482 342 q 392 403 432 403 q 324 378 354 403 q 264 308 294 354 l 260 485 q 339 565 292 533 q 467 597 386 597 q 598 566 538 597 q 695 467 658 535 q 732 292 732 400 q 657 65 732 144 q 465 -14 582 -14 q 359 8 411 -14 q 267 74 307 29 l 272 261 q 330 201 300 222 q 394 181 360 181 z "},"c":{"ha":614,"x_min":32,"x_max":594,"o":"m 372 403 q 302 374 329 403 q 275 297 275 346 q 306 213 275 244 q 386 181 336 181 q 444 190 418 181 q 493 213 469 199 q 521 219 511 224 q 536 199 531 214 l 590 75 q 592 58 594 65 q 572 39 589 50 q 481 0 533 14 q 364 -14 429 -14 q 119 65 207 -14 q 32 292 32 144 q 117 519 32 440 q 344 597 201 597 q 467 582 411 597 q 556 550 524 567 q 572 533 571 543 q 569 511 574 522 l 524 385 q 485 368 513 353 q 430 393 458 383 q 372 403 401 403 z "},"d":{"ha":765,"x_min":33,"x_max":703,"o":"m 703 28 q 674 0 703 0 l 496 0 q 467 28 467 0 l 467 917 q 496 944 467 944 l 674 944 q 703 917 703 944 l 703 28 m 371 403 q 308 372 332 403 q 283 292 283 342 q 308 211 283 242 q 374 181 333 181 q 441 205 411 181 q 501 275 471 229 l 506 99 q 427 18 475 50 q 299 -14 379 -14 q 168 17 229 -14 q 70 116 107 49 q 33 292 33 183 q 108 519 33 440 q 300 597 183 597 q 407 576 354 597 q 499 510 460 554 l 493 322 q 436 383 465 363 q 371 403 407 403 z "},"e":{"ha":708,"x_min":31,"x_max":679,"o":"m 481 353 l 439 303 q 416 396 439 369 q 356 422 393 422 q 296 390 318 422 q 274 306 274 358 q 312 201 274 236 q 414 167 350 167 q 526 181 479 167 q 600 203 572 196 q 624 204 615 207 q 639 186 633 201 l 676 69 q 678 51 679 60 q 663 35 678 42 q 546 -1 615 13 q 392 -14 476 -14 q 125 65 219 -14 q 31 292 31 144 q 122 519 31 440 q 360 597 213 597 q 517 563 450 597 q 621 465 583 528 q 658 318 658 403 q 658 290 658 307 q 654 260 657 272 q 624 243 650 243 l 249 243 l 249 353 l 481 353 z "},"f":{"ha":514,"x_min":22,"x_max":560,"o":"m 113 700 q 172 895 113 832 q 342 958 231 958 q 450 944 400 958 q 535 911 500 929 q 549 876 560 897 l 493 757 q 478 740 486 743 q 457 744 471 738 q 424 759 442 753 q 385 765 407 765 q 358 753 367 765 q 349 707 349 740 l 349 29 q 319 0 349 0 l 142 0 q 113 29 113 0 l 113 700 m 51 396 q 22 422 22 396 l 22 554 q 51 583 22 583 l 463 583 q 492 554 492 583 l 492 422 q 463 396 492 396 l 51 396 z "},"g":{"ha":683,"x_min":21,"x_max":685,"o":"m 339 142 q 119 201 199 142 q 39 369 39 261 q 119 537 39 476 q 339 597 199 597 q 558 537 479 597 q 638 369 638 476 q 558 201 638 261 q 339 142 479 142 m 339 294 q 384 315 367 294 q 401 369 401 335 q 384 424 401 404 q 339 444 367 444 q 292 424 310 444 q 275 369 275 404 q 292 315 275 335 q 339 294 310 294 m 279 189 q 246 150 257 169 q 235 115 235 131 q 246 92 235 99 q 279 85 257 85 l 432 85 q 622 35 560 85 q 685 -104 685 -14 q 639 -236 685 -178 q 506 -328 593 -294 q 293 -361 418 -361 q 94 -319 167 -361 q 21 -210 21 -278 q 72 -115 21 -154 q 250 -65 124 -75 l 296 -107 q 245 -132 261 -117 q 229 -168 229 -147 q 255 -208 229 -193 q 329 -222 281 -222 q 399 -214 369 -222 q 446 -190 429 -206 q 463 -156 463 -175 q 442 -128 463 -136 q 368 -119 422 -119 l 238 -119 q 92 -74 143 -119 q 40 46 40 -29 q 85 152 40 107 q 215 215 129 197 l 279 189 m 392 571 l 406 608 q 481 709 432 678 q 601 740 529 740 l 618 740 q 649 708 649 740 l 649 606 q 618 574 649 574 l 596 574 q 547 572 560 574 q 518 558 533 569 l 482 535 l 392 571 z "},"h":{"ha":756,"x_min":63,"x_max":701,"o":"m 63 29 l 63 915 q 92 944 63 944 l 269 944 q 299 915 299 944 l 299 29 q 269 0 299 0 l 92 0 q 63 29 63 0 m 672 0 l 494 0 q 465 25 465 0 l 465 300 q 445 369 465 349 q 386 389 425 389 q 307 364 342 389 q 236 300 272 339 l 236 454 q 330 557 268 517 q 475 597 392 597 q 638 540 574 597 q 701 367 701 483 l 701 28 q 672 0 701 0 z "},"i":{"ha":361,"x_min":49,"x_max":313,"o":"m 63 29 l 63 554 q 92 583 63 583 l 269 583 q 299 554 299 583 l 299 29 q 269 0 299 0 l 92 0 q 63 29 63 0 m 179 650 q 86 689 124 650 q 49 783 49 728 q 86 876 49 838 q 179 914 124 914 q 274 876 236 914 q 313 783 313 838 q 274 689 313 728 q 179 650 236 650 z "},"j":{"ha":361,"x_min":-149,"x_max":313,"o":"m 63 -108 l 63 554 q 92 583 63 583 l 269 583 q 299 554 299 583 l 299 -96 q 239 -294 299 -229 q 61 -360 179 -360 q -40 -345 10 -360 q -124 -312 -89 -331 q -137 -278 -149 -299 l -82 -158 q -67 -141 -75 -143 q -46 -146 -60 -139 q -13 -160 -31 -154 q 26 -167 4 -167 q 53 -154 44 -167 q 63 -108 63 -142 m 179 650 q 86 689 124 650 q 49 783 49 728 q 86 876 49 838 q 179 914 124 914 q 274 876 236 914 q 313 783 313 838 q 274 689 313 728 q 179 650 236 650 z "},"k":{"ha":744,"x_min":63,"x_max":740,"o":"m 63 28 l 63 917 q 92 944 63 944 l 269 944 q 299 917 299 944 l 299 28 q 269 0 299 0 l 92 0 q 63 28 63 0 m 228 329 l 444 563 q 467 580 457 576 q 500 583 478 583 l 678 583 q 706 572 701 583 q 693 543 710 560 l 465 299 l 467 361 l 725 39 q 735 10 740 21 q 710 0 729 0 l 503 0 q 465 7 476 0 q 440 32 454 14 l 228 329 z "},"l":{"ha":361,"x_min":63,"x_max":299,"o":"m 63 28 l 63 917 q 92 944 63 944 l 269 944 q 299 917 299 944 l 299 28 q 269 0 299 0 l 92 0 q 63 28 63 0 z "},"m":{"ha":1103,"x_min":63,"x_max":1049,"o":"m 63 29 l 63 554 q 92 583 63 583 l 269 583 q 299 554 299 583 l 299 29 q 269 0 299 0 l 92 0 q 63 29 63 0 m 644 0 l 467 0 q 438 25 438 0 l 438 300 q 421 369 438 349 q 372 389 404 389 q 301 363 332 389 q 236 300 271 336 l 236 454 q 326 556 268 515 q 461 597 383 597 q 614 540 554 597 q 674 367 674 483 l 674 28 q 644 0 674 0 m 1019 0 l 842 0 q 813 25 813 0 l 813 300 q 796 369 813 349 q 747 389 779 389 q 676 363 707 389 q 611 300 646 336 l 611 482 q 702 566 651 535 q 832 597 753 597 q 988 540 928 597 q 1049 367 1049 483 l 1049 28 q 1019 0 1049 0 z "},"n":{"ha":756,"x_min":63,"x_max":701,"o":"m 63 29 l 63 554 q 92 583 63 583 l 269 583 q 299 554 299 583 l 299 29 q 269 0 299 0 l 92 0 q 63 29 63 0 m 672 0 l 494 0 q 465 25 465 0 l 465 300 q 445 369 465 349 q 386 389 425 389 q 307 364 342 389 q 236 300 272 339 l 236 454 q 330 557 268 517 q 475 597 392 597 q 638 540 574 597 q 701 367 701 483 l 701 28 q 672 0 701 0 z "},"o":{"ha":747,"x_min":31,"x_max":717,"o":"m 374 -14 q 125 65 219 -14 q 31 292 31 144 q 125 519 31 440 q 374 597 219 597 q 622 519 528 597 q 717 292 717 440 q 622 65 717 144 q 374 -14 528 -14 m 374 181 q 441 211 415 181 q 467 292 467 242 q 441 372 467 342 q 374 403 415 403 q 306 372 332 403 q 281 292 281 342 q 306 211 281 242 q 374 181 332 181 z "},"p":{"ha":765,"x_min":63,"x_max":732,"o":"m 63 -319 l 63 556 q 92 583 63 583 l 269 583 q 299 556 299 583 l 299 -319 q 269 -347 299 -347 l 92 -347 q 63 -319 63 -347 m 394 181 q 458 211 435 181 q 482 292 482 242 q 457 372 482 342 q 392 403 432 403 q 324 378 354 403 q 264 308 294 354 l 260 485 q 339 565 292 533 q 467 597 386 597 q 598 566 538 597 q 695 467 658 535 q 732 292 732 400 q 657 65 732 144 q 465 -14 582 -14 q 359 8 411 -14 q 267 74 307 29 l 272 261 q 330 201 300 222 q 394 181 360 181 z "},"q":{"ha":765,"x_min":33,"x_max":703,"o":"m 703 -319 q 674 -347 703 -347 l 496 -347 q 467 -319 467 -347 l 467 556 q 496 583 467 583 l 674 583 q 703 556 703 583 l 703 -319 m 371 403 q 308 372 332 403 q 283 292 283 342 q 308 211 283 242 q 374 181 333 181 q 441 205 411 181 q 501 275 471 229 l 506 99 q 427 18 475 50 q 299 -14 379 -14 q 168 17 229 -14 q 70 116 107 49 q 33 292 33 183 q 108 519 33 440 q 300 597 183 597 q 407 576 354 597 q 499 510 460 554 l 493 322 q 436 383 465 363 q 371 403 407 403 z "},"r":{"ha":567,"x_min":63,"x_max":553,"o":"m 63 29 l 63 554 q 92 583 63 583 l 269 583 q 299 554 299 583 l 299 29 q 269 0 299 0 l 92 0 q 63 29 63 0 m 390 385 q 306 363 339 385 q 236 300 272 340 l 236 413 q 301 504 269 463 q 370 572 332 546 q 461 597 408 597 q 501 594 482 597 q 536 585 521 592 q 552 567 551 578 q 550 546 553 557 l 511 389 q 472 372 506 364 q 435 381 457 376 q 390 385 414 385 z "},"s":{"ha":640,"x_min":25,"x_max":608,"o":"m 322 153 q 350 158 342 153 q 358 174 358 164 q 340 194 358 186 q 258 214 322 203 q 99 280 151 233 q 46 400 46 326 q 80 505 46 461 q 176 573 114 549 q 324 597 239 597 q 466 581 393 597 q 582 539 539 564 q 599 520 597 529 q 596 500 600 511 l 553 397 q 535 374 546 379 q 503 381 524 369 q 426 413 476 396 q 329 431 376 431 q 305 426 314 431 q 296 413 296 422 q 316 392 296 400 q 410 368 336 383 q 559 308 510 349 q 608 189 608 268 q 567 66 608 110 q 460 4 526 22 q 313 -14 393 -14 q 171 1 240 -14 q 49 42 101 15 q 28 62 31 51 q 32 90 25 72 l 72 192 q 90 210 79 207 q 114 206 100 213 q 225 165 171 178 q 322 153 279 153 z "},"t":{"ha":556,"x_min":22,"x_max":529,"o":"m 51 396 q 22 422 22 396 l 22 554 q 51 583 22 583 l 476 583 q 506 554 506 583 l 506 422 q 476 396 506 396 l 51 396 m 349 238 q 358 192 349 204 q 385 179 367 179 q 417 184 403 179 q 444 194 432 189 q 481 182 471 208 l 525 60 q 527 40 529 47 q 511 25 525 32 q 438 -2 482 10 q 343 -14 394 -14 q 169 42 225 -14 q 113 222 113 99 l 113 735 q 142 764 113 764 l 319 764 q 349 735 349 764 l 349 238 z "},"u":{"ha":740,"x_min":53,"x_max":678,"o":"m 678 554 l 678 29 q 649 0 678 0 l 471 0 q 442 29 442 0 l 442 554 q 471 583 442 583 l 649 583 q 678 554 678 583 m 82 583 l 260 583 q 289 558 289 583 l 289 283 q 309 215 289 236 q 368 194 329 194 q 448 219 413 194 q 518 283 483 244 l 518 146 q 423 32 483 78 q 279 -14 363 -14 q 117 43 181 -14 q 53 217 53 100 l 53 556 q 82 583 53 583 z "},"v":{"ha":725,"x_min":8,"x_max":718,"o":"m 354 193 l 465 544 q 522 583 478 583 l 672 583 q 708 573 697 583 q 707 536 718 563 l 504 28 q 464 0 493 0 l 263 0 q 221 28 232 0 l 18 536 q 18 573 8 563 q 53 583 28 583 l 215 583 q 253 576 239 583 q 274 546 267 568 l 385 193 l 354 193 z "},"w":{"ha":1114,"x_min":8,"x_max":1106,"o":"m 463 28 q 422 0 454 0 l 235 0 q 210 6 221 0 q 193 28 199 13 l 18 536 q 18 573 8 563 q 53 583 28 583 l 215 583 q 253 576 239 583 q 274 546 268 568 l 353 208 l 331 208 l 438 544 q 454 574 444 565 q 490 583 464 583 l 638 583 q 674 574 664 583 q 690 544 685 564 l 797 208 l 775 208 l 854 544 q 911 583 864 583 l 1061 583 q 1096 573 1086 583 q 1096 536 1106 563 l 921 28 q 881 0 910 0 l 693 0 q 668 6 679 0 q 651 28 657 13 l 550 332 l 564 332 l 463 28 z "},"x":{"ha":744,"x_min":8,"x_max":733,"o":"m 268 38 q 199 0 243 0 l 44 0 q 14 15 19 0 q 26 56 8 31 l 218 304 l 51 531 q 40 568 35 553 q 72 583 46 583 l 257 583 q 324 546 301 583 l 410 404 l 357 404 l 444 546 q 511 583 469 583 l 682 583 q 715 568 710 583 q 703 531 719 553 l 529 304 l 714 56 q 727 15 733 31 q 696 0 721 0 l 514 0 q 444 38 469 0 l 338 204 l 376 204 l 268 38 z "},"y":{"ha":728,"x_min":-21,"x_max":729,"o":"m 385 221 l 471 28 l 263 28 q 221 56 232 28 l 18 536 q 18 573 8 563 q 53 583 28 583 l 215 583 q 253 576 239 583 q 274 546 267 569 l 385 221 m 268 -37 l 482 554 q 529 583 493 583 l 689 583 q 714 546 729 583 l 449 -132 q 375 -273 413 -224 q 292 -341 338 -322 q 186 -360 247 -360 q 90 -346 142 -360 q 3 -314 38 -332 q -11 -279 -21 -301 l 38 -156 q 74 -143 47 -129 q 117 -163 93 -153 q 164 -174 142 -174 q 200 -167 186 -174 q 229 -131 214 -160 q 268 -37 244 -101 z "},"z":{"ha":628,"x_min":39,"x_max":592,"o":"m 592 26 q 563 0 592 0 l 68 0 q 39 26 39 0 l 39 158 q 44 180 39 174 q 60 194 50 186 l 281 396 l 82 396 q 53 422 53 396 l 53 554 q 82 583 53 583 l 542 583 q 571 554 571 583 l 571 422 q 551 388 571 403 l 317 188 l 563 188 q 592 158 592 188 l 592 26 z "},"æ":{"ha":1039,"x_min":25,"x_max":1010,"o":"m 686 422 q 638 403 658 422 q 610 353 618 385 l 765 353 q 736 407 757 392 q 686 422 715 422 m 321 142 q 356 148 340 142 q 389 165 371 154 q 381 193 385 179 q 374 222 376 207 l 372 231 l 321 231 q 276 219 290 231 q 263 185 263 207 q 277 153 263 165 q 321 142 292 142 m 993 35 q 897 3 953 15 q 772 -12 840 -10 q 722 -14 749 -14 q 576 5 640 -14 q 468 58 513 24 q 359 8 411 26 q 251 -11 307 -11 q 94 37 151 -11 q 36 174 36 85 q 62 254 36 217 q 140 316 88 292 q 269 340 192 340 l 371 340 l 371 343 l 371 344 q 371 344 371 344 q 371 344 371 344 q 353 384 371 371 q 304 397 336 397 q 215 384 263 397 q 119 353 168 371 q 95 351 103 347 q 81 372 88 356 l 65 410 l 36 486 q 60 532 25 515 q 165 572 106 553 q 297 596 225 590 q 346 597 321 597 q 438 588 396 597 q 511 556 481 578 q 594 587 549 576 q 690 597 639 597 q 740 594 715 597 q 907 521 842 582 q 986 364 972 460 q 988 342 988 353 q 989 318 989 331 q 988 290 989 307 q 985 260 988 272 q 954 243 981 243 l 615 243 q 619 234 617 239 q 624 225 621 229 q 672 181 640 196 q 744 167 703 167 q 799 169 772 167 q 876 187 843 176 q 931 203 908 197 q 949 206 942 206 q 969 186 963 204 l 994 108 l 1007 69 q 1009 51 1010 60 q 993 35 1008 42 z "},"œ":{"ha":1138,"x_min":31,"x_max":1108,"o":"m 374 181 q 441 211 415 181 q 467 292 467 242 q 441 372 467 342 q 374 403 415 403 q 306 372 332 403 q 281 292 281 342 q 306 211 281 242 q 374 181 332 181 m 785 422 q 737 403 757 422 q 708 353 717 385 l 864 353 q 835 407 856 392 q 785 422 814 422 m 1092 35 q 1001 5 1053 17 q 886 -11 949 -7 q 821 -14 854 -14 q 691 1 749 -14 q 589 42 633 15 q 492 0 546 14 q 374 -14 439 -14 q 311 -10 342 -14 q 107 82 183 4 q 31 292 31 160 q 107 501 31 424 q 311 593 183 579 q 374 597 342 597 q 490 584 436 597 q 586 544 543 571 q 678 584 626 571 q 789 597 729 597 q 850 593 821 597 q 1015 512 951 576 q 1086 347 1078 447 q 1088 333 1088 340 q 1088 318 1088 325 q 1087 290 1088 307 q 1083 260 1086 272 q 1053 243 1079 243 l 714 243 q 719 231 717 236 q 726 219 722 225 q 773 180 743 193 q 843 167 803 167 q 955 181 908 167 q 1029 203 1001 196 q 1053 204 1044 207 q 1068 186 1063 201 l 1090 117 l 1106 69 q 1108 51 1108 60 q 1092 35 1107 42 z "},"ł":{"ha":361,"x_min":-19,"x_max":381,"o":"m 10 378 q -12 384 -4 375 q -19 404 -19 393 l -19 508 q 10 538 -19 531 l 351 607 q 373 600 365 610 q 381 578 381 590 l 381 474 q 351 447 381 454 l 10 378 m 63 28 l 63 917 q 92 944 63 944 l 269 944 q 299 917 299 944 l 299 28 q 269 0 299 0 l 92 0 q 63 28 63 0 z "},"ø":{"ha":747,"x_min":24,"x_max":725,"o":"m 596 564 q 615 579 607 575 q 636 583 622 583 l 706 583 q 724 574 724 583 q 714 553 725 564 l 153 19 q 135 4 142 8 q 113 0 128 0 l 43 0 q 24 10 25 0 q 35 31 24 19 l 596 564 m 374 -14 q 125 65 219 -14 q 31 292 31 144 q 125 519 31 440 q 374 597 219 597 q 622 519 528 597 q 717 292 717 440 q 622 65 717 144 q 374 -14 528 -14 m 374 181 q 441 211 415 181 q 467 292 467 242 q 441 372 467 342 q 374 403 415 403 q 306 372 332 403 q 281 292 281 342 q 306 211 281 242 q 374 181 332 181 z "},"ð":{"ha":747,"x_min":31,"x_max":710,"o":"m 203 683 l 436 967 q 476 971 454 989 l 522 933 q 525 894 543 917 l 290 611 q 251 606 272 589 l 206 642 q 203 683 182 660 m 467 333 q 454 482 467 413 q 410 608 442 551 q 322 703 379 664 q 178 758 265 742 q 160 772 164 761 q 161 797 156 782 l 204 935 q 216 952 207 946 q 240 954 225 958 q 417 890 333 936 q 567 775 501 844 q 672 614 633 706 q 710 413 710 522 q 617 97 710 207 q 374 -14 525 -14 q 125 65 219 -14 q 31 292 31 144 q 73 451 31 386 q 188 549 115 515 q 354 583 261 583 q 459 563 417 583 q 532 524 501 543 l 476 371 q 447 389 464 382 q 412 399 431 396 q 374 403 393 403 q 306 372 332 403 q 281 292 281 342 q 306 211 281 242 q 374 181 332 181 q 441 223 415 181 q 467 333 467 265 z "},"þ":{"ha":765,"x_min":63,"x_max":732,"o":"m 63 -319 l 63 917 q 92 944 63 944 l 269 944 q 299 917 299 944 l 299 -319 q 269 -347 299 -347 l 92 -347 q 63 -319 63 -347 m 394 181 q 458 211 435 181 q 482 292 482 242 q 457 372 482 342 q 392 403 432 403 q 324 378 354 403 q 264 308 294 354 l 260 485 q 339 565 292 533 q 467 597 386 597 q 598 566 538 597 q 695 467 658 535 q 732 292 732 400 q 657 65 732 144 q 465 -14 582 -14 q 359 8 411 -14 q 267 74 307 29 l 272 261 q 330 201 300 222 q 394 181 360 181 z "},"ß":{"ha":844,"x_min":63,"x_max":817,"o":"m 715 618 q 713 561 715 596 q 699 478 710 526 q 682 464 694 464 q 631 460 656 464 q 592 447 607 456 q 576 419 576 438 q 583 400 576 408 q 602 385 589 392 q 635 372 615 379 q 771 304 725 342 q 817 189 817 267 q 783 69 817 114 q 693 6 750 25 q 565 -14 636 -14 q 460 -3 510 -14 q 368 31 410 8 q 347 51 350 40 q 351 79 344 61 l 392 181 q 409 199 399 196 q 433 194 419 201 q 500 164 474 175 q 553 153 526 153 q 592 159 579 153 q 604 175 604 165 q 585 199 604 190 q 524 222 567 208 q 397 291 442 250 q 353 404 353 332 q 372 494 353 458 q 419 553 390 531 q 474 588 447 576 q 478 614 476 603 q 479 643 479 625 q 453 732 479 699 q 383 765 428 765 q 317 735 336 765 q 299 650 299 706 l 299 29 q 269 0 299 0 l 92 0 q 63 29 63 0 l 63 658 q 137 880 63 801 q 363 958 211 958 q 558 913 481 958 q 675 791 636 868 q 715 618 714 714 z "},"ı":{"ha":361,"x_min":63,"x_max":299,"o":"m 63 29 l 63 554 q 92 583 63 583 l 269 583 q 299 554 299 583 l 299 29 q 269 0 299 0 l 92 0 q 63 29 63 0 z "},"ȷ":{"ha":361,"x_min":-149,"x_max":299,"o":"m 63 -108 l 63 554 q 92 583 63 583 l 269 583 q 299 554 299 583 l 299 -96 q 239 -294 299 -229 q 61 -360 179 -360 q -40 -345 10 -360 q -124 -312 -89 -331 q -137 -278 -149 -299 l -82 -158 q -67 -141 -75 -143 q -46 -146 -60 -139 q -13 -160 -31 -154 q 26 -167 4 -167 q 53 -154 44 -167 q 63 -108 63 -142 z "},"ﬁ":{"ha":860,"x_min":22,"x_max":811,"o":"m 561 29 l 561 554 q 590 583 561 583 l 768 583 q 797 554 797 583 l 797 29 q 768 0 797 0 l 590 0 q 561 29 561 0 m 678 650 q 585 689 622 650 q 547 783 547 728 q 585 876 547 838 q 678 914 622 914 q 773 876 735 914 q 811 783 811 838 q 773 689 811 728 q 678 650 735 650 m 113 700 q 172 895 113 832 q 342 958 231 958 q 445 945 397 958 q 525 915 493 932 q 539 881 550 901 l 483 761 q 469 744 476 747 q 447 749 461 742 q 419 760 433 756 q 385 765 404 765 q 358 753 367 765 q 349 707 349 740 l 349 29 q 319 0 349 0 l 142 0 q 113 29 113 0 l 113 700 m 51 396 q 22 422 22 396 l 22 554 q 51 583 22 583 l 463 583 q 492 554 492 583 l 492 422 q 463 396 492 396 l 51 396 z "},"ﬂ":{"ha":860,"x_min":22,"x_max":797,"o":"m 561 28 l 561 917 q 590 944 561 944 l 768 944 q 797 917 797 944 l 797 28 q 768 0 797 0 l 590 0 q 561 28 561 0 m 113 700 q 172 895 113 832 q 342 958 231 958 q 440 947 394 958 q 517 919 486 935 q 531 885 542 906 l 475 765 q 460 749 468 751 q 439 753 453 747 q 415 761 428 757 q 385 765 401 765 q 358 753 367 765 q 349 707 349 740 l 349 29 q 319 0 349 0 l 142 0 q 113 29 113 0 l 113 700 m 51 396 q 22 422 22 396 l 22 554 q 51 583 22 583 l 463 583 q 492 554 492 583 l 492 422 q 463 396 492 396 l 51 396 z "},"Á":{"ha":1036,"x_min":11,"x_max":1026,"o":"m 526 751 l 276 39 q 219 0 264 0 l 56 0 q 21 10 31 0 q 21 47 11 21 l 363 917 q 403 944 374 944 l 632 944 q 674 917 661 944 l 1015 47 q 1016 10 1026 21 q 981 0 1006 0 l 804 0 q 767 8 782 0 q 746 38 753 15 l 496 751 l 526 751 m 224 224 l 224 421 l 808 421 l 808 224 l 224 224 m 444 1049 l 535 1176 q 560 1201 547 1194 q 597 1208 574 1208 l 763 1208 q 792 1192 786 1208 q 778 1157 799 1176 l 643 1032 q 614 1010 626 1018 q 578 1001 601 1001 l 465 1001 q 437 1015 443 1001 q 444 1049 431 1029 z "},"Â":{"ha":1036,"x_min":11,"x_max":1026,"o":"m 526 751 l 276 39 q 219 0 264 0 l 56 0 q 21 10 31 0 q 21 47 11 21 l 363 917 q 403 944 374 944 l 632 944 q 674 917 661 944 l 1015 47 q 1016 10 1026 21 q 981 0 1006 0 l 804 0 q 767 8 782 0 q 746 38 753 15 l 496 751 l 526 751 m 224 224 l 224 421 l 808 421 l 808 224 l 224 224 m 463 1032 q 435 1008 449 1015 q 397 1001 421 1001 l 299 1001 q 270 1015 276 1001 q 278 1049 264 1029 l 368 1176 q 394 1201 381 1194 q 431 1208 407 1208 l 606 1208 q 642 1201 629 1208 q 668 1176 656 1194 l 758 1049 q 767 1015 774 1029 q 738 1001 760 1001 l 639 1001 q 603 1008 617 1001 q 574 1032 589 1015 l 518 1099 l 463 1032 z "},"Ä":{"ha":1036,"x_min":11,"x_max":1026,"o":"m 526 751 l 276 39 q 219 0 264 0 l 56 0 q 21 10 31 0 q 21 47 11 21 l 363 917 q 403 944 374 944 l 632 944 q 674 917 661 944 l 1015 47 q 1016 10 1026 21 q 981 0 1006 0 l 804 0 q 767 8 782 0 q 746 38 753 15 l 496 751 l 526 751 m 224 224 l 224 421 l 808 421 l 808 224 l 224 224 m 379 996 q 298 1031 332 996 q 264 1114 264 1065 q 298 1195 264 1161 q 379 1229 332 1229 q 463 1195 428 1229 q 497 1114 497 1161 q 463 1031 497 1065 q 379 996 428 996 m 654 996 q 573 1031 607 996 q 539 1114 539 1065 q 573 1195 539 1161 q 654 1229 607 1229 q 738 1195 703 1229 q 772 1114 772 1161 q 738 1031 772 1065 q 654 996 703 996 z "},"À":{"ha":1036,"x_min":11,"x_max":1026,"o":"m 526 751 l 276 39 q 219 0 264 0 l 56 0 q 21 10 31 0 q 21 47 11 21 l 363 917 q 403 944 374 944 l 632 944 q 674 917 661 944 l 1015 47 q 1016 10 1026 21 q 981 0 1006 0 l 804 0 q 767 8 782 0 q 746 38 753 15 l 496 751 l 526 751 m 224 224 l 224 421 l 808 421 l 808 224 l 224 224 m 613 1049 q 621 1015 628 1029 q 592 1001 614 1001 l 479 1001 q 444 1010 457 1001 q 414 1032 431 1018 l 279 1157 q 265 1192 258 1176 q 294 1208 271 1208 l 460 1208 q 497 1201 483 1208 q 522 1176 510 1194 l 613 1049 z "},"Å":{"ha":1036,"x_min":11,"x_max":1026,"o":"m 526 751 l 276 39 q 219 0 264 0 l 56 0 q 21 10 31 0 q 21 47 11 21 l 363 917 q 403 944 374 944 l 632 944 q 674 917 661 944 l 1015 47 q 1016 10 1026 21 q 981 0 1006 0 l 804 0 q 767 8 782 0 q 746 38 753 15 l 496 751 l 526 751 m 224 224 l 224 421 l 808 421 l 808 224 l 224 224 m 518 958 q 567 979 547 958 q 586 1031 586 1000 q 567 1080 586 1060 q 518 1100 547 1100 q 472 1080 490 1100 q 453 1031 453 1060 q 472 979 453 1000 q 518 958 490 958 m 517 835 q 417 861 461 835 q 347 932 372 888 q 321 1031 321 976 q 347 1128 321 1085 q 417 1198 372 1172 q 517 1224 461 1224 q 619 1198 574 1224 q 690 1128 664 1172 q 717 1031 717 1085 q 690 932 717 976 q 619 861 664 888 q 517 835 574 835 z "},"Ã":{"ha":1036,"x_min":11,"x_max":1026,"o":"m 526 751 l 276 39 q 219 0 264 0 l 56 0 q 21 10 31 0 q 21 47 11 21 l 363 917 q 403 944 374 944 l 632 944 q 674 917 661 944 l 1015 47 q 1016 10 1026 21 q 981 0 1006 0 l 804 0 q 767 8 782 0 q 746 38 753 15 l 496 751 l 526 751 m 224 224 l 224 421 l 808 421 l 808 224 l 224 224 m 454 1049 q 411 1041 426 1049 q 376 1017 396 1033 q 349 1002 363 1006 q 324 1011 335 999 l 263 1081 q 258 1100 257 1088 q 267 1121 260 1113 q 356 1197 313 1174 q 438 1219 399 1219 q 495 1208 468 1219 q 549 1185 522 1197 q 601 1174 575 1174 q 642 1181 626 1174 q 675 1206 657 1189 q 702 1223 690 1218 q 728 1213 714 1228 l 792 1139 q 786 1100 806 1121 q 697 1026 739 1049 q 615 1003 656 1003 q 559 1015 588 1003 q 504 1038 531 1026 q 454 1049 478 1049 z "},"Ă":{"ha":1036,"x_min":11,"x_max":1026,"o":"m 526 751 l 276 39 q 219 0 264 0 l 56 0 q 21 10 31 0 q 21 47 11 21 l 363 917 q 403 944 374 944 l 632 944 q 674 917 661 944 l 1015 47 q 1016 10 1026 21 q 981 0 1006 0 l 804 0 q 767 8 782 0 q 746 38 753 15 l 496 751 l 526 751 m 224 224 l 224 421 l 808 421 l 808 224 l 224 224 m 518 994 q 407 1013 461 994 q 317 1072 353 1031 q 275 1185 281 1114 q 303 1215 274 1215 l 414 1215 q 436 1210 428 1215 q 446 1188 444 1204 q 471 1145 449 1157 q 518 1133 493 1133 q 565 1145 543 1133 q 590 1188 588 1157 q 601 1210 593 1204 q 622 1215 608 1215 l 733 1215 q 761 1185 763 1215 q 720 1072 757 1114 q 629 1013 683 1031 q 518 994 575 994 z "},"Ā":{"ha":1036,"x_min":11,"x_max":1026,"o":"m 526 751 l 276 39 q 219 0 264 0 l 56 0 q 21 10 31 0 q 21 47 11 21 l 363 917 q 403 944 374 944 l 632 944 q 674 917 661 944 l 1015 47 q 1016 10 1026 21 q 981 0 1006 0 l 804 0 q 767 8 782 0 q 746 38 753 15 l 496 751 l 526 751 m 224 224 l 224 421 l 808 421 l 808 224 l 224 224 m 318 1026 q 289 1053 289 1026 l 289 1157 q 318 1186 289 1186 l 718 1186 q 747 1157 747 1186 l 747 1053 q 718 1026 747 1026 l 318 1026 z "},"Ą":{"ha":1036,"x_min":11,"x_max":1026,"o":"m 611 421 l 511 708 l 410 421 l 611 421 m 999 -250 q 957 -264 982 -257 q 901 -274 932 -271 q 869 -275 885 -275 q 739 -244 790 -275 q 688 -142 688 -214 q 703 -79 688 -106 q 746 -33 718 -53 q 811 0 774 -14 q 768 8 783 0 q 746 38 753 15 l 681 224 l 342 224 l 276 39 q 256 10 271 21 q 219 0 242 0 l 138 0 q 110 0 124 0 q 83 0 97 0 l 56 0 q 21 10 31 0 q 21 47 11 21 l 21 47 l 363 917 q 403 944 374 944 l 632 944 q 674 917 661 944 l 1015 47 q 1016 10 1026 21 q 982 0 1006 0 q 917 -10 943 0 q 877 -37 890 -21 q 864 -74 864 -54 q 864 -74 864 -74 q 864 -74 864 -74 q 878 -110 864 -100 q 915 -121 893 -121 q 936 -119 928 -121 q 954 -114 944 -117 q 977 -112 969 -108 q 990 -131 985 -115 l 1015 -204 q 1019 -233 1022 -224 q 999 -250 1017 -243 z "},"Ç":{"ha":896,"x_min":43,"x_max":874,"o":"m 518 -14 q 276 42 383 -14 q 106 206 168 97 q 43 472 43 314 q 103 731 43 622 q 269 899 163 840 q 518 958 376 958 q 698 934 621 958 q 847 865 775 910 q 861 826 874 850 l 788 682 q 771 663 781 668 q 749 665 761 658 q 633 722 689 701 q 518 743 576 743 q 407 709 454 743 q 333 615 360 675 q 307 472 307 554 q 335 331 307 392 q 416 235 364 269 q 539 201 468 201 q 638 216 589 201 q 764 265 688 231 q 800 246 786 276 l 863 99 q 863 78 867 89 q 844 61 860 68 q 744 19 792 36 q 642 -6 696 3 q 518 -14 588 -14 m 381 -149 q 363 -128 357 -149 l 379 -65 q 394 -51 381 -54 q 424 -47 406 -49 q 465 -46 442 -46 q 595 -81 556 -46 q 635 -172 635 -117 q 585 -283 635 -246 q 454 -319 535 -319 q 377 -312 410 -319 q 326 -296 344 -306 q 317 -285 318 -292 q 319 -272 317 -278 l 343 -194 q 363 -186 347 -178 q 391 -194 375 -192 q 426 -197 407 -197 q 472 -169 472 -197 q 460 -151 472 -157 q 431 -146 447 -146 q 401 -147 413 -146 q 381 -149 389 -149 z "},"Ć":{"ha":896,"x_min":43,"x_max":874,"o":"m 518 -14 q 276 42 383 -14 q 106 206 168 97 q 43 472 43 314 q 103 731 43 622 q 269 899 163 840 q 518 958 376 958 q 698 934 621 958 q 847 865 775 910 q 861 826 874 850 l 788 682 q 771 663 781 668 q 749 665 761 658 q 633 722 689 701 q 518 743 576 743 q 407 709 454 743 q 333 615 360 675 q 307 472 307 554 q 335 331 307 392 q 416 235 364 269 q 539 201 468 201 q 638 216 589 201 q 764 265 688 231 q 800 246 786 276 l 863 99 q 863 78 867 89 q 844 61 860 68 q 744 19 792 36 q 642 -6 696 3 q 518 -14 588 -14 m 413 1049 l 503 1176 q 528 1201 515 1194 q 565 1208 542 1208 l 731 1208 q 760 1192 754 1208 q 746 1157 767 1176 l 611 1032 q 582 1010 594 1018 q 546 1001 569 1001 l 433 1001 q 405 1015 411 1001 q 413 1049 399 1029 z "},"Č":{"ha":896,"x_min":43,"x_max":874,"o":"m 518 -14 q 276 42 383 -14 q 106 206 168 97 q 43 472 43 314 q 103 731 43 622 q 269 899 163 840 q 518 958 376 958 q 698 934 621 958 q 847 865 775 910 q 861 826 874 850 l 788 682 q 771 663 781 668 q 749 665 761 658 q 633 722 689 701 q 518 743 576 743 q 407 709 454 743 q 333 615 360 675 q 307 472 307 554 q 335 331 307 392 q 416 235 364 269 q 539 201 468 201 q 638 216 589 201 q 764 265 688 231 q 800 246 786 276 l 863 99 q 863 78 867 89 q 844 61 860 68 q 744 19 792 36 q 642 -6 696 3 q 518 -14 588 -14 m 414 1001 q 377 1008 390 1001 q 351 1033 364 1015 l 261 1161 q 253 1194 247 1181 q 282 1208 260 1208 l 381 1208 q 418 1201 404 1208 q 446 1178 432 1194 l 501 1111 l 557 1178 q 586 1201 572 1194 q 622 1208 600 1208 l 721 1208 q 750 1194 743 1208 q 742 1161 757 1181 l 651 1033 q 626 1008 639 1015 q 589 1001 613 1001 l 414 1001 z "},"Ĉ":{"ha":896,"x_min":43,"x_max":874,"o":"m 518 -14 q 276 42 383 -14 q 106 206 168 97 q 43 472 43 314 q 103 731 43 622 q 269 899 163 840 q 518 958 376 958 q 698 934 621 958 q 847 865 775 910 q 861 826 874 850 l 788 682 q 771 663 781 668 q 749 665 761 658 q 633 722 689 701 q 518 743 576 743 q 407 709 454 743 q 333 615 360 675 q 307 472 307 554 q 335 331 307 392 q 416 235 364 269 q 539 201 468 201 q 638 216 589 201 q 764 265 688 231 q 800 246 786 276 l 863 99 q 863 78 867 89 q 844 61 860 68 q 744 19 792 36 q 642 -6 696 3 q 518 -14 588 -14 m 450 1032 q 422 1008 436 1015 q 385 1001 408 1001 l 286 1001 q 258 1015 264 1001 q 265 1049 251 1029 l 356 1176 q 381 1201 368 1194 q 418 1208 394 1208 l 593 1208 q 630 1201 617 1208 q 656 1176 643 1194 l 746 1049 q 754 1015 761 1029 q 725 1001 747 1001 l 626 1001 q 590 1008 604 1001 q 561 1032 576 1015 l 506 1099 l 450 1032 z "},"Ċ":{"ha":896,"x_min":43,"x_max":874,"o":"m 518 -14 q 276 42 383 -14 q 106 206 168 97 q 43 472 43 314 q 103 731 43 622 q 269 899 163 840 q 518 958 376 958 q 698 934 621 958 q 847 865 775 910 q 861 826 874 850 l 788 682 q 771 663 781 668 q 749 665 761 658 q 633 722 689 701 q 518 743 576 743 q 407 709 454 743 q 333 615 360 675 q 307 472 307 554 q 335 331 307 392 q 416 235 364 269 q 539 201 468 201 q 638 216 589 201 q 764 265 688 231 q 800 246 786 276 l 863 99 q 863 78 867 89 q 844 61 860 68 q 744 19 792 36 q 642 -6 696 3 q 518 -14 588 -14 m 510 993 q 417 1032 454 993 q 379 1126 379 1071 q 417 1219 379 1181 q 510 1257 454 1257 q 605 1219 567 1257 q 643 1126 643 1181 q 605 1032 643 1071 q 510 993 567 993 z "},"Ď":{"ha":1011,"x_min":90,"x_max":972,"o":"m 90 28 l 90 917 q 119 944 90 944 l 311 944 q 340 917 340 944 l 340 28 q 311 0 340 0 l 119 0 q 90 28 90 0 m 449 0 l 190 0 l 190 208 l 446 208 q 584 241 525 208 q 676 333 643 274 q 708 472 708 393 q 676 611 708 551 q 585 703 643 671 q 447 736 526 736 l 190 736 l 190 944 l 447 944 q 722 887 604 944 q 906 724 840 829 q 972 472 972 618 q 906 223 972 329 q 722 58 840 117 q 449 0 604 0 m 418 1001 q 381 1008 394 1001 q 356 1033 368 1015 l 265 1161 q 258 1194 251 1181 q 286 1208 264 1208 l 385 1208 q 422 1201 408 1208 q 450 1178 436 1194 l 506 1111 l 561 1178 q 590 1201 576 1194 q 626 1208 604 1208 l 725 1208 q 754 1194 747 1208 q 746 1161 761 1181 l 656 1033 q 630 1008 643 1015 q 593 1001 617 1001 l 418 1001 z "},"Đ":{"ha":1011,"x_min":6,"x_max":972,"o":"m 35 386 q 6 413 6 386 l 6 531 q 35 560 6 560 l 463 560 q 492 531 492 560 l 492 413 q 463 386 492 386 l 35 386 m 90 28 l 90 917 q 119 944 90 944 l 311 944 q 340 917 340 944 l 340 28 q 311 0 340 0 l 119 0 q 90 28 90 0 m 449 0 l 190 0 l 190 208 l 446 208 q 584 241 525 208 q 676 333 643 274 q 708 472 708 393 q 676 611 708 551 q 585 703 643 671 q 447 736 526 736 l 190 736 l 190 944 l 447 944 q 722 887 604 944 q 906 724 840 829 q 972 472 972 618 q 906 223 972 329 q 722 58 840 117 q 449 0 604 0 z "},"É":{"ha":863,"x_min":90,"x_max":817,"o":"m 90 28 l 90 917 q 119 944 90 944 l 311 944 q 340 917 340 944 l 340 28 q 311 0 340 0 l 119 0 q 90 28 90 0 m 650 599 q 678 569 678 599 l 678 419 q 650 390 678 390 l 190 390 l 190 599 l 650 599 m 789 944 q 817 915 817 944 l 817 765 q 789 736 817 736 l 190 736 l 190 944 l 789 944 m 789 208 q 817 179 817 208 l 817 29 q 789 0 817 0 l 190 0 l 190 208 l 789 208 m 351 1049 l 442 1176 q 467 1201 454 1194 q 504 1208 481 1208 l 669 1208 q 699 1192 693 1208 q 685 1157 706 1176 l 550 1032 q 521 1010 533 1018 q 485 1001 508 1001 l 372 1001 q 344 1015 350 1001 q 351 1049 338 1029 z "},"Ê":{"ha":863,"x_min":90,"x_max":817,"o":"m 90 28 l 90 917 q 119 944 90 944 l 311 944 q 340 917 340 944 l 340 28 q 311 0 340 0 l 119 0 q 90 28 90 0 m 650 599 q 678 569 678 599 l 678 419 q 650 390 678 390 l 190 390 l 190 599 l 650 599 m 789 944 q 817 915 817 944 l 817 765 q 789 736 817 736 l 190 736 l 190 944 l 789 944 m 789 208 q 817 179 817 208 l 817 29 q 789 0 817 0 l 190 0 l 190 208 l 789 208 m 390 1032 q 363 1008 376 1015 q 325 1001 349 1001 l 226 1001 q 198 1015 204 1001 q 206 1049 192 1029 l 296 1176 q 322 1201 308 1194 q 358 1208 335 1208 l 533 1208 q 570 1201 557 1208 q 596 1176 583 1194 l 686 1049 q 694 1015 701 1029 q 665 1001 688 1001 l 567 1001 q 531 1008 544 1001 q 501 1032 517 1015 l 446 1099 l 390 1032 z "},"Ë":{"ha":863,"x_min":90,"x_max":817,"o":"m 90 28 l 90 917 q 119 944 90 944 l 311 944 q 340 917 340 944 l 340 28 q 311 0 340 0 l 119 0 q 90 28 90 0 m 650 599 q 678 569 678 599 l 678 419 q 650 390 678 390 l 190 390 l 190 599 l 650 599 m 789 944 q 817 915 817 944 l 817 765 q 789 736 817 736 l 190 736 l 190 944 l 789 944 m 789 208 q 817 179 817 208 l 817 29 q 789 0 817 0 l 190 0 l 190 208 l 789 208 m 319 996 q 238 1031 272 996 q 204 1114 204 1065 q 238 1195 204 1161 q 319 1229 272 1229 q 403 1195 368 1229 q 438 1114 438 1161 q 403 1031 438 1065 q 319 996 368 996 m 594 996 q 513 1031 547 996 q 479 1114 479 1065 q 513 1195 479 1161 q 594 1229 547 1229 q 678 1195 643 1229 q 713 1114 713 1161 q 678 1031 713 1065 q 594 996 643 996 z "},"È":{"ha":863,"x_min":90,"x_max":817,"o":"m 90 28 l 90 917 q 119 944 90 944 l 311 944 q 340 917 340 944 l 340 28 q 311 0 340 0 l 119 0 q 90 28 90 0 m 650 599 q 678 569 678 599 l 678 419 q 650 390 678 390 l 190 390 l 190 599 l 650 599 m 789 944 q 817 915 817 944 l 817 765 q 789 736 817 736 l 190 736 l 190 944 l 789 944 m 789 208 q 817 179 817 208 l 817 29 q 789 0 817 0 l 190 0 l 190 208 l 789 208 m 543 1049 q 551 1015 558 1029 q 522 1001 544 1001 l 410 1001 q 374 1010 388 1001 q 344 1032 361 1018 l 210 1157 q 195 1192 189 1176 q 225 1208 201 1208 l 390 1208 q 427 1201 414 1208 q 453 1176 440 1194 l 543 1049 z "},"Ĕ":{"ha":863,"x_min":90,"x_max":817,"o":"m 90 28 l 90 917 q 119 944 90 944 l 311 944 q 340 917 340 944 l 340 28 q 311 0 340 0 l 119 0 q 90 28 90 0 m 650 599 q 678 569 678 599 l 678 419 q 650 390 678 390 l 190 390 l 190 599 l 650 599 m 789 944 q 817 915 817 944 l 817 765 q 789 736 817 736 l 190 736 l 190 944 l 789 944 m 789 208 q 817 179 817 208 l 817 29 q 789 0 817 0 l 190 0 l 190 208 l 789 208 m 457 994 q 346 1013 400 994 q 256 1072 292 1031 q 214 1185 219 1114 q 242 1215 213 1215 l 353 1215 q 375 1210 367 1215 q 385 1188 383 1204 q 410 1145 388 1157 q 457 1133 432 1133 q 504 1145 482 1133 q 529 1188 526 1157 q 540 1210 532 1204 q 561 1215 547 1215 l 672 1215 q 700 1185 701 1215 q 659 1072 696 1114 q 568 1013 622 1031 q 457 994 514 994 z "},"Ě":{"ha":863,"x_min":90,"x_max":817,"o":"m 90 28 l 90 917 q 119 944 90 944 l 311 944 q 340 917 340 944 l 340 28 q 311 0 340 0 l 119 0 q 90 28 90 0 m 650 599 q 678 569 678 599 l 678 419 q 650 390 678 390 l 190 390 l 190 599 l 650 599 m 789 944 q 817 915 817 944 l 817 765 q 789 736 817 736 l 190 736 l 190 944 l 789 944 m 789 208 q 817 179 817 208 l 817 29 q 789 0 817 0 l 190 0 l 190 208 l 789 208 m 363 1001 q 326 1008 339 1001 q 300 1033 313 1015 l 210 1161 q 202 1194 196 1181 q 231 1208 208 1208 l 329 1208 q 367 1201 353 1208 q 394 1178 381 1194 l 450 1111 l 506 1178 q 535 1201 521 1194 q 571 1208 549 1208 l 669 1208 q 699 1194 692 1208 q 690 1161 706 1181 l 600 1033 q 574 1008 588 1015 q 538 1001 561 1001 l 363 1001 z "},"Ė":{"ha":863,"x_min":90,"x_max":817,"o":"m 90 28 l 90 917 q 119 944 90 944 l 311 944 q 340 917 340 944 l 340 28 q 311 0 340 0 l 119 0 q 90 28 90 0 m 650 599 q 678 569 678 599 l 678 419 q 650 390 678 390 l 190 390 l 190 599 l 650 599 m 789 944 q 817 915 817 944 l 817 765 q 789 736 817 736 l 190 736 l 190 944 l 789 944 m 789 208 q 817 179 817 208 l 817 29 q 789 0 817 0 l 190 0 l 190 208 l 789 208 m 450 993 q 357 1032 394 993 q 319 1126 319 1071 q 357 1219 319 1181 q 450 1257 394 1257 q 545 1219 507 1257 q 583 1126 583 1181 q 545 1032 583 1071 q 450 993 507 993 z "},"Ē":{"ha":863,"x_min":90,"x_max":817,"o":"m 90 28 l 90 917 q 119 944 90 944 l 311 944 q 340 917 340 944 l 340 28 q 311 0 340 0 l 119 0 q 90 28 90 0 m 650 599 q 678 569 678 599 l 678 419 q 650 390 678 390 l 190 390 l 190 599 l 650 599 m 789 944 q 817 915 817 944 l 817 765 q 789 736 817 736 l 190 736 l 190 944 l 789 944 m 789 208 q 817 179 817 208 l 817 29 q 789 0 817 0 l 190 0 l 190 208 l 789 208 m 246 1026 q 217 1053 217 1026 l 217 1157 q 246 1186 217 1186 l 646 1186 q 675 1157 675 1186 l 675 1053 q 646 1026 675 1026 l 246 1026 z "},"Ę":{"ha":863,"x_min":90,"x_max":817,"o":"m 785 -250 q 730 -267 764 -260 q 656 -275 696 -275 q 525 -245 576 -275 q 474 -147 474 -215 q 503 -58 474 -94 q 579 0 533 -22 l 119 0 q 90 28 90 0 l 90 917 q 119 944 90 944 l 789 944 q 817 915 817 944 l 817 765 q 789 736 817 736 l 340 736 l 340 599 l 650 599 q 678 569 678 599 l 678 419 q 650 390 678 390 l 340 390 l 340 208 l 789 208 q 817 179 817 208 l 817 29 q 789 0 817 0 l 768 0 q 703 -10 729 0 q 663 -37 676 -21 q 650 -74 650 -54 q 665 -110 650 -100 q 701 -121 679 -121 q 722 -119 714 -121 q 740 -114 731 -117 q 763 -112 756 -108 q 776 -131 771 -115 l 801 -204 q 806 -233 808 -224 q 785 -250 803 -243 z "},"Ğ":{"ha":978,"x_min":43,"x_max":921,"o":"m 525 201 q 622 226 581 201 q 700 296 664 250 l 772 168 q 645 30 715 74 q 476 -14 575 -14 q 256 42 354 -14 q 101 206 158 97 q 43 472 43 314 q 103 731 43 622 q 272 899 164 840 q 525 958 381 958 q 722 936 639 958 q 886 867 804 914 q 903 849 901 858 q 900 828 906 839 l 826 682 q 810 663 819 668 q 788 665 800 658 q 690 714 732 697 q 609 737 647 731 q 525 743 571 743 q 410 709 460 743 q 334 615 361 675 q 307 472 307 554 q 334 331 307 392 q 410 235 361 269 q 525 201 460 201 m 685 28 l 685 431 q 714 458 685 458 l 892 458 q 921 431 921 458 l 921 28 q 892 0 921 0 l 714 0 q 685 28 685 0 m 503 994 q 392 1013 446 994 q 301 1072 338 1031 q 260 1185 265 1114 q 288 1215 258 1215 l 399 1215 q 421 1210 413 1215 q 431 1188 429 1204 q 456 1145 433 1157 q 503 1133 478 1133 q 550 1145 528 1133 q 575 1188 572 1157 q 585 1210 578 1204 q 607 1215 593 1215 l 718 1215 q 746 1185 747 1215 q 705 1072 742 1114 q 614 1013 668 1031 q 503 994 560 994 z "},"Ĝ":{"ha":978,"x_min":43,"x_max":921,"o":"m 525 201 q 622 226 581 201 q 700 296 664 250 l 772 168 q 645 30 715 74 q 476 -14 575 -14 q 256 42 354 -14 q 101 206 158 97 q 43 472 43 314 q 103 731 43 622 q 272 899 164 840 q 525 958 381 958 q 722 936 639 958 q 886 867 804 914 q 903 849 901 858 q 900 828 906 839 l 826 682 q 810 663 819 668 q 788 665 800 658 q 690 714 732 697 q 609 737 647 731 q 525 743 571 743 q 410 709 460 743 q 334 615 361 675 q 307 472 307 554 q 334 331 307 392 q 410 235 361 269 q 525 201 460 201 m 685 28 l 685 431 q 714 458 685 458 l 892 458 q 921 431 921 458 l 921 28 q 892 0 921 0 l 714 0 q 685 28 685 0 m 447 1032 q 419 1008 433 1015 q 382 1001 406 1001 l 283 1001 q 255 1015 261 1001 q 263 1049 249 1029 l 353 1176 q 378 1201 365 1194 q 415 1208 392 1208 l 590 1208 q 627 1201 614 1208 q 653 1176 640 1194 l 743 1049 q 751 1015 758 1029 q 722 1001 744 1001 l 624 1001 q 588 1008 601 1001 q 558 1032 574 1015 l 503 1099 l 447 1032 z "},"Ģ":{"ha":978,"x_min":43,"x_max":921,"o":"m 525 201 q 622 226 581 201 q 700 296 664 250 l 772 168 q 645 30 715 74 q 476 -14 575 -14 q 256 42 354 -14 q 101 206 158 97 q 43 472 43 314 q 103 731 43 622 q 272 899 164 840 q 525 958 381 958 q 722 936 639 958 q 886 867 804 914 q 903 849 901 858 q 900 828 906 839 l 826 682 q 810 663 819 668 q 788 665 800 658 q 690 714 732 697 q 609 737 647 731 q 525 743 571 743 q 410 709 460 743 q 334 615 361 675 q 307 472 307 554 q 334 331 307 392 q 410 235 361 269 q 525 201 460 201 m 685 28 l 685 431 q 714 458 685 458 l 892 458 q 921 431 921 458 l 921 28 q 892 0 921 0 l 714 0 q 685 28 685 0 m 343 -272 l 404 -96 q 461 -57 418 -57 l 607 -57 q 641 -70 632 -57 q 636 -106 650 -83 l 533 -281 q 510 -309 522 -299 q 476 -319 499 -319 l 371 -319 q 343 -272 326 -319 z "},"Ġ":{"ha":978,"x_min":43,"x_max":921,"o":"m 525 201 q 622 226 581 201 q 700 296 664 250 l 772 168 q 645 30 715 74 q 476 -14 575 -14 q 256 42 354 -14 q 101 206 158 97 q 43 472 43 314 q 103 731 43 622 q 272 899 164 840 q 525 958 381 958 q 722 936 639 958 q 886 867 804 914 q 903 849 901 858 q 900 828 906 839 l 826 682 q 810 663 819 668 q 788 665 800 658 q 690 714 732 697 q 609 737 647 731 q 525 743 571 743 q 410 709 460 743 q 334 615 361 675 q 307 472 307 554 q 334 331 307 392 q 410 235 361 269 q 525 201 460 201 m 685 28 l 685 431 q 714 458 685 458 l 892 458 q 921 431 921 458 l 921 28 q 892 0 921 0 l 714 0 q 685 28 685 0 m 507 993 q 414 1032 451 993 q 376 1126 376 1071 q 414 1219 376 1181 q 507 1257 451 1257 q 602 1219 564 1257 q 640 1126 640 1181 q 602 1032 640 1071 q 507 993 564 993 z "},"Ħ":{"ha":1069,"x_min":21,"x_max":1049,"o":"m 50 689 q 21 715 21 689 l 21 806 q 50 835 21 835 l 1019 835 q 1049 806 1049 835 l 1049 715 q 1019 689 1049 689 l 50 689 m 90 28 l 90 917 q 119 944 90 944 l 311 944 q 340 917 340 944 l 340 28 q 311 0 340 0 l 119 0 q 90 28 90 0 m 729 28 l 729 917 q 758 944 729 944 l 950 944 q 979 917 979 944 l 979 28 q 950 0 979 0 l 758 0 q 729 28 729 0 m 190 404 l 190 613 l 858 613 l 858 404 l 190 404 z "},"Ĥ":{"ha":1069,"x_min":90,"x_max":979,"o":"m 90 28 l 90 917 q 119 944 90 944 l 311 944 q 340 917 340 944 l 340 28 q 311 0 340 0 l 119 0 q 90 28 90 0 m 729 28 l 729 917 q 758 944 729 944 l 950 944 q 979 917 979 944 l 979 28 q 950 0 979 0 l 758 0 q 729 28 729 0 m 190 404 l 190 613 l 858 613 l 858 404 l 190 404 m 479 1032 q 451 1008 465 1015 q 414 1001 438 1001 l 315 1001 q 287 1015 293 1001 q 294 1049 281 1029 l 385 1176 q 410 1201 397 1194 q 447 1208 424 1208 l 622 1208 q 659 1201 646 1208 q 685 1176 672 1194 l 775 1049 q 783 1015 790 1029 q 754 1001 776 1001 l 656 1001 q 619 1008 633 1001 q 590 1032 606 1015 l 535 1099 l 479 1032 z "},"Í":{"ha":431,"x_min":90,"x_max":475,"o":"m 90 28 l 90 917 q 119 944 90 944 l 311 944 q 340 917 340 944 l 340 28 q 311 0 340 0 l 119 0 q 90 28 90 0 m 121 1049 l 211 1176 q 237 1201 224 1194 q 274 1208 250 1208 l 439 1208 q 469 1192 463 1208 q 454 1157 475 1176 l 319 1032 q 290 1010 303 1018 q 254 1001 278 1001 l 142 1001 q 113 1015 119 1001 q 121 1049 107 1029 z "},"Î":{"ha":431,"x_min":-39,"x_max":471,"o":"m 90 28 l 90 917 q 119 944 90 944 l 311 944 q 340 917 340 944 l 340 28 q 311 0 340 0 l 119 0 q 90 28 90 0 m 160 1032 q 132 1008 146 1015 q 94 1001 118 1001 l -4 1001 q -33 1015 -26 1001 q -25 1049 -39 1029 l 65 1176 q 91 1201 78 1194 q 128 1208 104 1208 l 303 1208 q 340 1201 326 1208 q 365 1176 353 1194 l 456 1049 q 464 1015 471 1029 q 435 1001 457 1001 l 336 1001 q 300 1008 314 1001 q 271 1032 286 1015 l 215 1099 l 160 1032 z "},"Ï":{"ha":431,"x_min":-39,"x_max":469,"o":"m 90 28 l 90 917 q 119 944 90 944 l 311 944 q 340 917 340 944 l 340 28 q 311 0 340 0 l 119 0 q 90 28 90 0 m 76 996 q -5 1031 29 996 q -39 1114 -39 1065 q -5 1195 -39 1161 q 76 1229 29 1229 q 160 1195 125 1229 q 194 1114 194 1161 q 160 1031 194 1065 q 76 996 125 996 m 351 996 q 270 1031 304 996 q 236 1114 236 1065 q 270 1195 236 1161 q 351 1229 304 1229 q 435 1195 400 1229 q 469 1114 469 1161 q 435 1031 469 1065 q 351 996 400 996 z "},"Ì":{"ha":431,"x_min":-44,"x_max":340,"o":"m 90 28 l 90 917 q 119 944 90 944 l 311 944 q 340 917 340 944 l 340 28 q 311 0 340 0 l 119 0 q 90 28 90 0 m 310 1049 q 318 1015 325 1029 q 289 1001 311 1001 l 176 1001 q 141 1010 154 1001 q 111 1032 128 1018 l -24 1157 q -38 1192 -44 1176 q -8 1208 -32 1208 l 157 1208 q 194 1201 181 1208 q 219 1176 207 1194 l 310 1049 z "},"Ĭ":{"ha":431,"x_min":-29,"x_max":460,"o":"m 90 28 l 90 917 q 119 944 90 944 l 311 944 q 340 917 340 944 l 340 28 q 311 0 340 0 l 119 0 q 90 28 90 0 m 215 994 q 104 1013 158 994 q 14 1072 50 1031 q -28 1185 -22 1114 q 0 1215 -29 1215 l 111 1215 q 133 1210 125 1215 q 143 1188 142 1204 q 168 1145 146 1157 q 215 1133 190 1133 q 263 1145 240 1133 q 288 1188 285 1157 q 298 1210 290 1204 q 319 1215 306 1215 l 431 1215 q 458 1185 460 1215 q 417 1072 454 1114 q 326 1013 381 1031 q 215 994 272 994 z "},"İ":{"ha":431,"x_min":83,"x_max":347,"o":"m 90 28 l 90 917 q 119 944 90 944 l 311 944 q 340 917 340 944 l 340 28 q 311 0 340 0 l 119 0 q 90 28 90 0 m 214 993 q 121 1032 158 993 q 83 1126 83 1071 q 121 1219 83 1181 q 214 1257 158 1257 q 309 1219 271 1257 q 347 1126 347 1181 q 309 1032 347 1071 q 214 993 271 993 z "},"Ī":{"ha":431,"x_min":-14,"x_max":444,"o":"m 90 28 l 90 917 q 119 944 90 944 l 311 944 q 340 917 340 944 l 340 28 q 311 0 340 0 l 119 0 q 90 28 90 0 m 15 1026 q -14 1053 -14 1026 l -14 1157 q 15 1186 -14 1186 l 415 1186 q 444 1157 444 1186 l 444 1053 q 415 1026 444 1026 l 15 1026 z "},"Į":{"ha":431,"x_min":18,"x_max":353,"o":"m 200 -275 q 69 -245 121 -275 q 18 -147 18 -215 q 48 -58 18 -94 q 124 0 78 -22 q 99 8 108 0 q 90 28 90 15 l 90 917 q 119 944 90 944 l 229 944 l 311 944 q 340 917 340 944 l 340 28 q 313 0 340 0 q 294 -1 303 0 q 276 -3 285 -1 q 231 -17 249 -7 q 203 -42 213 -28 q 194 -74 194 -57 q 194 -74 194 -74 q 194 -74 194 -74 q 209 -110 194 -100 q 246 -121 224 -121 q 267 -119 258 -121 q 285 -114 275 -117 q 308 -112 300 -108 q 321 -131 315 -115 l 346 -204 q 350 -233 353 -224 q 329 -250 347 -243 q 274 -267 308 -260 q 200 -275 240 -275 z "},"Ĩ":{"ha":431,"x_min":-46,"x_max":503,"o":"m 90 28 l 90 917 q 119 944 90 944 l 311 944 q 340 917 340 944 l 340 28 q 311 0 340 0 l 119 0 q 90 28 90 0 m 151 1049 q 108 1041 124 1049 q 74 1017 93 1033 q 46 1002 60 1006 q 21 1011 32 999 l -40 1081 q -44 1100 -46 1088 q -36 1121 -43 1113 q 53 1197 10 1174 q 135 1219 96 1219 q 192 1208 165 1219 q 246 1185 219 1197 q 299 1174 272 1174 q 339 1181 324 1174 q 372 1206 354 1189 q 399 1223 388 1218 q 425 1213 411 1228 l 489 1139 q 483 1100 503 1121 q 394 1026 436 1049 q 313 1003 353 1003 q 256 1015 285 1003 q 201 1038 228 1026 q 151 1049 175 1049 z "},"Ĵ":{"ha":686,"x_min":4,"x_max":735,"o":"m 607 279 q 524 58 607 131 q 306 -14 440 -14 q 155 6 217 -14 q 38 53 93 26 q 21 101 4 68 l 88 240 q 129 254 101 268 q 217 215 182 228 q 292 201 253 201 q 328 210 314 201 q 350 235 343 219 q 357 272 357 251 l 357 917 q 386 944 357 944 l 578 944 q 607 917 607 944 l 607 279 m 424 1032 q 396 1008 410 1015 q 358 1001 382 1001 l 260 1001 q 231 1015 238 1001 q 239 1049 225 1029 l 329 1176 q 355 1201 342 1194 q 392 1208 368 1208 l 567 1208 q 603 1201 590 1208 q 629 1176 617 1194 l 719 1049 q 728 1015 735 1029 q 699 1001 721 1001 l 600 1001 q 564 1008 578 1001 q 535 1032 550 1015 l 479 1099 l 424 1032 z "},"Ĳ":{"ha":1117,"x_min":90,"x_max":1038,"o":"m 90 28 l 90 917 q 119 944 90 944 l 311 944 q 340 917 340 944 l 340 28 q 311 0 340 0 l 119 0 q 90 28 90 0 m 1038 279 q 954 58 1038 131 q 736 -14 871 -14 q 585 6 647 -14 q 468 53 524 26 q 451 101 435 68 l 518 240 q 560 254 532 268 q 648 215 613 228 q 722 201 683 201 q 759 210 744 201 q 781 235 774 219 q 788 272 788 251 l 788 917 q 817 944 788 944 l 1008 944 q 1038 917 1038 944 l 1038 279 z "},"Ķ":{"ha":953,"x_min":90,"x_max":946,"o":"m 90 28 l 90 917 q 119 944 90 944 l 311 944 q 340 917 340 944 l 340 28 q 311 0 340 0 l 119 0 q 90 28 90 0 m 274 510 l 629 924 q 651 941 640 938 q 685 944 663 944 l 883 944 q 910 933 907 944 q 899 904 914 922 l 533 482 l 535 544 l 931 39 q 940 10 946 21 q 915 0 935 0 l 688 0 q 650 7 661 0 q 625 32 639 14 l 274 510 m 331 -272 l 392 -96 q 449 -57 406 -57 l 594 -57 q 628 -70 619 -57 q 624 -106 638 -83 l 521 -281 q 498 -309 510 -299 q 464 -319 486 -319 l 358 -319 q 331 -272 314 -319 z "},"Ĺ":{"ha":799,"x_min":90,"x_max":775,"o":"m 90 28 l 90 917 q 119 944 90 944 l 311 944 q 340 917 340 944 l 340 28 q 311 0 340 0 l 119 0 q 90 28 90 0 m 747 208 q 775 179 775 208 l 775 29 q 747 0 775 0 l 190 0 l 190 208 l 747 208 m 140 1049 l 231 1176 q 256 1201 243 1194 q 293 1208 269 1208 l 458 1208 q 488 1192 482 1208 q 474 1157 494 1176 l 339 1032 q 310 1010 322 1018 q 274 1001 297 1001 l 161 1001 q 133 1015 139 1001 q 140 1049 126 1029 z "},"Ľ":{"ha":799,"x_min":90,"x_max":775,"o":"m 90 28 l 90 917 q 119 944 90 944 l 311 944 q 340 917 340 944 l 340 28 q 311 0 340 0 l 119 0 q 90 28 90 0 m 747 208 q 775 179 775 208 l 775 29 q 747 0 775 0 l 190 0 l 190 208 l 747 208 m 418 722 l 418 906 q 428 936 418 928 q 460 944 438 944 l 600 944 q 631 933 625 944 q 629 896 636 922 l 588 721 q 572 690 582 699 q 542 682 561 682 l 456 682 q 426 691 435 682 q 418 722 418 700 z "},"Ļ":{"ha":799,"x_min":90,"x_max":775,"o":"m 90 28 l 90 917 q 119 944 90 944 l 311 944 q 340 917 340 944 l 340 28 q 311 0 340 0 l 119 0 q 90 28 90 0 m 747 208 q 775 179 775 208 l 775 29 q 747 0 775 0 l 190 0 l 190 208 l 747 208 m 254 -272 l 315 -96 q 372 -57 329 -57 l 518 -57 q 552 -70 543 -57 q 547 -106 561 -83 l 444 -281 q 422 -309 433 -299 q 388 -319 410 -319 l 282 -319 q 254 -272 238 -319 z "},"Ŀ":{"ha":799,"x_min":90,"x_max":775,"o":"m 90 28 l 90 917 q 119 944 90 944 l 311 944 q 340 917 340 944 l 340 28 q 311 0 340 0 l 119 0 q 90 28 90 0 m 747 208 q 775 179 775 208 l 775 29 q 747 0 775 0 l 190 0 l 190 208 l 747 208 m 599 400 q 506 439 543 400 q 468 533 468 478 q 506 626 468 588 q 599 664 543 664 q 694 626 656 664 q 732 533 732 588 q 694 439 732 478 q 599 400 656 400 z "},"Ñ":{"ha":1014,"x_min":90,"x_max":924,"o":"m 326 28 q 297 0 326 0 l 119 0 q 90 28 90 0 l 90 917 q 119 944 90 944 l 321 944 q 365 922 351 944 l 707 336 l 688 331 l 688 917 q 717 944 688 944 l 894 944 q 924 917 924 944 l 924 28 q 894 0 924 0 l 700 0 q 677 6 686 0 q 661 22 668 13 l 307 608 l 326 614 l 326 28 m 443 1049 q 400 1041 415 1049 q 365 1017 385 1033 q 338 1002 351 1006 q 313 1011 324 999 l 251 1081 q 247 1100 246 1088 q 256 1121 249 1113 q 344 1197 301 1174 q 426 1219 388 1219 q 484 1208 457 1219 q 538 1185 511 1197 q 590 1174 564 1174 q 631 1181 615 1174 q 664 1206 646 1189 q 691 1223 679 1218 q 717 1213 703 1228 l 781 1139 q 775 1100 794 1121 q 686 1026 728 1049 q 604 1003 644 1003 q 548 1015 576 1003 q 493 1038 519 1026 q 443 1049 467 1049 z "},"Ń":{"ha":1014,"x_min":90,"x_max":924,"o":"m 326 28 q 297 0 326 0 l 119 0 q 90 28 90 0 l 90 917 q 119 944 90 944 l 321 944 q 365 922 351 944 l 707 336 l 688 331 l 688 917 q 717 944 688 944 l 894 944 q 924 917 924 944 l 924 28 q 894 0 924 0 l 700 0 q 677 6 686 0 q 661 22 668 13 l 307 608 l 326 614 l 326 28 m 413 1049 l 503 1176 q 528 1201 515 1194 q 565 1208 542 1208 l 731 1208 q 760 1192 754 1208 q 746 1157 767 1176 l 611 1032 q 582 1010 594 1018 q 546 1001 569 1001 l 433 1001 q 405 1015 411 1001 q 413 1049 399 1029 z "},"Ň":{"ha":1014,"x_min":90,"x_max":924,"o":"m 326 28 q 297 0 326 0 l 119 0 q 90 28 90 0 l 90 917 q 119 944 90 944 l 321 944 q 365 922 351 944 l 707 336 l 688 331 l 688 917 q 717 944 688 944 l 894 944 q 924 917 924 944 l 924 28 q 894 0 924 0 l 700 0 q 677 6 686 0 q 661 22 668 13 l 307 608 l 326 614 l 326 28 m 419 1001 q 383 1008 396 1001 q 357 1033 369 1015 l 267 1161 q 259 1194 253 1181 q 288 1208 265 1208 l 386 1208 q 424 1201 410 1208 q 451 1178 438 1194 l 507 1111 l 563 1178 q 592 1201 578 1194 q 628 1208 606 1208 l 726 1208 q 756 1194 749 1208 q 747 1161 763 1181 l 657 1033 q 631 1008 644 1015 q 594 1001 618 1001 l 419 1001 z "},"Ņ":{"ha":1014,"x_min":90,"x_max":924,"o":"m 326 28 q 297 0 326 0 l 119 0 q 90 28 90 0 l 90 917 q 119 944 90 944 l 321 944 q 365 922 351 944 l 707 336 l 688 331 l 688 917 q 717 944 688 944 l 894 944 q 924 917 924 944 l 924 28 q 894 0 924 0 l 700 0 q 677 6 686 0 q 661 22 668 13 l 307 608 l 326 614 l 326 28 m 361 -272 l 422 -96 q 479 -57 436 -57 l 625 -57 q 659 -70 650 -57 q 654 -106 668 -83 l 551 -281 q 528 -309 540 -299 q 494 -319 517 -319 l 389 -319 q 361 -272 344 -319 z "},"Ó":{"ha":1061,"x_min":42,"x_max":1019,"o":"m 531 -14 q 274 45 385 -14 q 103 213 164 104 q 42 472 42 322 q 103 731 42 622 q 274 899 164 840 q 531 958 385 958 q 788 899 678 958 q 958 731 897 840 q 1019 472 1019 622 q 958 213 1019 322 q 788 45 897 104 q 531 -14 678 -14 m 531 201 q 649 235 599 201 q 728 331 700 269 q 756 472 756 392 q 728 615 756 554 q 649 709 700 675 q 531 743 599 743 q 412 709 463 743 q 333 615 361 675 q 306 472 306 554 q 333 331 306 392 q 412 235 361 269 q 531 201 463 201 m 443 1051 l 533 1179 q 559 1204 546 1197 q 596 1211 572 1211 l 761 1211 q 791 1195 785 1211 q 776 1160 797 1179 l 642 1035 q 613 1013 625 1021 q 576 1004 600 1004 l 464 1004 q 435 1018 442 1004 q 443 1051 429 1032 z "},"Ô":{"ha":1061,"x_min":42,"x_max":1019,"o":"m 531 -14 q 274 45 385 -14 q 103 213 164 104 q 42 472 42 322 q 103 731 42 622 q 274 899 164 840 q 531 958 385 958 q 788 899 678 958 q 958 731 897 840 q 1019 472 1019 622 q 958 213 1019 322 q 788 45 897 104 q 531 -14 678 -14 m 531 201 q 649 235 599 201 q 728 331 700 269 q 756 472 756 392 q 728 615 756 554 q 649 709 700 675 q 531 743 599 743 q 412 709 463 743 q 333 615 361 675 q 306 472 306 554 q 333 331 306 392 q 412 235 361 269 q 531 201 463 201 m 475 1032 q 447 1008 461 1015 q 410 1001 433 1001 l 311 1001 q 283 1015 289 1001 q 290 1049 276 1029 l 381 1176 q 406 1201 393 1194 q 443 1208 419 1208 l 618 1208 q 655 1201 642 1208 q 681 1176 668 1194 l 771 1049 q 779 1015 786 1029 q 750 1001 772 1001 l 651 1001 q 615 1008 629 1001 q 586 1032 601 1015 l 531 1099 l 475 1032 z "},"Ö":{"ha":1061,"x_min":42,"x_max":1019,"o":"m 531 -14 q 274 45 385 -14 q 103 213 164 104 q 42 472 42 322 q 103 731 42 622 q 274 899 164 840 q 531 958 385 958 q 788 899 678 958 q 958 731 897 840 q 1019 472 1019 622 q 958 213 1019 322 q 788 45 897 104 q 531 -14 678 -14 m 531 201 q 649 235 599 201 q 728 331 700 269 q 756 472 756 392 q 728 615 756 554 q 649 709 700 675 q 531 743 599 743 q 412 709 463 743 q 333 615 361 675 q 306 472 306 554 q 333 331 306 392 q 412 235 361 269 q 531 201 463 201 m 392 996 q 310 1031 344 996 q 276 1114 276 1065 q 310 1195 276 1161 q 392 1229 344 1229 q 475 1195 440 1229 q 510 1114 510 1161 q 475 1031 510 1065 q 392 996 440 996 m 667 996 q 585 1031 619 996 q 551 1114 551 1065 q 585 1195 551 1161 q 667 1229 619 1229 q 750 1195 715 1229 q 785 1114 785 1161 q 750 1031 785 1065 q 667 996 715 996 z "},"Ò":{"ha":1061,"x_min":42,"x_max":1019,"o":"m 531 -14 q 274 45 385 -14 q 103 213 164 104 q 42 472 42 322 q 103 731 42 622 q 274 899 164 840 q 531 958 385 958 q 788 899 678 958 q 958 731 897 840 q 1019 472 1019 622 q 958 213 1019 322 q 788 45 897 104 q 531 -14 678 -14 m 531 201 q 649 235 599 201 q 728 331 700 269 q 756 472 756 392 q 728 615 756 554 q 649 709 700 675 q 531 743 599 743 q 412 709 463 743 q 333 615 361 675 q 306 472 306 554 q 333 331 306 392 q 412 235 361 269 q 531 201 463 201 m 625 1049 q 633 1015 640 1029 q 604 1001 626 1001 l 492 1001 q 456 1010 469 1001 q 426 1032 443 1018 l 292 1157 q 277 1192 271 1176 q 307 1208 283 1208 l 472 1208 q 509 1201 496 1208 q 535 1176 522 1194 l 625 1049 z "},"Õ":{"ha":1061,"x_min":42,"x_max":1019,"o":"m 531 -14 q 274 45 385 -14 q 103 213 164 104 q 42 472 42 322 q 103 731 42 622 q 274 899 164 840 q 531 958 385 958 q 788 899 678 958 q 958 731 897 840 q 1019 472 1019 622 q 958 213 1019 322 q 788 45 897 104 q 531 -14 678 -14 m 531 201 q 649 235 599 201 q 728 331 700 269 q 756 472 756 392 q 728 615 756 554 q 649 709 700 675 q 531 743 599 743 q 412 709 463 743 q 333 615 361 675 q 306 472 306 554 q 333 331 306 392 q 412 235 361 269 q 531 201 463 201 m 467 1049 q 424 1041 439 1049 q 389 1017 408 1033 q 361 1002 375 1006 q 336 1011 347 999 l 275 1081 q 271 1100 269 1088 q 279 1121 272 1113 q 368 1197 325 1174 q 450 1219 411 1219 q 508 1208 481 1219 q 561 1185 535 1197 q 614 1174 588 1174 q 654 1181 639 1174 q 688 1206 669 1189 q 715 1223 703 1218 q 740 1213 726 1228 l 804 1139 q 799 1100 818 1121 q 710 1026 751 1049 q 628 1003 668 1003 q 572 1015 600 1003 q 517 1038 543 1026 q 467 1049 490 1049 z "},"Ŏ":{"ha":1061,"x_min":42,"x_max":1019,"o":"m 531 -14 q 274 45 385 -14 q 103 213 164 104 q 42 472 42 322 q 103 731 42 622 q 274 899 164 840 q 531 958 385 958 q 788 899 678 958 q 958 731 897 840 q 1019 472 1019 622 q 958 213 1019 322 q 788 45 897 104 q 531 -14 678 -14 m 531 201 q 649 235 599 201 q 728 331 700 269 q 756 472 756 392 q 728 615 756 554 q 649 709 700 675 q 531 743 599 743 q 412 709 463 743 q 333 615 361 675 q 306 472 306 554 q 333 331 306 392 q 412 235 361 269 q 531 201 463 201 m 531 994 q 419 1013 474 994 q 329 1072 365 1031 q 288 1185 293 1114 q 315 1215 286 1215 l 426 1215 q 449 1210 440 1215 q 458 1188 457 1204 q 483 1145 461 1157 q 531 1133 506 1133 q 578 1145 556 1133 q 603 1188 600 1157 q 613 1210 606 1204 q 635 1215 621 1215 l 746 1215 q 774 1185 775 1215 q 733 1072 769 1114 q 642 1013 696 1031 q 531 994 588 994 z "},"Ő":{"ha":1061,"x_min":42,"x_max":1019,"o":"m 531 -14 q 274 45 385 -14 q 103 213 164 104 q 42 472 42 322 q 103 731 42 622 q 274 899 164 840 q 531 958 385 958 q 788 899 678 958 q 958 731 897 840 q 1019 472 1019 622 q 958 213 1019 322 q 788 45 897 104 q 531 -14 678 -14 m 531 201 q 649 235 599 201 q 728 331 700 269 q 756 472 756 392 q 728 615 756 554 q 649 709 700 675 q 531 743 599 743 q 412 709 463 743 q 333 615 361 675 q 306 472 306 554 q 333 331 306 392 q 412 235 361 269 q 531 201 463 201 m 318 1049 l 408 1176 q 434 1201 421 1194 q 471 1208 447 1208 l 608 1208 q 638 1192 632 1208 q 624 1157 644 1176 l 489 1032 q 460 1010 472 1018 q 424 1001 447 1001 l 339 1001 q 310 1015 317 1001 q 318 1049 304 1029 m 610 1049 l 700 1176 q 726 1201 713 1194 q 763 1208 739 1208 l 900 1208 q 930 1192 924 1208 q 915 1157 936 1176 l 781 1032 q 751 1010 764 1018 q 715 1001 739 1001 l 631 1001 q 602 1015 608 1001 q 610 1049 596 1029 z "},"Ō":{"ha":1061,"x_min":42,"x_max":1019,"o":"m 531 -14 q 274 45 385 -14 q 103 213 164 104 q 42 472 42 322 q 103 731 42 622 q 274 899 164 840 q 531 958 385 958 q 788 899 678 958 q 958 731 897 840 q 1019 472 1019 622 q 958 213 1019 322 q 788 45 897 104 q 531 -14 678 -14 m 531 201 q 649 235 599 201 q 728 331 700 269 q 756 472 756 392 q 728 615 756 554 q 649 709 700 675 q 531 743 599 743 q 412 709 463 743 q 333 615 361 675 q 306 472 306 554 q 333 331 306 392 q 412 235 361 269 q 531 201 463 201 m 331 1026 q 301 1053 301 1026 l 301 1157 q 331 1186 301 1186 l 731 1186 q 760 1157 760 1186 l 760 1053 q 731 1026 760 1026 l 331 1026 z "},"Ŕ":{"ha":944,"x_min":90,"x_max":938,"o":"m 90 28 l 90 917 q 119 944 90 944 l 311 944 q 340 917 340 944 l 340 28 q 311 0 340 0 l 119 0 q 90 28 90 0 m 486 347 l 464 319 l 218 319 l 218 528 l 483 528 q 568 554 536 528 q 600 632 600 581 q 568 710 600 685 q 485 736 536 736 l 218 736 l 218 944 l 485 944 q 683 906 599 944 q 816 799 768 868 q 864 632 864 729 q 817 474 864 538 q 684 378 769 410 q 486 347 599 347 m 418 329 l 597 475 l 918 47 q 923 10 938 21 q 883 0 908 0 l 681 0 q 648 8 658 0 q 622 38 638 15 l 418 329 m 378 1049 l 468 1176 q 494 1201 481 1194 q 531 1208 507 1208 l 696 1208 q 726 1192 719 1208 q 711 1157 732 1176 l 576 1032 q 547 1010 560 1018 q 511 1001 535 1001 l 399 1001 q 370 1015 376 1001 q 378 1049 364 1029 z "},"Ř":{"ha":944,"x_min":90,"x_max":938,"o":"m 90 28 l 90 917 q 119 944 90 944 l 311 944 q 340 917 340 944 l 340 28 q 311 0 340 0 l 119 0 q 90 28 90 0 m 486 347 l 464 319 l 218 319 l 218 528 l 483 528 q 568 554 536 528 q 600 632 600 581 q 568 710 600 685 q 485 736 536 736 l 218 736 l 218 944 l 485 944 q 683 906 599 944 q 816 799 768 868 q 864 632 864 729 q 817 474 864 538 q 684 378 769 410 q 486 347 599 347 m 418 329 l 597 475 l 918 47 q 923 10 938 21 q 883 0 908 0 l 681 0 q 648 8 658 0 q 622 38 638 15 l 418 329 m 385 1001 q 348 1008 361 1001 q 322 1033 335 1015 l 232 1161 q 224 1194 218 1181 q 253 1208 231 1208 l 351 1208 q 389 1201 375 1208 q 417 1178 403 1194 l 472 1111 l 528 1178 q 557 1201 543 1194 q 593 1208 571 1208 l 692 1208 q 721 1194 714 1208 q 713 1161 728 1181 l 622 1033 q 597 1008 610 1015 q 560 1001 583 1001 l 385 1001 z "},"Ŗ":{"ha":944,"x_min":90,"x_max":938,"o":"m 90 28 l 90 917 q 119 944 90 944 l 311 944 q 340 917 340 944 l 340 28 q 311 0 340 0 l 119 0 q 90 28 90 0 m 486 347 l 464 319 l 218 319 l 218 528 l 483 528 q 568 554 536 528 q 600 632 600 581 q 568 710 600 685 q 485 736 536 736 l 218 736 l 218 944 l 485 944 q 683 906 599 944 q 816 799 768 868 q 864 632 864 729 q 817 474 864 538 q 684 378 769 410 q 486 347 599 347 m 418 329 l 597 475 l 918 47 q 923 10 938 21 q 883 0 908 0 l 681 0 q 648 8 658 0 q 622 38 638 15 l 418 329 m 326 -272 l 388 -96 q 444 -57 401 -57 l 590 -57 q 624 -70 615 -57 q 619 -106 633 -83 l 517 -281 q 494 -309 506 -299 q 460 -319 482 -319 l 354 -319 q 326 -272 310 -319 z "},"Š":{"ha":868,"x_min":33,"x_max":826,"o":"m 468 201 q 519 208 497 201 q 551 227 540 214 q 563 258 563 240 q 547 293 563 279 q 490 322 532 307 q 364 360 447 338 q 184 434 251 392 q 86 533 117 476 q 56 664 56 590 q 96 813 56 746 q 219 919 136 879 q 431 958 303 958 q 628 929 529 958 q 800 858 728 900 q 817 840 815 849 q 814 819 819 831 l 744 668 q 726 645 736 650 q 694 651 715 640 q 614 692 660 671 q 519 728 568 714 q 419 743 469 743 q 360 737 382 743 q 328 718 338 731 q 319 689 319 706 q 338 651 319 667 q 402 621 356 636 q 533 581 449 606 q 687 520 621 556 q 790 429 753 485 q 826 288 826 374 q 779 124 826 192 q 650 22 732 57 q 463 -14 568 -14 q 235 13 331 -14 q 58 83 140 40 q 37 104 40 93 q 42 132 33 115 l 113 282 q 154 296 126 310 q 310 228 240 254 q 468 201 381 201 m 347 1001 q 310 1008 322 1001 q 285 1033 297 1015 l 194 1161 q 186 1194 179 1181 q 215 1208 193 1208 l 314 1208 q 350 1201 336 1208 q 379 1178 364 1194 l 435 1111 l 490 1178 q 518 1201 504 1194 q 556 1208 532 1208 l 654 1208 q 682 1194 675 1208 q 675 1161 689 1181 l 585 1033 q 559 1008 572 1015 q 522 1001 546 1001 l 347 1001 z "},"Ś":{"ha":868,"x_min":33,"x_max":826,"o":"m 468 201 q 519 208 497 201 q 551 227 540 214 q 563 258 563 240 q 547 293 563 279 q 490 322 532 307 q 364 360 447 338 q 184 434 251 392 q 86 533 117 476 q 56 664 56 590 q 96 813 56 746 q 219 919 136 879 q 431 958 303 958 q 628 929 529 958 q 800 858 728 900 q 817 840 815 849 q 814 819 819 831 l 744 668 q 726 645 736 650 q 694 651 715 640 q 614 692 660 671 q 519 728 568 714 q 419 743 469 743 q 360 737 382 743 q 328 718 338 731 q 319 689 319 706 q 338 651 319 667 q 402 621 356 636 q 533 581 449 606 q 687 520 621 556 q 790 429 753 485 q 826 288 826 374 q 779 124 826 192 q 650 22 732 57 q 463 -14 568 -14 q 235 13 331 -14 q 58 83 140 40 q 37 104 40 93 q 42 132 33 115 l 113 282 q 154 296 126 310 q 310 228 240 254 q 468 201 381 201 m 340 1049 l 431 1176 q 456 1201 443 1194 q 493 1208 468 1208 l 658 1208 q 688 1192 682 1208 q 674 1157 694 1176 l 539 1032 q 509 1010 522 1018 q 474 1001 496 1001 l 361 1001 q 332 1015 339 1001 q 340 1049 325 1029 z "},"Ş":{"ha":868,"x_min":33,"x_max":826,"o":"m 468 201 q 519 208 497 201 q 551 227 540 214 q 563 258 563 240 q 547 293 563 279 q 490 322 532 307 q 364 360 447 338 q 184 434 251 392 q 86 533 117 476 q 56 664 56 590 q 96 813 56 746 q 219 919 136 879 q 431 958 303 958 q 628 929 529 958 q 800 858 728 900 q 817 840 815 849 q 814 819 819 831 l 744 668 q 726 645 736 650 q 694 651 715 640 q 614 692 660 671 q 519 728 568 714 q 419 743 469 743 q 360 737 382 743 q 328 718 338 731 q 319 689 319 706 q 338 651 319 667 q 402 621 356 636 q 533 581 449 606 q 687 520 621 556 q 790 429 753 485 q 826 288 826 374 q 779 124 826 192 q 650 22 732 57 q 463 -14 568 -14 q 235 13 331 -14 q 58 83 140 40 q 37 104 40 93 q 42 132 33 115 l 113 282 q 154 296 126 310 q 310 228 240 254 q 468 201 381 201 m 325 -149 q 307 -128 303 -149 l 324 -65 q 339 -51 326 -54 q 367 -48 350 -50 q 404 -46 383 -46 q 531 -81 493 -46 q 568 -172 568 -117 q 519 -283 568 -246 q 393 -319 471 -319 q 320 -312 351 -319 q 271 -296 289 -306 q 263 -285 263 -292 q 264 -272 263 -278 l 288 -194 q 295 -185 290 -187 q 307 -186 300 -182 q 333 -194 319 -192 q 365 -197 347 -197 q 395 -190 385 -197 q 406 -169 406 -182 q 395 -152 406 -158 q 369 -146 385 -146 q 344 -147 354 -146 q 325 -149 333 -149 z "},"Ŝ":{"ha":868,"x_min":33,"x_max":826,"o":"m 468 201 q 519 208 497 201 q 551 227 540 214 q 563 258 563 240 q 547 293 563 279 q 490 322 532 307 q 364 360 447 338 q 184 434 251 392 q 86 533 117 476 q 56 664 56 590 q 96 813 56 746 q 219 919 136 879 q 431 958 303 958 q 628 929 529 958 q 800 858 728 900 q 817 840 815 849 q 814 819 819 831 l 744 668 q 726 645 736 650 q 694 651 715 640 q 614 692 660 671 q 519 728 568 714 q 419 743 469 743 q 360 737 382 743 q 328 718 338 731 q 319 689 319 706 q 338 651 319 667 q 402 621 356 636 q 533 581 449 606 q 687 520 621 556 q 790 429 753 485 q 826 288 826 374 q 779 124 826 192 q 650 22 732 57 q 463 -14 568 -14 q 235 13 331 -14 q 58 83 140 40 q 37 104 40 93 q 42 132 33 115 l 113 282 q 154 296 126 310 q 310 228 240 254 q 468 201 381 201 m 379 1032 q 350 1008 364 1015 q 314 1001 336 1001 l 215 1001 q 186 1015 193 1001 q 194 1049 179 1029 l 285 1176 q 310 1201 297 1194 q 347 1208 322 1208 l 522 1208 q 559 1201 546 1208 q 585 1176 572 1194 l 675 1049 q 682 1015 689 1029 q 654 1001 675 1001 l 556 1001 q 518 1008 532 1001 q 490 1032 504 1015 l 435 1099 l 379 1032 z "},"Ș":{"ha":868,"x_min":33,"x_max":826,"o":"m 468 201 q 519 208 497 201 q 551 227 540 214 q 563 258 563 240 q 547 293 563 279 q 490 322 532 307 q 364 360 447 338 q 184 434 251 392 q 86 533 117 476 q 56 664 56 590 q 96 813 56 746 q 219 919 136 879 q 431 958 303 958 q 628 929 529 958 q 800 858 728 900 q 817 840 815 849 q 814 819 819 831 l 744 668 q 726 645 736 650 q 694 651 715 640 q 614 692 660 671 q 519 728 568 714 q 419 743 469 743 q 360 737 382 743 q 328 718 338 731 q 319 689 319 706 q 338 651 319 667 q 402 621 356 636 q 533 581 449 606 q 687 520 621 556 q 790 429 753 485 q 826 288 826 374 q 779 124 826 192 q 650 22 732 57 q 463 -14 568 -14 q 235 13 331 -14 q 58 83 140 40 q 37 104 40 93 q 42 132 33 115 l 113 282 q 154 296 126 310 q 310 228 240 254 q 468 201 381 201 m 256 -272 l 317 -96 q 374 -57 331 -57 l 519 -57 q 553 -70 544 -57 q 549 -106 563 -83 l 446 -281 q 423 -309 435 -299 q 389 -319 411 -319 l 283 -319 q 256 -272 239 -319 z "},"Ŧ":{"ha":893,"x_min":22,"x_max":871,"o":"m 350 0 q 321 28 321 0 l 321 917 q 350 944 321 944 l 542 944 q 571 917 571 944 l 571 28 q 542 0 571 0 l 350 0 m 199 368 q 169 394 169 368 l 169 499 q 199 528 169 528 l 696 528 q 725 499 725 528 l 725 394 q 696 368 725 368 l 199 368 m 50 736 q 22 765 22 736 l 22 915 q 50 944 22 944 l 843 944 q 871 915 871 944 l 871 765 q 843 736 871 736 l 50 736 z "},"Ť":{"ha":893,"x_min":22,"x_max":871,"o":"m 321 28 l 321 917 q 350 944 321 944 l 542 944 q 571 917 571 944 l 571 28 q 542 0 571 0 l 350 0 q 321 28 321 0 m 50 736 q 22 765 22 736 l 22 915 q 50 944 22 944 l 843 944 q 871 915 871 944 l 871 765 q 843 736 871 736 l 50 736 m 360 1001 q 322 1008 335 1001 q 297 1033 310 1015 l 207 1161 q 199 1194 192 1181 q 228 1208 206 1208 l 326 1208 q 363 1201 349 1208 q 392 1178 376 1194 l 447 1111 l 503 1178 q 531 1201 517 1194 q 568 1208 544 1208 l 667 1208 q 694 1194 688 1208 q 688 1161 701 1181 l 597 1033 q 572 1008 585 1015 q 535 1001 558 1001 l 360 1001 z "},"Ţ":{"ha":893,"x_min":22,"x_max":871,"o":"m 321 28 l 321 917 q 350 944 321 944 l 542 944 q 571 917 571 944 l 571 28 q 542 0 571 0 l 350 0 q 321 28 321 0 m 50 736 q 22 765 22 736 l 22 915 q 50 944 22 944 l 843 944 q 871 915 871 944 l 871 765 q 843 736 871 736 l 50 736 m 260 -272 l 321 -96 q 378 -57 335 -57 l 524 -57 q 558 -70 549 -57 q 553 -106 567 -83 l 450 -281 q 427 -309 439 -299 q 393 -319 415 -319 l 288 -319 q 260 -272 243 -319 z "},"Ț":{"ha":893,"x_min":22,"x_max":871,"o":"m 321 28 l 321 917 q 350 944 321 944 l 542 944 q 571 917 571 944 l 571 28 q 542 0 571 0 l 350 0 q 321 28 321 0 m 50 736 q 22 765 22 736 l 22 915 q 50 944 22 944 l 843 944 q 871 915 871 944 l 871 765 q 843 736 871 736 l 50 736 m 260 -272 l 321 -96 q 378 -57 335 -57 l 524 -57 q 558 -70 549 -57 q 553 -106 567 -83 l 450 -281 q 427 -309 439 -299 q 393 -319 415 -319 l 288 -319 q 260 -272 243 -319 z "},"Ú":{"ha":975,"x_min":71,"x_max":904,"o":"m 71 389 l 71 917 q 100 944 71 944 l 292 944 q 321 917 321 944 l 321 389 q 367 248 321 294 q 488 201 413 201 q 608 248 563 201 q 654 389 654 294 l 654 917 q 683 944 654 944 l 875 944 q 904 917 904 944 l 904 389 q 852 174 904 265 q 706 35 800 83 q 488 -14 613 -14 q 269 35 363 -14 q 123 174 175 83 q 71 389 71 265 m 393 1049 l 483 1176 q 509 1201 496 1194 q 546 1208 522 1208 l 711 1208 q 741 1192 735 1208 q 726 1157 747 1176 l 592 1032 q 563 1010 575 1018 q 526 1001 550 1001 l 414 1001 q 385 1015 392 1001 q 393 1049 379 1029 z "},"Û":{"ha":975,"x_min":71,"x_max":904,"o":"m 71 389 l 71 917 q 100 944 71 944 l 292 944 q 321 917 321 944 l 321 389 q 367 248 321 294 q 488 201 413 201 q 608 248 563 201 q 654 389 654 294 l 654 917 q 683 944 654 944 l 875 944 q 904 917 904 944 l 904 389 q 852 174 904 265 q 706 35 800 83 q 488 -14 613 -14 q 269 35 363 -14 q 123 174 175 83 q 71 389 71 265 m 432 1032 q 404 1008 418 1015 q 367 1001 390 1001 l 268 1001 q 240 1015 246 1001 q 247 1049 233 1029 l 338 1176 q 363 1201 350 1194 q 400 1208 376 1208 l 575 1208 q 612 1201 599 1208 q 638 1176 625 1194 l 728 1049 q 736 1015 743 1029 q 707 1001 729 1001 l 608 1001 q 572 1008 586 1001 q 543 1032 558 1015 l 488 1099 l 432 1032 z "},"Ü":{"ha":975,"x_min":71,"x_max":904,"o":"m 71 389 l 71 917 q 100 944 71 944 l 292 944 q 321 917 321 944 l 321 389 q 367 248 321 294 q 488 201 413 201 q 608 248 563 201 q 654 389 654 294 l 654 917 q 683 944 654 944 l 875 944 q 904 917 904 944 l 904 389 q 852 174 904 265 q 706 35 800 83 q 488 -14 613 -14 q 269 35 363 -14 q 123 174 175 83 q 71 389 71 265 m 349 996 q 267 1031 301 996 q 233 1114 233 1065 q 267 1195 233 1161 q 349 1229 301 1229 q 432 1195 397 1229 q 467 1114 467 1161 q 432 1031 467 1065 q 349 996 397 996 m 624 996 q 542 1031 576 996 q 508 1114 508 1065 q 542 1195 508 1161 q 624 1229 576 1229 q 707 1195 672 1229 q 742 1114 742 1161 q 707 1031 742 1065 q 624 996 672 996 z "},"Ù":{"ha":975,"x_min":71,"x_max":904,"o":"m 71 389 l 71 917 q 100 944 71 944 l 292 944 q 321 917 321 944 l 321 389 q 367 248 321 294 q 488 201 413 201 q 608 248 563 201 q 654 389 654 294 l 654 917 q 683 944 654 944 l 875 944 q 904 917 904 944 l 904 389 q 852 174 904 265 q 706 35 800 83 q 488 -14 613 -14 q 269 35 363 -14 q 123 174 175 83 q 71 389 71 265 m 582 1049 q 590 1015 597 1029 q 561 1001 583 1001 l 449 1001 q 413 1010 426 1001 q 383 1032 400 1018 l 249 1157 q 234 1192 228 1176 q 264 1208 240 1208 l 429 1208 q 466 1201 453 1208 q 492 1176 479 1194 l 582 1049 z "},"Ŭ":{"ha":975,"x_min":71,"x_max":904,"o":"m 71 389 l 71 917 q 100 944 71 944 l 292 944 q 321 917 321 944 l 321 389 q 367 248 321 294 q 488 201 413 201 q 608 248 563 201 q 654 389 654 294 l 654 917 q 683 944 654 944 l 875 944 q 904 917 904 944 l 904 389 q 852 174 904 265 q 706 35 800 83 q 488 -14 613 -14 q 269 35 363 -14 q 123 174 175 83 q 71 389 71 265 m 488 994 q 376 1013 431 994 q 286 1072 322 1031 q 244 1185 250 1114 q 272 1215 243 1215 l 383 1215 q 406 1210 397 1215 q 415 1188 414 1204 q 440 1145 418 1157 q 488 1133 463 1133 q 535 1145 513 1133 q 560 1188 557 1157 q 570 1210 563 1204 q 592 1215 578 1215 l 703 1215 q 731 1185 732 1215 q 690 1072 726 1114 q 599 1013 653 1031 q 488 994 544 994 z "},"Ű":{"ha":975,"x_min":71,"x_max":904,"o":"m 71 389 l 71 917 q 100 944 71 944 l 292 944 q 321 917 321 944 l 321 389 q 367 248 321 294 q 488 201 413 201 q 608 248 563 201 q 654 389 654 294 l 654 917 q 683 944 654 944 l 875 944 q 904 917 904 944 l 904 389 q 852 174 904 265 q 706 35 800 83 q 488 -14 613 -14 q 269 35 363 -14 q 123 174 175 83 q 71 389 71 265 m 275 1049 l 365 1176 q 391 1201 378 1194 q 428 1208 404 1208 l 565 1208 q 595 1192 589 1208 q 581 1157 601 1176 l 446 1032 q 417 1010 429 1018 q 381 1001 404 1001 l 296 1001 q 267 1015 274 1001 q 275 1049 261 1029 m 567 1049 l 657 1176 q 683 1201 669 1194 q 719 1208 696 1208 l 857 1208 q 887 1192 881 1208 q 872 1157 893 1176 l 738 1032 q 708 1010 721 1018 q 672 1001 696 1001 l 588 1001 q 559 1015 565 1001 q 567 1049 553 1029 z "},"Ū":{"ha":975,"x_min":71,"x_max":904,"o":"m 71 389 l 71 917 q 100 944 71 944 l 292 944 q 321 917 321 944 l 321 389 q 367 248 321 294 q 488 201 413 201 q 608 248 563 201 q 654 389 654 294 l 654 917 q 683 944 654 944 l 875 944 q 904 917 904 944 l 904 389 q 852 174 904 265 q 706 35 800 83 q 488 -14 613 -14 q 269 35 363 -14 q 123 174 175 83 q 71 389 71 265 m 288 1026 q 258 1053 258 1026 l 258 1157 q 288 1186 258 1186 l 688 1186 q 717 1157 717 1186 l 717 1053 q 688 1026 717 1026 l 288 1026 z "},"Ų":{"ha":975,"x_min":71,"x_max":904,"o":"m 508 -278 q 378 -247 429 -278 q 326 -144 326 -217 q 353 -64 326 -96 q 425 -11 381 -32 q 238 53 318 1 q 115 190 158 104 q 71 389 71 275 l 71 917 q 100 944 71 944 l 292 944 q 321 917 321 944 l 321 389 q 367 248 321 294 q 488 201 413 201 q 608 248 563 201 q 654 389 654 294 l 654 917 q 683 944 654 944 l 875 944 q 904 917 904 944 l 904 389 q 817 126 904 228 q 583 -6 729 24 q 522 -32 540 -14 q 503 -76 503 -50 q 517 -113 503 -103 q 554 -124 532 -124 q 575 -122 567 -124 q 593 -117 583 -119 q 616 -115 608 -111 q 629 -133 624 -118 l 654 -207 q 658 -236 661 -226 q 638 -253 656 -246 q 583 -270 617 -262 q 508 -278 549 -278 z "},"Ů":{"ha":975,"x_min":71,"x_max":904,"o":"m 71 389 l 71 917 q 100 944 71 944 l 292 944 q 321 917 321 944 l 321 389 q 367 248 321 294 q 488 201 413 201 q 608 248 563 201 q 654 389 654 294 l 654 917 q 683 944 654 944 l 875 944 q 904 917 904 944 l 904 389 q 852 174 904 265 q 706 35 800 83 q 488 -14 613 -14 q 269 35 363 -14 q 123 174 175 83 q 71 389 71 265 m 488 1111 q 536 1132 517 1111 q 556 1183 556 1153 q 536 1233 556 1213 q 488 1253 517 1253 q 441 1233 460 1253 q 422 1183 422 1213 q 441 1132 422 1153 q 488 1111 460 1111 m 486 988 q 386 1013 431 988 q 316 1083 342 1039 q 290 1183 290 1128 q 316 1281 290 1236 q 386 1351 342 1325 q 486 1376 431 1376 q 588 1351 543 1376 q 660 1281 633 1325 q 686 1183 686 1238 q 660 1085 686 1129 q 588 1014 633 1040 q 486 988 543 988 z "},"Ũ":{"ha":975,"x_min":71,"x_max":904,"o":"m 71 389 l 71 917 q 100 944 71 944 l 292 944 q 321 917 321 944 l 321 389 q 367 248 321 294 q 488 201 413 201 q 608 248 563 201 q 654 389 654 294 l 654 917 q 683 944 654 944 l 875 944 q 904 917 904 944 l 904 389 q 852 174 904 265 q 706 35 800 83 q 488 -14 613 -14 q 269 35 363 -14 q 123 174 175 83 q 71 389 71 265 m 424 1049 q 381 1041 396 1049 q 346 1017 365 1033 q 318 1002 332 1006 q 293 1011 304 999 l 232 1081 q 228 1100 226 1088 q 236 1121 229 1113 q 325 1197 282 1174 q 407 1219 368 1219 q 465 1208 438 1219 q 518 1185 492 1197 q 571 1174 544 1174 q 611 1181 596 1174 q 644 1206 626 1189 q 672 1223 660 1218 q 697 1213 683 1228 l 761 1139 q 756 1100 775 1121 q 667 1026 708 1049 q 585 1003 625 1003 q 528 1015 557 1003 q 474 1038 500 1026 q 424 1049 447 1049 z "},"Ẃ":{"ha":1501,"x_min":15,"x_max":1485,"o":"m 608 28 q 568 0 601 0 l 322 0 q 297 7 308 0 q 281 28 285 14 l 22 897 q 24 934 15 924 q 57 944 32 944 l 240 944 q 278 937 264 944 q 299 907 293 929 l 474 214 l 454 214 l 617 907 q 633 936 622 928 q 675 944 644 944 l 843 944 q 880 937 865 944 q 900 907 894 929 l 1061 214 l 1042 214 l 1217 906 q 1274 944 1228 944 l 1443 944 q 1476 934 1468 944 q 1478 897 1485 924 l 1219 28 q 1179 0 1210 0 l 914 0 q 888 7 900 0 q 872 28 875 14 l 731 622 l 750 622 l 608 28 m 657 1049 l 747 1176 q 772 1201 760 1194 q 810 1208 785 1208 l 975 1208 q 1005 1192 999 1208 q 990 1157 1011 1176 l 856 1032 q 826 1010 839 1018 q 790 1001 813 1001 l 678 1001 q 649 1015 656 1001 q 657 1049 642 1029 z "},"Ŵ":{"ha":1501,"x_min":15,"x_max":1485,"o":"m 608 28 q 568 0 601 0 l 322 0 q 297 7 308 0 q 281 28 285 14 l 22 897 q 24 934 15 924 q 57 944 32 944 l 240 944 q 278 937 264 944 q 299 907 293 929 l 474 214 l 454 214 l 617 907 q 633 936 622 928 q 675 944 644 944 l 843 944 q 880 937 865 944 q 900 907 894 929 l 1061 214 l 1042 214 l 1217 906 q 1274 944 1228 944 l 1443 944 q 1476 934 1468 944 q 1478 897 1485 924 l 1219 28 q 1179 0 1210 0 l 914 0 q 888 7 900 0 q 872 28 875 14 l 731 622 l 750 622 l 608 28 m 696 1032 q 667 1008 681 1015 q 631 1001 653 1001 l 532 1001 q 503 1015 510 1001 q 511 1049 496 1029 l 601 1176 q 626 1201 614 1194 q 664 1208 639 1208 l 839 1208 q 876 1201 863 1208 q 901 1176 889 1194 l 992 1049 q 999 1015 1006 1029 q 971 1001 992 1001 l 872 1001 q 835 1008 849 1001 q 807 1032 821 1015 l 751 1099 l 696 1032 z "},"Ẅ":{"ha":1501,"x_min":15,"x_max":1485,"o":"m 608 28 q 568 0 601 0 l 322 0 q 297 7 308 0 q 281 28 285 14 l 22 897 q 24 934 15 924 q 57 944 32 944 l 240 944 q 278 937 264 944 q 299 907 293 929 l 474 214 l 454 214 l 617 907 q 633 936 622 928 q 675 944 644 944 l 843 944 q 880 937 865 944 q 900 907 894 929 l 1061 214 l 1042 214 l 1217 906 q 1274 944 1228 944 l 1443 944 q 1476 934 1468 944 q 1478 897 1485 924 l 1219 28 q 1179 0 1210 0 l 914 0 q 888 7 900 0 q 872 28 875 14 l 731 622 l 750 622 l 608 28 m 613 996 q 531 1031 564 996 q 497 1114 497 1065 q 531 1195 497 1161 q 613 1229 564 1229 q 696 1195 661 1229 q 731 1114 731 1161 q 696 1031 731 1065 q 613 996 661 996 m 888 996 q 806 1031 839 996 q 772 1114 772 1065 q 806 1195 772 1161 q 888 1229 839 1229 q 971 1195 936 1229 q 1006 1114 1006 1161 q 971 1031 1006 1065 q 888 996 936 996 z "},"Ẁ":{"ha":1501,"x_min":15,"x_max":1485,"o":"m 608 28 q 568 0 601 0 l 322 0 q 297 7 308 0 q 281 28 285 14 l 22 897 q 24 934 15 924 q 57 944 32 944 l 240 944 q 278 937 264 944 q 299 907 293 929 l 474 214 l 454 214 l 617 907 q 633 936 622 928 q 675 944 644 944 l 843 944 q 880 937 865 944 q 900 907 894 929 l 1061 214 l 1042 214 l 1217 906 q 1274 944 1228 944 l 1443 944 q 1476 934 1468 944 q 1478 897 1485 924 l 1219 28 q 1179 0 1210 0 l 914 0 q 888 7 900 0 q 872 28 875 14 l 731 622 l 750 622 l 608 28 m 846 1049 q 853 1015 860 1029 q 825 1001 846 1001 l 713 1001 q 676 1010 689 1001 q 647 1032 664 1018 l 513 1157 q 497 1192 492 1176 q 528 1208 503 1208 l 693 1208 q 730 1201 717 1208 q 756 1176 743 1194 l 846 1049 z "},"Ý":{"ha":906,"x_min":6,"x_max":899,"o":"m 449 513 l 625 892 q 651 932 638 919 q 686 944 664 944 l 851 944 q 888 932 876 944 q 885 893 899 919 l 572 306 l 332 306 l 19 893 q 17 932 6 919 q 53 944 28 944 l 233 944 q 269 935 257 944 q 294 897 282 925 l 472 513 l 449 513 m 326 28 l 326 403 q 356 431 326 431 l 547 431 q 576 403 576 431 l 576 28 q 547 0 576 0 l 356 0 q 326 28 326 0 m 358 1049 l 449 1176 q 474 1201 461 1194 q 511 1208 488 1208 l 676 1208 q 706 1192 700 1208 q 692 1157 713 1176 l 557 1032 q 528 1010 540 1018 q 492 1001 515 1001 l 379 1001 q 351 1015 357 1001 q 358 1049 344 1029 z "},"Ÿ":{"ha":906,"x_min":6,"x_max":899,"o":"m 449 513 l 625 892 q 651 932 638 919 q 686 944 664 944 l 851 944 q 888 932 876 944 q 885 893 899 919 l 572 306 l 332 306 l 19 893 q 17 932 6 919 q 53 944 28 944 l 233 944 q 269 935 257 944 q 294 897 282 925 l 472 513 l 449 513 m 326 28 l 326 403 q 356 431 326 431 l 547 431 q 576 403 576 431 l 576 28 q 547 0 576 0 l 356 0 q 326 28 326 0 m 314 996 q 233 1031 267 996 q 199 1114 199 1065 q 233 1195 199 1161 q 314 1229 267 1229 q 397 1195 363 1229 q 432 1114 432 1161 q 397 1031 432 1065 q 314 996 363 996 m 589 996 q 508 1031 542 996 q 474 1114 474 1065 q 508 1195 474 1161 q 589 1229 542 1229 q 672 1195 638 1229 q 707 1114 707 1161 q 672 1031 707 1065 q 589 996 638 996 z "},"Ŷ":{"ha":906,"x_min":6,"x_max":899,"o":"m 449 513 l 625 892 q 651 932 638 919 q 686 944 664 944 l 851 944 q 888 932 876 944 q 885 893 899 919 l 572 306 l 332 306 l 19 893 q 17 932 6 919 q 53 944 28 944 l 233 944 q 269 935 257 944 q 294 897 282 925 l 472 513 l 449 513 m 326 28 l 326 403 q 356 431 326 431 l 547 431 q 576 403 576 431 l 576 28 q 547 0 576 0 l 356 0 q 326 28 326 0 m 397 1032 q 369 1008 383 1015 q 332 1001 356 1001 l 233 1001 q 205 1015 211 1001 q 213 1049 199 1029 l 303 1176 q 328 1201 315 1194 q 365 1208 342 1208 l 540 1208 q 577 1201 564 1208 q 603 1176 590 1194 l 693 1049 q 701 1015 708 1029 q 672 1001 694 1001 l 574 1001 q 538 1008 551 1001 q 508 1032 524 1015 l 453 1099 l 397 1032 z "},"Ỳ":{"ha":906,"x_min":6,"x_max":899,"o":"m 449 513 l 625 892 q 651 932 638 919 q 686 944 664 944 l 851 944 q 888 932 876 944 q 885 893 899 919 l 572 306 l 332 306 l 19 893 q 17 932 6 919 q 53 944 28 944 l 233 944 q 269 935 257 944 q 294 897 282 925 l 472 513 l 449 513 m 326 28 l 326 403 q 356 431 326 431 l 547 431 q 576 403 576 431 l 576 28 q 547 0 576 0 l 356 0 q 326 28 326 0 m 547 1049 q 556 1015 563 1029 q 526 1001 549 1001 l 414 1001 q 378 1010 392 1001 q 349 1032 365 1018 l 214 1157 q 199 1192 193 1176 q 229 1208 206 1208 l 394 1208 q 431 1201 418 1208 q 457 1176 444 1194 l 547 1049 z "},"Ž":{"ha":872,"x_min":43,"x_max":832,"o":"m 832 26 q 803 0 832 0 l 72 0 q 43 26 43 0 l 43 156 q 50 194 43 179 q 72 226 57 208 l 503 736 l 86 736 q 57 763 57 736 l 57 915 q 86 944 57 944 l 782 944 q 811 915 811 944 l 811 775 q 806 743 811 754 q 781 710 800 732 l 351 208 l 803 208 q 832 179 832 208 l 832 26 m 349 1001 q 312 1008 325 1001 q 286 1033 299 1015 l 196 1161 q 188 1194 182 1181 q 217 1208 194 1208 l 315 1208 q 353 1201 339 1208 q 381 1178 367 1194 l 436 1111 l 492 1178 q 521 1201 507 1194 q 557 1208 535 1208 l 656 1208 q 685 1194 678 1208 q 676 1161 692 1181 l 586 1033 q 560 1008 574 1015 q 524 1001 547 1001 l 349 1001 z "},"Ź":{"ha":872,"x_min":43,"x_max":832,"o":"m 832 26 q 803 0 832 0 l 72 0 q 43 26 43 0 l 43 156 q 50 194 43 179 q 72 226 57 208 l 503 736 l 86 736 q 57 763 57 736 l 57 915 q 86 944 57 944 l 782 944 q 811 915 811 944 l 811 775 q 806 743 811 754 q 781 710 800 732 l 351 208 l 803 208 q 832 179 832 208 l 832 26 m 342 1049 l 432 1176 q 458 1201 444 1194 q 494 1208 471 1208 l 660 1208 q 690 1192 683 1208 q 675 1157 696 1176 l 540 1032 q 511 1010 524 1018 q 475 1001 499 1001 l 363 1001 q 334 1015 340 1001 q 342 1049 328 1029 z "},"Ż":{"ha":872,"x_min":43,"x_max":832,"o":"m 832 26 q 803 0 832 0 l 72 0 q 43 26 43 0 l 43 156 q 50 194 43 179 q 72 226 57 208 l 503 736 l 86 736 q 57 763 57 736 l 57 915 q 86 944 57 944 l 782 944 q 811 915 811 944 l 811 775 q 806 743 811 754 q 781 710 800 732 l 351 208 l 803 208 q 832 179 832 208 l 832 26 m 435 993 q 342 1032 379 993 q 304 1126 304 1071 q 342 1219 304 1181 q 435 1257 379 1257 q 530 1219 492 1257 q 568 1126 568 1181 q 530 1032 568 1071 q 435 993 492 993 z "},"á":{"ha":692,"x_min":25,"x_max":682,"o":"m 672 94 l 583 8 q 542 -10 568 -7 q 486 7 515 -12 l 388 75 l 371 96 l 371 344 q 353 384 371 371 q 304 397 336 397 q 215 384 263 397 q 119 353 168 371 q 95 351 103 347 q 81 372 88 356 l 36 486 q 60 532 25 515 q 185 577 114 557 q 346 597 257 597 q 481 576 422 597 q 574 501 540 554 q 607 349 607 447 l 607 200 q 610 177 607 183 q 624 164 614 171 l 668 138 q 682 117 682 129 q 672 94 682 104 m 403 340 l 403 231 l 321 231 q 276 219 290 231 q 263 185 263 207 q 277 153 263 165 q 321 142 292 142 q 371 155 349 142 q 431 194 393 168 l 454 51 q 346 3 392 17 q 251 -11 300 -11 q 94 37 151 -11 q 36 174 36 85 q 62 254 36 217 q 140 316 88 292 q 269 340 192 340 l 403 340 m 261 688 l 343 864 q 365 893 353 883 q 400 903 378 903 l 546 903 q 581 889 571 903 q 575 854 590 875 l 451 679 q 428 651 439 661 q 394 640 417 640 l 289 640 q 259 653 267 640 q 261 688 251 665 z "},"â":{"ha":692,"x_min":25,"x_max":682,"o":"m 672 94 l 583 8 q 542 -10 568 -7 q 486 7 515 -12 l 388 75 l 371 96 l 371 344 q 353 384 371 371 q 304 397 336 397 q 215 384 263 397 q 119 353 168 371 q 95 351 103 347 q 81 372 88 356 l 36 486 q 60 532 25 515 q 185 577 114 557 q 346 597 257 597 q 481 576 422 597 q 574 501 540 554 q 607 349 607 447 l 607 200 q 610 177 607 183 q 624 164 614 171 l 668 138 q 682 117 682 129 q 672 94 682 104 m 403 340 l 403 231 l 321 231 q 276 219 290 231 q 263 185 263 207 q 277 153 263 165 q 321 142 292 142 q 371 155 349 142 q 431 194 393 168 l 454 51 q 346 3 392 17 q 251 -11 300 -11 q 94 37 151 -11 q 36 174 36 85 q 62 254 36 217 q 140 316 88 292 q 269 340 192 340 l 403 340 m 282 679 q 259 651 271 661 q 225 640 247 640 l 147 640 q 117 653 125 640 q 119 688 110 665 l 201 864 q 224 893 211 883 q 258 903 236 903 l 425 903 q 460 893 447 903 q 482 864 472 883 l 564 688 q 567 653 575 665 q 536 640 558 640 l 458 640 q 424 651 436 640 q 401 679 413 661 l 342 775 l 282 679 z "},"ä":{"ha":692,"x_min":25,"x_max":682,"o":"m 672 94 l 583 8 q 542 -10 568 -7 q 486 7 515 -12 l 388 75 l 371 96 l 371 344 q 353 384 371 371 q 304 397 336 397 q 215 384 263 397 q 119 353 168 371 q 95 351 103 347 q 81 372 88 356 l 36 486 q 60 532 25 515 q 185 577 114 557 q 346 597 257 597 q 481 576 422 597 q 574 501 540 554 q 607 349 607 447 l 607 200 q 610 177 607 183 q 624 164 614 171 l 668 138 q 682 117 682 129 q 672 94 682 104 m 403 340 l 403 231 l 321 231 q 276 219 290 231 q 263 185 263 207 q 277 153 263 165 q 321 142 292 142 q 371 155 349 142 q 431 194 393 168 l 454 51 q 346 3 392 17 q 251 -11 300 -11 q 94 37 151 -11 q 36 174 36 85 q 62 254 36 217 q 140 316 88 292 q 269 340 192 340 l 403 340 m 203 665 q 122 700 156 665 q 88 783 88 735 q 122 865 88 831 q 203 899 156 899 q 286 865 251 899 q 321 783 321 831 q 286 700 321 735 q 203 665 251 665 m 478 665 q 397 700 431 665 q 363 783 363 735 q 397 865 363 831 q 478 899 431 899 q 561 865 526 899 q 596 783 596 831 q 561 700 596 735 q 478 665 526 665 z "},"à":{"ha":692,"x_min":25,"x_max":682,"o":"m 672 94 l 583 8 q 542 -10 568 -7 q 486 7 515 -12 l 388 75 l 371 96 l 371 344 q 353 384 371 371 q 304 397 336 397 q 215 384 263 397 q 119 353 168 371 q 95 351 103 347 q 81 372 88 356 l 36 486 q 60 532 25 515 q 185 577 114 557 q 346 597 257 597 q 481 576 422 597 q 574 501 540 554 q 607 349 607 447 l 607 200 q 610 177 607 183 q 624 164 614 171 l 668 138 q 682 117 682 129 q 672 94 682 104 m 403 340 l 403 231 l 321 231 q 276 219 290 231 q 263 185 263 207 q 277 153 263 165 q 321 142 292 142 q 371 155 349 142 q 431 194 393 168 l 454 51 q 346 3 392 17 q 251 -11 300 -11 q 94 37 151 -11 q 36 174 36 85 q 62 254 36 217 q 140 316 88 292 q 269 340 192 340 l 403 340 m 429 688 q 432 653 440 665 q 401 640 424 640 l 296 640 q 263 651 274 640 q 239 679 251 661 l 115 854 q 110 889 101 875 q 144 903 119 903 l 290 903 q 325 893 313 903 q 347 864 338 883 l 429 688 z "},"å":{"ha":692,"x_min":25,"x_max":682,"o":"m 672 94 l 583 8 q 542 -10 568 -7 q 486 7 515 -12 l 388 75 l 371 96 l 371 344 q 353 384 371 371 q 304 397 336 397 q 215 384 263 397 q 119 353 168 371 q 95 351 103 347 q 81 372 88 356 l 36 486 q 60 532 25 515 q 185 577 114 557 q 346 597 257 597 q 481 576 422 597 q 574 501 540 554 q 607 349 607 447 l 607 200 q 610 177 607 183 q 624 164 614 171 l 668 138 q 682 117 682 129 q 672 94 682 104 m 403 340 l 403 231 l 321 231 q 276 219 290 231 q 263 185 263 207 q 277 153 263 165 q 321 142 292 142 q 371 155 349 142 q 431 194 393 168 l 454 51 q 346 3 392 17 q 251 -11 300 -11 q 94 37 151 -11 q 36 174 36 85 q 62 254 36 217 q 140 316 88 292 q 269 340 192 340 l 403 340 m 332 760 q 372 776 356 760 q 388 817 388 792 q 372 855 388 840 q 332 869 356 869 q 294 855 310 869 q 279 817 279 840 q 294 776 279 792 q 332 760 310 760 m 331 632 q 196 685 250 632 q 142 817 142 738 q 167 908 142 868 q 234 973 192 949 q 331 997 276 997 q 430 973 386 997 q 499 908 474 949 q 525 817 525 868 q 499 722 525 764 q 430 656 474 681 q 331 632 386 632 z "},"ã":{"ha":692,"x_min":25,"x_max":682,"o":"m 672 94 l 583 8 q 542 -10 568 -7 q 486 7 515 -12 l 388 75 l 371 96 l 371 344 q 353 384 371 371 q 304 397 336 397 q 215 384 263 397 q 119 353 168 371 q 95 351 103 347 q 81 372 88 356 l 36 486 q 60 532 25 515 q 185 577 114 557 q 346 597 257 597 q 481 576 422 597 q 574 501 540 554 q 607 349 607 447 l 607 200 q 610 177 607 183 q 624 164 614 171 l 668 138 q 682 117 682 129 q 672 94 682 104 m 403 340 l 403 231 l 321 231 q 276 219 290 231 q 263 185 263 207 q 277 153 263 165 q 321 142 292 142 q 371 155 349 142 q 431 194 393 168 l 454 51 q 346 3 392 17 q 251 -11 300 -11 q 94 37 151 -11 q 36 174 36 85 q 62 254 36 217 q 140 316 88 292 q 269 340 192 340 l 403 340 m 256 721 q 216 713 232 721 q 182 690 200 706 q 156 674 168 678 q 131 683 143 669 l 68 756 q 64 774 63 763 q 74 796 65 786 q 162 870 122 849 q 240 892 201 892 q 294 882 268 892 q 344 862 319 872 q 389 851 368 851 q 427 858 414 851 q 458 882 440 865 q 486 900 474 896 q 511 889 499 904 l 569 821 q 575 801 576 813 q 567 779 574 789 q 488 703 524 728 q 410 679 453 679 q 355 690 382 679 q 303 710 328 700 q 256 721 278 721 z "},"ă":{"ha":692,"x_min":25,"x_max":682,"o":"m 672 94 l 583 8 q 542 -10 568 -7 q 486 7 515 -12 l 388 75 l 371 96 l 371 344 q 353 384 371 371 q 304 397 336 397 q 215 384 263 397 q 119 353 168 371 q 95 351 103 347 q 81 372 88 356 l 36 486 q 60 532 25 515 q 185 577 114 557 q 346 597 257 597 q 481 576 422 597 q 574 501 540 554 q 607 349 607 447 l 607 200 q 610 177 607 183 q 624 164 614 171 l 668 138 q 682 117 682 129 q 672 94 682 104 m 403 340 l 403 231 l 321 231 q 276 219 290 231 q 263 185 263 207 q 277 153 263 165 q 321 142 292 142 q 371 155 349 142 q 431 194 393 168 l 454 51 q 346 3 392 17 q 251 -11 300 -11 q 94 37 151 -11 q 36 174 36 85 q 62 254 36 217 q 140 316 88 292 q 269 340 192 340 l 403 340 m 333 640 q 222 661 274 640 q 135 730 169 682 q 94 858 100 778 q 122 889 93 889 l 219 889 q 242 883 233 889 q 251 861 250 878 q 281 799 257 817 q 333 782 304 782 q 386 799 363 782 q 415 861 410 817 q 426 883 418 878 q 447 889 433 889 l 544 889 q 572 858 574 889 q 533 730 567 778 q 446 661 499 682 q 333 640 393 640 z "},"ā":{"ha":692,"x_min":25,"x_max":682,"o":"m 672 94 l 583 8 q 542 -10 568 -7 q 486 7 515 -12 l 388 75 l 371 96 l 371 344 q 353 384 371 371 q 304 397 336 397 q 215 384 263 397 q 119 353 168 371 q 95 351 103 347 q 81 372 88 356 l 36 486 q 60 532 25 515 q 185 577 114 557 q 346 597 257 597 q 481 576 422 597 q 574 501 540 554 q 607 349 607 447 l 607 200 q 610 177 607 183 q 624 164 614 171 l 668 138 q 682 117 682 129 q 672 94 682 104 m 403 340 l 403 231 l 321 231 q 276 219 290 231 q 263 185 263 207 q 277 153 263 165 q 321 142 292 142 q 371 155 349 142 q 431 194 393 168 l 454 51 q 346 3 392 17 q 251 -11 300 -11 q 94 37 151 -11 q 36 174 36 85 q 62 254 36 217 q 140 316 88 292 q 269 340 192 340 l 403 340 m 136 694 q 107 721 107 694 l 107 825 q 136 854 107 854 l 517 854 q 546 825 546 854 l 546 721 q 517 694 546 694 l 136 694 z "},"ą":{"ha":692,"x_min":25,"x_max":682,"o":"m 529 -275 q 399 -244 450 -275 q 347 -142 347 -214 q 386 -44 347 -81 q 471 18 425 -8 l 436 42 q 338 1 381 13 q 251 -11 296 -11 q 94 37 151 -11 q 36 174 36 85 q 62 254 36 217 q 140 316 88 292 q 269 340 192 340 l 371 340 l 371 344 q 353 384 371 371 q 304 397 336 397 q 215 384 263 397 q 119 353 168 371 q 95 351 103 347 q 81 372 88 356 l 36 486 q 60 532 25 515 q 185 577 114 557 q 346 597 257 597 q 481 576 422 597 q 574 501 540 554 q 607 349 607 447 l 607 200 q 610 177 607 183 q 624 164 614 171 l 668 138 q 682 117 682 129 q 672 94 682 104 l 579 10 q 540 -32 556 -12 q 524 -79 524 -51 q 538 -112 524 -103 q 575 -121 553 -121 q 596 -119 588 -121 q 614 -114 604 -117 q 637 -112 629 -108 q 650 -131 644 -115 l 675 -204 q 679 -233 682 -224 q 658 -250 676 -243 q 603 -267 638 -260 q 529 -275 569 -275 m 321 142 q 347 145 335 142 q 371 156 358 149 l 371 231 l 321 231 q 276 219 290 231 q 263 185 263 207 q 277 153 263 165 q 321 142 292 142 z "},"ç":{"ha":614,"x_min":32,"x_max":594,"o":"m 372 403 q 302 374 329 403 q 275 297 275 346 q 306 213 275 244 q 386 181 336 181 q 444 190 418 181 q 493 213 469 199 q 521 219 511 224 q 536 199 531 214 l 590 75 q 592 58 594 65 q 572 39 589 50 q 481 0 533 14 q 364 -14 429 -14 q 119 65 207 -14 q 32 292 32 144 q 117 519 32 440 q 344 597 201 597 q 467 582 411 597 q 556 550 524 567 q 572 533 571 543 q 569 511 574 522 l 524 385 q 485 368 513 353 q 430 393 458 383 q 372 403 401 403 m 231 -149 q 213 -128 208 -149 l 229 -65 q 244 -51 232 -54 q 272 -48 256 -50 q 310 -46 289 -46 q 436 -81 399 -46 q 474 -172 474 -117 q 425 -283 474 -246 q 299 -319 376 -319 q 226 -312 257 -319 q 176 -296 194 -306 q 168 -285 168 -292 q 169 -272 168 -278 l 193 -194 q 201 -185 196 -187 q 213 -186 206 -182 q 239 -194 225 -192 q 271 -197 253 -197 q 301 -190 290 -197 q 311 -169 311 -182 q 301 -152 311 -158 q 275 -146 290 -146 q 249 -147 260 -146 q 231 -149 239 -149 z "},"ć":{"ha":614,"x_min":32,"x_max":594,"o":"m 372 403 q 302 374 329 403 q 275 297 275 346 q 306 213 275 244 q 386 181 336 181 q 444 190 418 181 q 493 213 469 199 q 521 219 511 224 q 536 199 531 214 l 590 75 q 592 58 594 65 q 572 39 589 50 q 481 0 533 14 q 364 -14 429 -14 q 119 65 207 -14 q 32 292 32 144 q 117 519 32 440 q 344 597 201 597 q 467 582 411 597 q 556 550 524 567 q 572 533 571 543 q 569 511 574 522 l 524 385 q 485 368 513 353 q 430 393 458 383 q 372 403 401 403 m 238 688 l 319 864 q 342 893 329 883 q 376 903 354 903 l 522 903 q 557 889 547 903 q 551 854 567 875 l 428 679 q 404 651 415 661 q 371 640 393 640 l 265 640 q 235 653 243 640 q 238 688 228 665 z "},"č":{"ha":614,"x_min":32,"x_max":594,"o":"m 372 403 q 302 374 329 403 q 275 297 275 346 q 306 213 275 244 q 386 181 336 181 q 444 190 418 181 q 493 213 469 199 q 521 219 511 224 q 536 199 531 214 l 590 75 q 592 58 594 65 q 572 39 589 50 q 481 0 533 14 q 364 -14 429 -14 q 119 65 207 -14 q 32 292 32 144 q 117 519 32 440 q 344 597 201 597 q 467 582 411 597 q 556 550 524 567 q 572 533 571 543 q 569 511 574 522 l 524 385 q 485 368 513 353 q 430 393 458 383 q 372 403 401 403 m 238 640 q 203 650 215 640 q 181 679 190 660 l 99 856 q 97 890 89 878 q 126 903 104 903 l 204 903 q 238 892 226 903 q 261 864 250 882 l 321 768 l 381 864 q 403 892 392 882 q 438 903 415 903 l 515 903 q 546 890 538 903 q 543 856 554 878 l 461 679 q 439 650 451 660 q 404 640 426 640 l 238 640 z "},"ĉ":{"ha":614,"x_min":32,"x_max":594,"o":"m 372 403 q 302 374 329 403 q 275 297 275 346 q 306 213 275 244 q 386 181 336 181 q 444 190 418 181 q 493 213 469 199 q 521 219 511 224 q 536 199 531 214 l 590 75 q 592 58 594 65 q 572 39 589 50 q 481 0 533 14 q 364 -14 429 -14 q 119 65 207 -14 q 32 292 32 144 q 117 519 32 440 q 344 597 201 597 q 467 582 411 597 q 556 550 524 567 q 572 533 571 543 q 569 511 574 522 l 524 385 q 485 368 513 353 q 430 393 458 383 q 372 403 401 403 m 254 679 q 231 651 243 661 q 197 640 219 640 l 119 640 q 90 653 97 640 q 92 688 82 665 l 174 864 q 196 893 183 883 q 231 903 208 903 l 397 903 q 432 893 419 903 q 454 864 444 883 l 536 688 q 539 653 547 665 q 508 640 531 640 l 431 640 q 397 651 408 640 q 374 679 385 661 l 314 775 l 254 679 z "},"ċ":{"ha":614,"x_min":32,"x_max":594,"o":"m 372 403 q 302 374 329 403 q 275 297 275 346 q 306 213 275 244 q 386 181 336 181 q 444 190 418 181 q 493 213 469 199 q 521 219 511 224 q 536 199 531 214 l 590 75 q 592 58 594 65 q 572 39 589 50 q 481 0 533 14 q 364 -14 429 -14 q 119 65 207 -14 q 32 292 32 144 q 117 519 32 440 q 344 597 201 597 q 467 582 411 597 q 556 550 524 567 q 572 533 571 543 q 569 511 574 522 l 524 385 q 485 368 513 353 q 430 393 458 383 q 372 403 401 403 m 319 650 q 226 689 264 650 q 189 783 189 728 q 226 876 189 838 q 319 914 264 914 q 415 876 376 914 q 453 783 453 838 q 415 689 453 728 q 319 650 376 650 z "},"ď":{"ha":896,"x_min":33,"x_max":926,"o":"m 743 722 l 743 906 q 753 936 743 928 q 785 944 763 944 l 890 944 q 921 933 915 944 q 919 896 926 922 l 878 721 q 862 690 872 699 q 832 682 851 682 l 781 682 q 751 691 760 682 q 743 722 743 700 m 703 28 q 674 0 703 0 l 496 0 q 467 28 467 0 l 467 917 q 496 944 467 944 l 674 944 q 703 917 703 944 l 703 28 m 371 403 q 308 372 332 403 q 283 292 283 342 q 308 211 283 242 q 374 181 333 181 q 441 205 411 181 q 501 275 471 229 l 506 99 q 427 18 475 50 q 299 -14 379 -14 q 168 17 229 -14 q 70 116 107 49 q 33 292 33 183 q 108 519 33 440 q 300 597 183 597 q 407 576 354 597 q 499 510 460 554 l 493 322 q 436 383 465 363 q 371 403 407 403 z "},"đ":{"ha":765,"x_min":33,"x_max":772,"o":"m 288 674 q 258 700 258 674 l 258 804 q 288 833 258 833 l 743 833 q 772 804 772 833 l 772 700 q 743 674 772 674 l 288 674 m 703 28 q 674 0 703 0 l 496 0 q 467 28 467 0 l 467 917 q 496 944 467 944 l 674 944 q 703 917 703 944 l 703 28 m 371 403 q 308 372 332 403 q 283 292 283 342 q 308 211 283 242 q 374 181 333 181 q 441 205 411 181 q 501 275 471 229 l 506 99 q 427 18 475 50 q 299 -14 379 -14 q 168 17 229 -14 q 70 116 107 49 q 33 292 33 183 q 108 519 33 440 q 300 597 183 597 q 407 576 354 597 q 499 510 460 554 l 493 322 q 436 383 465 363 q 371 403 407 403 z "},"é":{"ha":708,"x_min":31,"x_max":679,"o":"m 481 353 l 439 303 q 416 396 439 369 q 356 422 393 422 q 296 390 318 422 q 274 306 274 358 q 312 201 274 236 q 414 167 350 167 q 526 181 479 167 q 600 203 572 196 q 624 204 615 207 q 639 186 633 201 l 676 69 q 678 51 679 60 q 663 35 678 42 q 546 -1 615 13 q 392 -14 476 -14 q 125 65 219 -14 q 31 292 31 144 q 122 519 31 440 q 360 597 213 597 q 517 563 450 597 q 621 465 583 528 q 658 318 658 403 q 658 290 658 307 q 654 260 657 272 q 624 243 650 243 l 249 243 l 249 353 l 481 353 m 271 688 l 353 864 q 375 893 363 883 q 410 903 388 903 l 556 903 q 590 889 581 903 q 585 854 600 875 l 461 679 q 438 651 449 661 q 404 640 426 640 l 299 640 q 269 653 276 640 q 271 688 261 665 z "},"ê":{"ha":708,"x_min":31,"x_max":679,"o":"m 481 353 l 439 303 q 416 396 439 369 q 356 422 393 422 q 296 390 318 422 q 274 306 274 358 q 312 201 274 236 q 414 167 350 167 q 526 181 479 167 q 600 203 572 196 q 624 204 615 207 q 639 186 633 201 l 676 69 q 678 51 679 60 q 663 35 678 42 q 546 -1 615 13 q 392 -14 476 -14 q 125 65 219 -14 q 31 292 31 144 q 122 519 31 440 q 360 597 213 597 q 517 563 450 597 q 621 465 583 528 q 658 318 658 403 q 658 290 658 307 q 654 260 657 272 q 624 243 650 243 l 249 243 l 249 353 l 481 353 m 294 679 q 272 651 283 661 q 238 640 260 640 l 160 640 q 130 653 138 640 q 132 688 122 665 l 214 864 q 236 893 224 883 q 271 903 249 903 l 438 903 q 472 893 460 903 q 494 864 485 883 l 576 688 q 579 653 588 665 q 549 640 571 640 l 471 640 q 437 651 449 640 q 414 679 425 661 l 354 775 l 294 679 z "},"ë":{"ha":708,"x_min":31,"x_max":679,"o":"m 481 353 l 439 303 q 416 396 439 369 q 356 422 393 422 q 296 390 318 422 q 274 306 274 358 q 312 201 274 236 q 414 167 350 167 q 526 181 479 167 q 600 203 572 196 q 624 204 615 207 q 639 186 633 201 l 676 69 q 678 51 679 60 q 663 35 678 42 q 546 -1 615 13 q 392 -14 476 -14 q 125 65 219 -14 q 31 292 31 144 q 122 519 31 440 q 360 597 213 597 q 517 563 450 597 q 621 465 583 528 q 658 318 658 403 q 658 290 658 307 q 654 260 657 272 q 624 243 650 243 l 249 243 l 249 353 l 481 353 m 215 665 q 134 700 168 665 q 100 783 100 735 q 134 865 100 831 q 215 899 168 899 q 299 865 264 899 q 333 783 333 831 q 299 700 333 735 q 215 665 264 665 m 490 665 q 409 700 443 665 q 375 783 375 735 q 409 865 375 831 q 490 899 443 899 q 574 865 539 899 q 608 783 608 831 q 574 700 608 735 q 490 665 539 665 z "},"è":{"ha":708,"x_min":31,"x_max":679,"o":"m 481 353 l 439 303 q 416 396 439 369 q 356 422 393 422 q 296 390 318 422 q 274 306 274 358 q 312 201 274 236 q 414 167 350 167 q 526 181 479 167 q 600 203 572 196 q 624 204 615 207 q 639 186 633 201 l 676 69 q 678 51 679 60 q 663 35 678 42 q 546 -1 615 13 q 392 -14 476 -14 q 125 65 219 -14 q 31 292 31 144 q 122 519 31 440 q 360 597 213 597 q 517 563 450 597 q 621 465 583 528 q 658 318 658 403 q 658 290 658 307 q 654 260 657 272 q 624 243 650 243 l 249 243 l 249 353 l 481 353 m 438 688 q 440 653 449 665 q 410 640 432 640 l 304 640 q 271 651 282 640 q 247 679 260 661 l 124 854 q 119 889 110 875 q 153 903 128 903 l 299 903 q 333 893 321 903 q 356 864 346 883 l 438 688 z "},"ĕ":{"ha":708,"x_min":31,"x_max":679,"o":"m 481 353 l 439 303 q 416 396 439 369 q 356 422 393 422 q 296 390 318 422 q 274 306 274 358 q 312 201 274 236 q 414 167 350 167 q 526 181 479 167 q 600 203 572 196 q 624 204 615 207 q 639 186 633 201 l 676 69 q 678 51 679 60 q 663 35 678 42 q 546 -1 615 13 q 392 -14 476 -14 q 125 65 219 -14 q 31 292 31 144 q 122 519 31 440 q 360 597 213 597 q 517 563 450 597 q 621 465 583 528 q 658 318 658 403 q 658 290 658 307 q 654 260 657 272 q 624 243 650 243 l 249 243 l 249 353 l 481 353 m 354 640 q 242 661 294 640 q 156 730 190 682 q 115 858 121 778 q 143 889 114 889 l 240 889 q 263 883 254 889 q 272 861 271 878 q 301 799 278 817 q 354 782 325 782 q 407 799 383 782 q 436 861 431 817 q 447 883 439 878 q 468 889 454 889 l 565 889 q 593 858 594 889 q 553 730 588 778 q 467 661 519 682 q 354 640 414 640 z "},"ě":{"ha":708,"x_min":31,"x_max":679,"o":"m 481 353 l 439 303 q 416 396 439 369 q 356 422 393 422 q 296 390 318 422 q 274 306 274 358 q 312 201 274 236 q 414 167 350 167 q 526 181 479 167 q 600 203 572 196 q 624 204 615 207 q 639 186 633 201 l 676 69 q 678 51 679 60 q 663 35 678 42 q 546 -1 615 13 q 392 -14 476 -14 q 125 65 219 -14 q 31 292 31 144 q 122 519 31 440 q 360 597 213 597 q 517 563 450 597 q 621 465 583 528 q 658 318 658 403 q 658 290 658 307 q 654 260 657 272 q 624 243 650 243 l 249 243 l 249 353 l 481 353 m 271 640 q 236 650 249 640 q 214 679 224 660 l 132 856 q 130 890 122 878 q 160 903 138 903 l 238 903 q 272 892 260 903 q 294 864 283 882 l 354 768 l 414 864 q 437 892 425 882 q 471 903 449 903 l 549 903 q 579 890 571 903 q 576 856 588 878 l 494 679 q 472 650 485 660 q 438 640 460 640 l 271 640 z "},"ė":{"ha":708,"x_min":31,"x_max":679,"o":"m 481 353 l 439 303 q 416 396 439 369 q 356 422 393 422 q 296 390 318 422 q 274 306 274 358 q 312 201 274 236 q 414 167 350 167 q 526 181 479 167 q 600 203 572 196 q 624 204 615 207 q 639 186 633 201 l 676 69 q 678 51 679 60 q 663 35 678 42 q 546 -1 615 13 q 392 -14 476 -14 q 125 65 219 -14 q 31 292 31 144 q 122 519 31 440 q 360 597 213 597 q 517 563 450 597 q 621 465 583 528 q 658 318 658 403 q 658 290 658 307 q 654 260 657 272 q 624 243 650 243 l 249 243 l 249 353 l 481 353 m 353 650 q 260 689 297 650 q 222 783 222 728 q 260 876 222 838 q 353 914 297 914 q 448 876 410 914 q 486 783 486 838 q 448 689 486 728 q 353 650 410 650 z "},"ē":{"ha":708,"x_min":31,"x_max":679,"o":"m 481 353 l 439 303 q 416 396 439 369 q 356 422 393 422 q 296 390 318 422 q 274 306 274 358 q 312 201 274 236 q 414 167 350 167 q 526 181 479 167 q 600 203 572 196 q 624 204 615 207 q 639 186 633 201 l 676 69 q 678 51 679 60 q 663 35 678 42 q 546 -1 615 13 q 392 -14 476 -14 q 125 65 219 -14 q 31 292 31 144 q 122 519 31 440 q 360 597 213 597 q 517 563 450 597 q 621 465 583 528 q 658 318 658 403 q 658 290 658 307 q 654 260 657 272 q 624 243 650 243 l 249 243 l 249 353 l 481 353 m 164 694 q 135 721 135 694 l 135 825 q 164 854 135 854 l 544 854 q 574 825 574 854 l 574 721 q 544 694 574 694 l 164 694 z "},"ę":{"ha":708,"x_min":31,"x_max":679,"o":"m 356 422 q 308 403 328 422 q 279 353 288 385 l 435 353 q 406 407 426 392 q 356 422 385 422 m 628 -250 q 573 -267 607 -260 q 499 -275 539 -275 q 368 -244 419 -275 q 317 -142 317 -214 q 338 -67 317 -97 q 393 -14 358 -36 q 385 -14 389 -14 q 378 -14 381 -14 q 122 68 213 -11 q 31 292 31 147 q 122 519 31 440 q 360 597 213 597 q 517 563 450 597 q 621 465 583 528 q 658 318 658 403 q 658 290 658 307 q 654 260 657 272 q 624 243 650 243 l 285 243 q 333 185 300 204 q 414 167 367 167 q 526 181 479 167 q 600 203 572 196 q 624 204 615 207 q 639 186 633 201 l 676 69 q 678 51 679 60 q 663 35 678 42 q 626 20 644 26 q 583 7 607 14 q 515 -25 538 -7 q 493 -74 493 -43 q 508 -110 493 -100 q 544 -121 522 -121 q 565 -119 557 -121 q 583 -114 574 -117 q 606 -112 599 -108 q 619 -131 614 -115 l 644 -204 q 649 -233 651 -224 q 628 -250 646 -243 z "},"ğ":{"ha":683,"x_min":21,"x_max":750,"o":"m 339 142 q 119 201 199 142 q 39 369 39 261 q 119 537 39 476 q 339 597 199 597 q 558 537 479 597 q 638 369 638 476 q 558 201 638 261 q 339 142 479 142 m 339 294 q 384 315 367 294 q 401 369 401 335 q 384 424 401 404 q 339 444 367 444 q 292 424 310 444 q 275 369 275 404 q 292 315 275 335 q 339 294 310 294 m 279 189 q 246 150 257 169 q 235 115 235 131 q 246 92 235 99 q 279 85 257 85 l 432 85 q 622 35 560 85 q 685 -104 685 -14 q 639 -236 685 -178 q 506 -328 593 -294 q 293 -361 418 -361 q 94 -319 167 -361 q 21 -210 21 -278 q 72 -115 21 -154 q 250 -65 124 -75 l 296 -107 q 245 -132 261 -117 q 229 -168 229 -147 q 255 -208 229 -193 q 329 -222 281 -222 q 399 -214 369 -222 q 446 -190 429 -206 q 463 -156 463 -175 q 442 -128 463 -136 q 368 -119 422 -119 l 238 -119 q 92 -74 143 -119 q 40 46 40 -29 q 85 152 40 107 q 215 215 129 197 l 279 189 m 581 439 l 544 529 l 568 565 q 581 594 579 581 q 583 643 583 607 l 583 665 q 615 696 583 696 l 718 696 q 750 665 750 696 l 750 649 q 719 528 750 576 q 618 453 688 479 l 581 439 m 342 640 q 230 661 282 640 q 143 730 178 682 q 103 858 108 778 q 131 889 101 889 l 228 889 q 250 883 242 889 q 260 861 258 878 q 289 799 265 817 q 342 782 313 782 q 394 799 371 782 q 424 861 418 817 q 434 883 426 878 q 456 889 442 889 l 553 889 q 581 858 582 889 q 541 730 575 778 q 454 661 507 682 q 342 640 401 640 z "},"ĝ":{"ha":683,"x_min":21,"x_max":750,"o":"m 339 142 q 119 201 199 142 q 39 369 39 261 q 119 537 39 476 q 339 597 199 597 q 558 537 479 597 q 638 369 638 476 q 558 201 638 261 q 339 142 479 142 m 339 294 q 384 315 367 294 q 401 369 401 335 q 384 424 401 404 q 339 444 367 444 q 292 424 310 444 q 275 369 275 404 q 292 315 275 335 q 339 294 310 294 m 279 189 q 246 150 257 169 q 235 115 235 131 q 246 92 235 99 q 279 85 257 85 l 432 85 q 622 35 560 85 q 685 -104 685 -14 q 639 -236 685 -178 q 506 -328 593 -294 q 293 -361 418 -361 q 94 -319 167 -361 q 21 -210 21 -278 q 72 -115 21 -154 q 250 -65 124 -75 l 296 -107 q 245 -132 261 -117 q 229 -168 229 -147 q 255 -208 229 -193 q 329 -222 281 -222 q 399 -214 369 -222 q 446 -190 429 -206 q 463 -156 463 -175 q 442 -128 463 -136 q 368 -119 422 -119 l 238 -119 q 92 -74 143 -119 q 40 46 40 -29 q 85 152 40 107 q 215 215 129 197 l 279 189 m 581 439 l 544 529 l 568 565 q 581 594 579 581 q 583 643 583 607 l 583 665 q 615 696 583 696 l 718 696 q 750 665 750 696 l 750 649 q 719 528 750 576 q 618 453 688 479 l 581 439 m 278 679 q 255 651 267 661 q 221 640 243 640 l 143 640 q 113 653 121 640 q 115 688 106 665 l 197 864 q 219 893 207 883 q 254 903 232 903 l 421 903 q 456 893 443 903 q 478 864 468 883 l 560 688 q 563 653 571 665 q 532 640 554 640 l 454 640 q 420 651 432 640 q 397 679 408 661 l 338 775 l 278 679 z "},"ģ":{"ha":683,"x_min":21,"x_max":750,"o":"m 339 142 q 119 201 199 142 q 39 369 39 261 q 119 537 39 476 q 339 597 199 597 q 558 537 479 597 q 638 369 638 476 q 558 201 638 261 q 339 142 479 142 m 339 294 q 384 315 367 294 q 401 369 401 335 q 384 424 401 404 q 339 444 367 444 q 292 424 310 444 q 275 369 275 404 q 292 315 275 335 q 339 294 310 294 m 279 189 q 246 150 257 169 q 235 115 235 131 q 246 92 235 99 q 279 85 257 85 l 432 85 q 622 35 560 85 q 685 -104 685 -14 q 639 -236 685 -178 q 506 -328 593 -294 q 293 -361 418 -361 q 94 -319 167 -361 q 21 -210 21 -278 q 72 -115 21 -154 q 250 -65 124 -75 l 296 -107 q 245 -132 261 -117 q 229 -168 229 -147 q 255 -208 229 -193 q 329 -222 281 -222 q 399 -214 369 -222 q 446 -190 429 -206 q 463 -156 463 -175 q 442 -128 463 -136 q 368 -119 422 -119 l 238 -119 q 92 -74 143 -119 q 40 46 40 -29 q 85 152 40 107 q 215 215 129 197 l 279 189 m 581 439 l 544 529 l 568 565 q 581 594 579 581 q 583 643 583 607 l 583 665 q 615 696 583 696 l 718 696 q 750 665 750 696 l 750 649 q 719 528 750 576 q 618 453 688 479 l 581 439 m 532 856 l 471 679 q 414 640 457 640 l 268 640 q 234 653 243 640 q 239 689 225 667 l 342 864 q 365 893 353 883 q 399 903 376 903 l 504 903 q 532 856 549 903 z "},"ġ":{"ha":683,"x_min":21,"x_max":750,"o":"m 339 142 q 119 201 199 142 q 39 369 39 261 q 119 537 39 476 q 339 597 199 597 q 558 537 479 597 q 638 369 638 476 q 558 201 638 261 q 339 142 479 142 m 339 294 q 384 315 367 294 q 401 369 401 335 q 384 424 401 404 q 339 444 367 444 q 292 424 310 444 q 275 369 275 404 q 292 315 275 335 q 339 294 310 294 m 279 189 q 246 150 257 169 q 235 115 235 131 q 246 92 235 99 q 279 85 257 85 l 432 85 q 622 35 560 85 q 685 -104 685 -14 q 639 -236 685 -178 q 506 -328 593 -294 q 293 -361 418 -361 q 94 -319 167 -361 q 21 -210 21 -278 q 72 -115 21 -154 q 250 -65 124 -75 l 296 -107 q 245 -132 261 -117 q 229 -168 229 -147 q 255 -208 229 -193 q 329 -222 281 -222 q 399 -214 369 -222 q 446 -190 429 -206 q 463 -156 463 -175 q 442 -128 463 -136 q 368 -119 422 -119 l 238 -119 q 92 -74 143 -119 q 40 46 40 -29 q 85 152 40 107 q 215 215 129 197 l 279 189 m 581 439 l 544 529 l 568 565 q 581 594 579 581 q 583 643 583 607 l 583 665 q 615 696 583 696 l 718 696 q 750 665 750 696 l 750 649 q 719 528 750 576 q 618 453 688 479 l 581 439 m 342 650 q 249 689 286 650 q 211 783 211 728 q 249 876 211 838 q 342 914 286 914 q 437 876 399 914 q 475 783 475 838 q 437 689 475 728 q 342 650 399 650 z "},"ħ":{"ha":756,"x_min":-7,"x_max":701,"o":"m 22 674 q -7 700 -7 674 l -7 804 q 22 833 -7 833 l 478 833 q 507 804 507 833 l 507 700 q 478 674 507 674 l 22 674 m 63 29 l 63 915 q 92 944 63 944 l 269 944 q 299 915 299 944 l 299 29 q 269 0 299 0 l 92 0 q 63 29 63 0 m 672 0 l 494 0 q 465 25 465 0 l 465 300 q 445 369 465 349 q 386 389 425 389 q 307 364 342 389 q 236 300 272 339 l 236 454 q 330 557 268 517 q 475 597 392 597 q 638 540 574 597 q 701 367 701 483 l 701 28 q 672 0 701 0 z "},"ĥ":{"ha":756,"x_min":63,"x_max":701,"o":"m 63 29 l 63 915 q 92 944 63 944 l 269 944 q 299 915 299 944 l 299 29 q 269 0 299 0 l 92 0 q 63 29 63 0 m 672 0 l 494 0 q 465 25 465 0 l 465 300 q 445 369 465 349 q 386 389 425 389 q 307 364 342 389 q 236 300 272 339 l 236 454 q 330 557 268 517 q 475 597 392 597 q 638 540 574 597 q 701 367 701 483 l 701 28 q 672 0 701 0 m 264 1032 q 236 1008 250 1015 q 199 1001 222 1001 l 100 1001 q 72 1015 78 1001 q 79 1049 65 1029 l 169 1176 q 195 1201 182 1194 q 232 1208 208 1208 l 407 1208 q 444 1201 431 1208 q 469 1176 457 1194 l 560 1049 q 568 1015 575 1029 q 539 1001 561 1001 l 440 1001 q 404 1008 418 1001 q 375 1032 390 1015 l 319 1099 l 264 1032 z "},"í":{"ha":361,"x_min":63,"x_max":426,"o":"m 63 29 l 63 554 q 92 583 63 583 l 269 583 q 299 554 299 583 l 299 29 q 269 0 299 0 l 92 0 q 63 29 63 0 m 97 688 l 179 864 q 201 893 189 883 q 236 903 214 903 l 382 903 q 417 889 407 903 q 411 854 426 875 l 288 679 q 264 651 275 661 q 231 640 253 640 l 125 640 q 95 653 103 640 q 97 688 88 665 z "},"î":{"ha":361,"x_min":-51,"x_max":414,"o":"m 63 29 l 63 554 q 92 583 63 583 l 269 583 q 299 554 299 583 l 299 29 q 269 0 299 0 l 92 0 q 63 29 63 0 m 121 679 q 98 651 110 661 q 64 640 86 640 l -14 640 q -44 653 -36 640 q -42 688 -51 665 l 40 864 q 63 893 50 883 q 97 903 75 903 l 264 903 q 299 893 286 903 q 321 864 311 883 l 403 688 q 406 653 414 665 q 375 640 397 640 l 297 640 q 263 651 275 640 q 240 679 251 661 l 181 775 l 121 679 z "},"ï":{"ha":361,"x_min":-74,"x_max":435,"o":"m 63 29 l 63 554 q 92 583 63 583 l 269 583 q 299 554 299 583 l 299 29 q 269 0 299 0 l 92 0 q 63 29 63 0 m 42 665 q -40 700 -6 665 q -74 783 -74 735 q -40 865 -74 831 q 42 899 -6 899 q 125 865 90 899 q 160 783 160 831 q 125 700 160 735 q 42 665 90 665 m 317 665 q 235 700 269 665 q 201 783 201 735 q 235 865 201 831 q 317 899 269 899 q 400 865 365 899 q 435 783 435 831 q 400 700 435 735 q 317 665 365 665 z "},"ì":{"ha":361,"x_min":-64,"x_max":299,"o":"m 63 29 l 63 554 q 92 583 63 583 l 269 583 q 299 554 299 583 l 299 29 q 269 0 299 0 l 92 0 q 63 29 63 0 m 264 688 q 267 653 275 665 q 236 640 258 640 l 131 640 q 97 651 108 640 q 74 679 86 661 l -50 854 q -55 889 -64 875 q -21 903 -46 903 l 125 903 q 160 893 147 903 q 182 864 172 883 l 264 688 z "},"ĭ":{"ha":361,"x_min":-60,"x_max":421,"o":"m 63 29 l 63 554 q 92 583 63 583 l 269 583 q 299 554 299 583 l 299 29 q 269 0 299 0 l 92 0 q 63 29 63 0 m 181 640 q 69 661 121 640 q -18 730 17 682 q -58 858 -53 778 q -31 889 -60 889 l 67 889 q 89 883 81 889 q 99 861 97 878 q 128 799 104 817 q 181 782 151 782 q 233 799 210 782 q 263 861 257 817 q 273 883 265 878 q 294 889 281 889 l 392 889 q 419 858 421 889 q 380 730 414 778 q 293 661 346 682 q 181 640 240 640 z "},"ī":{"ha":361,"x_min":-39,"x_max":400,"o":"m 63 29 l 63 554 q 92 583 63 583 l 269 583 q 299 554 299 583 l 299 29 q 269 0 299 0 l 92 0 q 63 29 63 0 m -10 694 q -39 721 -39 694 l -39 825 q -10 854 -39 854 l 371 854 q 400 825 400 854 l 400 721 q 371 694 400 694 l -10 694 z "},"į":{"ha":361,"x_min":-17,"x_max":317,"o":"m 179 650 q 86 689 124 650 q 49 783 49 728 q 86 876 49 838 q 179 914 124 914 q 274 876 236 914 q 313 783 313 838 q 274 689 313 728 q 179 650 236 650 m 165 -275 q 43 -249 93 -275 q -15 -164 -7 -224 q -17 -142 -17 -154 q 16 -55 -17 -89 q 103 0 49 -21 l 92 0 q 71 8 79 0 q 63 29 63 15 l 63 554 q 63 563 63 558 q 67 569 64 567 q 92 583 74 583 l 225 583 l 269 583 q 278 583 274 583 q 285 579 282 582 q 299 554 299 572 l 299 29 q 272 0 299 0 q 215 -10 240 0 q 174 -37 189 -21 q 160 -74 160 -54 q 160 -74 160 -74 q 160 -74 160 -74 q 174 -110 160 -100 q 211 -121 189 -121 q 232 -119 224 -121 q 250 -114 240 -117 q 273 -112 265 -108 q 286 -131 281 -115 l 311 -204 q 315 -216 314 -211 q 317 -225 317 -221 q 294 -250 317 -240 q 288 -253 292 -251 q 279 -256 283 -254 q 228 -269 258 -264 q 165 -275 199 -275 z "},"ĩ":{"ha":361,"x_min":-75,"x_max":439,"o":"m 63 29 l 63 554 q 92 583 63 583 l 269 583 q 299 554 299 583 l 299 29 q 269 0 299 0 l 92 0 q 63 29 63 0 m 118 721 q 78 713 94 721 q 44 690 63 706 q 18 674 31 678 q -7 683 6 669 l -69 756 q -74 774 -75 763 q -64 796 -72 786 q 24 870 -15 849 q 103 892 64 892 q 156 882 131 892 q 206 862 182 872 q 251 851 231 851 q 290 858 276 851 q 321 882 303 865 q 349 900 336 896 q 374 889 361 904 l 432 821 q 438 801 439 813 q 429 779 436 789 q 351 703 386 728 q 272 679 315 679 q 217 690 244 679 q 165 710 190 700 q 118 721 140 721 z "},"ĵ":{"ha":361,"x_min":-149,"x_max":414,"o":"m 63 -108 l 63 554 q 92 583 63 583 l 269 583 q 299 554 299 583 l 299 -96 q 239 -294 299 -229 q 61 -360 179 -360 q -40 -345 10 -360 q -124 -312 -89 -331 q -137 -278 -149 -299 l -82 -158 q -67 -141 -75 -143 q -46 -146 -60 -139 q -13 -160 -31 -154 q 26 -167 4 -167 q 53 -154 44 -167 q 63 -108 63 -142 m 121 679 q 98 651 110 661 q 64 640 86 640 l -14 640 q -44 653 -36 640 q -42 688 -51 665 l 40 864 q 63 893 50 883 q 97 903 75 903 l 264 903 q 299 893 286 903 q 321 864 311 883 l 403 688 q 406 653 414 665 q 375 640 397 640 l 297 640 q 263 651 275 640 q 240 679 251 661 l 181 775 l 121 679 z "},"ĳ":{"ha":722,"x_min":49,"x_max":674,"o":"m 63 29 l 63 554 q 92 583 63 583 l 269 583 q 299 554 299 583 l 299 29 q 269 0 299 0 l 92 0 q 63 29 63 0 m 179 650 q 86 689 124 650 q 49 783 49 728 q 86 876 49 838 q 179 914 124 914 q 274 876 236 914 q 313 783 313 838 q 274 689 313 728 q 179 650 236 650 m 424 -108 l 424 554 q 453 583 424 583 l 631 583 q 660 554 660 583 l 660 -96 q 600 -294 660 -229 q 422 -360 540 -360 q 322 -345 371 -360 q 238 -312 272 -331 q 224 -278 213 -299 l 279 -158 q 294 -141 286 -143 q 315 -146 301 -139 q 348 -160 331 -154 q 388 -167 365 -167 q 415 -154 406 -167 q 424 -108 424 -142 m 540 650 q 447 689 485 650 q 410 783 410 728 q 447 876 410 838 q 540 914 485 914 q 635 876 597 914 q 674 783 674 838 q 635 689 674 728 q 540 650 597 650 z "},"ķ":{"ha":744,"x_min":63,"x_max":740,"o":"m 63 28 l 63 917 q 92 944 63 944 l 269 944 q 299 917 299 944 l 299 28 q 269 0 299 0 l 92 0 q 63 28 63 0 m 228 329 l 444 563 q 467 580 457 576 q 500 583 478 583 l 678 583 q 706 572 701 583 q 693 543 710 560 l 465 299 l 467 361 l 725 39 q 735 10 740 21 q 710 0 729 0 l 503 0 q 465 7 476 0 q 440 32 454 14 l 228 329 m 226 -272 l 288 -96 q 344 -57 301 -57 l 490 -57 q 524 -70 515 -57 q 519 -106 533 -83 l 417 -281 q 394 -309 406 -299 q 360 -319 382 -319 l 254 -319 q 226 -272 210 -319 z "},"ĺ":{"ha":361,"x_min":63,"x_max":457,"o":"m 63 28 l 63 917 q 92 944 63 944 l 269 944 q 299 917 299 944 l 299 28 q 269 0 299 0 l 92 0 q 63 28 63 0 m 103 1049 l 193 1176 q 219 1201 206 1194 q 256 1208 232 1208 l 421 1208 q 451 1192 444 1208 q 436 1157 457 1176 l 301 1032 q 272 1010 285 1018 q 236 1001 260 1001 l 124 1001 q 95 1015 101 1001 q 103 1049 89 1029 z "},"ľ":{"ha":492,"x_min":63,"x_max":522,"o":"m 63 28 l 63 917 q 92 944 63 944 l 269 944 q 299 917 299 944 l 299 28 q 269 0 299 0 l 92 0 q 63 28 63 0 m 339 722 l 339 906 q 349 936 339 928 q 381 944 358 944 l 486 944 q 517 933 511 944 q 515 896 522 922 l 474 721 q 458 690 468 699 q 428 682 447 682 l 376 682 q 347 691 356 682 q 339 722 339 700 z "},"ļ":{"ha":361,"x_min":-19,"x_max":304,"o":"m 63 28 l 63 917 q 92 944 63 944 l 269 944 q 299 917 299 944 l 299 28 q 269 0 299 0 l 92 0 q 63 28 63 0 m -3 -272 l 58 -96 q 115 -57 72 -57 l 261 -57 q 295 -70 286 -57 q 290 -106 304 -83 l 188 -281 q 165 -309 176 -299 q 131 -319 153 -319 l 25 -319 q -3 -272 -19 -319 z "},"ŀ":{"ha":544,"x_min":63,"x_max":581,"o":"m 63 28 l 63 917 q 92 944 63 944 l 269 944 q 299 917 299 944 l 299 28 q 269 0 299 0 l 92 0 q 63 28 63 0 m 447 335 q 354 374 392 335 q 317 468 317 413 q 354 560 317 522 q 447 599 392 599 q 542 560 504 599 q 581 468 581 522 q 542 374 581 413 q 447 335 504 335 z "},"ñ":{"ha":756,"x_min":63,"x_max":701,"o":"m 63 29 l 63 554 q 92 583 63 583 l 269 583 q 299 554 299 583 l 299 29 q 269 0 299 0 l 92 0 q 63 29 63 0 m 672 0 l 494 0 q 465 25 465 0 l 465 300 q 445 369 465 349 q 386 389 425 389 q 307 364 342 389 q 236 300 272 339 l 236 454 q 330 557 268 517 q 475 597 392 597 q 638 540 574 597 q 701 367 701 483 l 701 28 q 672 0 701 0 m 315 721 q 276 713 292 721 q 242 690 260 706 q 215 674 228 678 q 190 683 203 669 l 128 756 q 124 774 122 763 q 133 796 125 786 q 222 870 182 849 q 300 892 261 892 q 353 882 328 892 q 403 862 379 872 q 449 851 428 851 q 487 858 474 851 q 518 882 500 865 q 546 900 533 896 q 571 889 558 904 l 629 821 q 635 801 636 813 q 626 779 633 789 q 548 703 583 728 q 469 679 513 679 q 415 690 442 679 q 363 710 388 700 q 315 721 338 721 z "},"ń":{"ha":756,"x_min":63,"x_max":701,"o":"m 63 29 l 63 554 q 92 583 63 583 l 269 583 q 299 554 299 583 l 299 29 q 269 0 299 0 l 92 0 q 63 29 63 0 m 672 0 l 494 0 q 465 25 465 0 l 465 300 q 445 369 465 349 q 386 389 425 389 q 307 364 342 389 q 236 300 272 339 l 236 454 q 330 557 268 517 q 475 597 392 597 q 638 540 574 597 q 701 367 701 483 l 701 28 q 672 0 701 0 m 294 688 l 376 864 q 399 893 386 883 q 433 903 411 903 l 579 903 q 614 889 604 903 q 608 854 624 875 l 485 679 q 461 651 472 661 q 428 640 450 640 l 322 640 q 292 653 300 640 q 294 688 285 665 z "},"ň":{"ha":756,"x_min":63,"x_max":701,"o":"m 63 29 l 63 554 q 92 583 63 583 l 269 583 q 299 554 299 583 l 299 29 q 269 0 299 0 l 92 0 q 63 29 63 0 m 672 0 l 494 0 q 465 25 465 0 l 465 300 q 445 369 465 349 q 386 389 425 389 q 307 364 342 389 q 236 300 272 339 l 236 454 q 330 557 268 517 q 475 597 392 597 q 638 540 574 597 q 701 367 701 483 l 701 28 q 672 0 701 0 m 294 640 q 260 650 272 640 q 238 679 247 660 l 156 856 q 153 890 146 878 q 183 903 161 903 l 261 903 q 295 892 283 903 q 318 864 307 882 l 378 768 l 438 864 q 460 892 449 882 q 494 903 472 903 l 572 903 q 603 890 594 903 q 600 856 611 878 l 518 679 q 496 650 508 660 q 461 640 483 640 l 294 640 z "},"ņ":{"ha":756,"x_min":63,"x_max":701,"o":"m 63 29 l 63 554 q 92 583 63 583 l 269 583 q 299 554 299 583 l 299 29 q 269 0 299 0 l 92 0 q 63 29 63 0 m 672 0 l 494 0 q 465 25 465 0 l 465 300 q 445 369 465 349 q 386 389 425 389 q 307 364 342 389 q 236 300 272 339 l 236 454 q 330 557 268 517 q 475 597 392 597 q 638 540 574 597 q 701 367 701 483 l 701 28 q 672 0 701 0 m 232 -272 l 293 -96 q 350 -57 307 -57 l 496 -57 q 530 -70 521 -57 q 525 -106 539 -83 l 422 -281 q 399 -309 411 -299 q 365 -319 388 -319 l 260 -319 q 232 -272 215 -319 z "},"ó":{"ha":747,"x_min":31,"x_max":717,"o":"m 374 -14 q 125 65 219 -14 q 31 292 31 144 q 125 519 31 440 q 374 597 219 597 q 622 519 528 597 q 717 292 717 440 q 622 65 717 144 q 374 -14 528 -14 m 374 181 q 441 211 415 181 q 467 292 467 242 q 441 372 467 342 q 374 403 415 403 q 306 372 332 403 q 281 292 281 342 q 306 211 281 242 q 374 181 332 181 m 290 688 l 372 864 q 394 893 382 883 q 429 903 407 903 l 575 903 q 610 889 600 903 q 604 854 619 875 l 481 679 q 457 651 468 661 q 424 640 446 640 l 318 640 q 288 653 296 640 q 290 688 281 665 z "},"ô":{"ha":747,"x_min":31,"x_max":717,"o":"m 374 -14 q 125 65 219 -14 q 31 292 31 144 q 125 519 31 440 q 374 597 219 597 q 622 519 528 597 q 717 292 717 440 q 622 65 717 144 q 374 -14 528 -14 m 374 181 q 441 211 415 181 q 467 292 467 242 q 441 372 467 342 q 374 403 415 403 q 306 372 332 403 q 281 292 281 342 q 306 211 281 242 q 374 181 332 181 m 314 679 q 291 651 303 661 q 257 640 279 640 l 179 640 q 149 653 157 640 q 151 688 142 665 l 233 864 q 256 893 243 883 q 290 903 268 903 l 457 903 q 492 893 479 903 q 514 864 504 883 l 596 688 q 599 653 607 665 q 568 640 590 640 l 490 640 q 456 651 468 640 q 433 679 444 661 l 374 775 l 314 679 z "},"ö":{"ha":747,"x_min":31,"x_max":717,"o":"m 374 -14 q 125 65 219 -14 q 31 292 31 144 q 125 519 31 440 q 374 597 219 597 q 622 519 528 597 q 717 292 717 440 q 622 65 717 144 q 374 -14 528 -14 m 374 181 q 441 211 415 181 q 467 292 467 242 q 441 372 467 342 q 374 403 415 403 q 306 372 332 403 q 281 292 281 342 q 306 211 281 242 q 374 181 332 181 m 235 665 q 153 700 188 665 q 119 783 119 735 q 153 865 119 831 q 235 899 188 899 q 318 865 283 899 q 353 783 353 831 q 318 700 353 735 q 235 665 283 665 m 510 665 q 428 700 463 665 q 394 783 394 735 q 428 865 394 831 q 510 899 463 899 q 593 865 558 899 q 628 783 628 831 q 593 700 628 735 q 510 665 558 665 z "},"ò":{"ha":747,"x_min":31,"x_max":717,"o":"m 374 -14 q 125 65 219 -14 q 31 292 31 144 q 125 519 31 440 q 374 597 219 597 q 622 519 528 597 q 717 292 717 440 q 622 65 717 144 q 374 -14 528 -14 m 374 181 q 441 211 415 181 q 467 292 467 242 q 441 372 467 342 q 374 403 415 403 q 306 372 332 403 q 281 292 281 342 q 306 211 281 242 q 374 181 332 181 m 457 688 q 460 653 468 665 q 429 640 451 640 l 324 640 q 290 651 301 640 q 267 679 279 661 l 143 854 q 138 889 129 875 q 172 903 147 903 l 318 903 q 353 893 340 903 q 375 864 365 883 l 457 688 z "},"õ":{"ha":747,"x_min":31,"x_max":717,"o":"m 374 -14 q 125 65 219 -14 q 31 292 31 144 q 125 519 31 440 q 374 597 219 597 q 622 519 528 597 q 717 292 717 440 q 622 65 717 144 q 374 -14 528 -14 m 374 181 q 441 211 415 181 q 467 292 467 242 q 441 372 467 342 q 374 403 415 403 q 306 372 332 403 q 281 292 281 342 q 306 211 281 242 q 374 181 332 181 m 311 721 q 272 713 288 721 q 238 690 256 706 q 211 674 224 678 q 186 683 199 669 l 124 756 q 119 774 118 763 q 129 796 121 786 q 217 870 178 849 q 296 892 257 892 q 349 882 324 892 q 399 862 375 872 q 444 851 424 851 q 483 858 469 851 q 514 882 496 865 q 542 900 529 896 q 567 889 554 904 l 625 821 q 631 801 632 813 q 622 779 629 789 q 544 703 579 728 q 465 679 508 679 q 410 690 438 679 q 358 710 383 700 q 311 721 333 721 z "},"ŏ":{"ha":747,"x_min":31,"x_max":717,"o":"m 374 -14 q 125 65 219 -14 q 31 292 31 144 q 125 519 31 440 q 374 597 219 597 q 622 519 528 597 q 717 292 717 440 q 622 65 717 144 q 374 -14 528 -14 m 374 181 q 441 211 415 181 q 467 292 467 242 q 441 372 467 342 q 374 403 415 403 q 306 372 332 403 q 281 292 281 342 q 306 211 281 242 q 374 181 332 181 m 374 640 q 262 661 314 640 q 175 730 210 682 q 135 858 140 778 q 163 889 133 889 l 260 889 q 282 883 274 889 q 292 861 290 878 q 321 799 297 817 q 374 782 344 782 q 426 799 403 782 q 456 861 450 817 q 466 883 458 878 q 488 889 474 889 l 585 889 q 613 858 614 889 q 573 730 607 778 q 486 661 539 682 q 374 640 433 640 z "},"ő":{"ha":747,"x_min":31,"x_max":718,"o":"m 374 -14 q 125 65 219 -14 q 31 292 31 144 q 125 519 31 440 q 374 597 219 597 q 622 519 528 597 q 717 292 717 440 q 622 65 717 144 q 374 -14 528 -14 m 374 181 q 441 211 415 181 q 467 292 467 242 q 441 372 467 342 q 374 403 415 403 q 306 372 332 403 q 281 292 281 342 q 306 211 281 242 q 374 181 332 181 m 125 688 l 207 864 q 229 893 217 883 q 264 903 242 903 l 396 903 q 431 889 421 903 q 425 854 440 875 l 301 679 q 278 651 289 661 q 244 640 267 640 l 153 640 q 123 653 131 640 q 125 688 115 665 m 403 688 l 485 864 q 507 893 494 883 q 542 903 519 903 l 674 903 q 708 889 699 903 q 703 854 718 875 l 579 679 q 556 651 567 661 q 522 640 544 640 l 431 640 q 401 653 408 640 q 403 688 393 665 z "},"ō":{"ha":747,"x_min":31,"x_max":717,"o":"m 374 -14 q 125 65 219 -14 q 31 292 31 144 q 125 519 31 440 q 374 597 219 597 q 622 519 528 597 q 717 292 717 440 q 622 65 717 144 q 374 -14 528 -14 m 374 181 q 441 211 415 181 q 467 292 467 242 q 441 372 467 342 q 374 403 415 403 q 306 372 332 403 q 281 292 281 342 q 306 211 281 242 q 374 181 332 181 m 183 694 q 154 721 154 694 l 154 825 q 183 854 154 854 l 564 854 q 593 825 593 854 l 593 721 q 564 694 593 694 l 183 694 z "},"ŕ":{"ha":567,"x_min":63,"x_max":553,"o":"m 63 29 l 63 554 q 92 583 63 583 l 269 583 q 299 554 299 583 l 299 29 q 269 0 299 0 l 92 0 q 63 29 63 0 m 390 385 q 306 363 339 385 q 236 300 272 340 l 236 413 q 301 504 269 463 q 370 572 332 546 q 461 597 408 597 q 501 594 482 597 q 536 585 521 592 q 552 567 551 578 q 550 546 553 557 l 511 389 q 472 372 506 364 q 435 381 457 376 q 390 385 414 385 m 200 688 l 282 864 q 304 893 292 883 q 339 903 317 903 l 485 903 q 519 889 510 903 q 514 854 529 875 l 390 679 q 367 651 378 661 q 333 640 356 640 l 228 640 q 198 653 206 640 q 200 688 190 665 z "},"ř":{"ha":567,"x_min":51,"x_max":553,"o":"m 63 29 l 63 554 q 92 583 63 583 l 269 583 q 299 554 299 583 l 299 29 q 269 0 299 0 l 92 0 q 63 29 63 0 m 390 385 q 306 363 339 385 q 236 300 272 340 l 236 413 q 301 504 269 463 q 370 572 332 546 q 461 597 408 597 q 501 594 482 597 q 536 585 521 592 q 552 567 551 578 q 550 546 553 557 l 511 389 q 472 372 506 364 q 435 381 457 376 q 390 385 414 385 m 200 640 q 165 650 178 640 q 143 679 153 660 l 61 856 q 59 890 51 878 q 89 903 67 903 l 167 903 q 201 892 189 903 q 224 864 213 882 l 283 768 l 343 864 q 366 892 354 882 q 400 903 378 903 l 478 903 q 508 890 500 903 q 506 856 517 878 l 424 679 q 401 650 414 660 q 367 640 389 640 l 200 640 z "},"ŗ":{"ha":567,"x_min":-19,"x_max":553,"o":"m 63 29 l 63 554 q 92 583 63 583 l 269 583 q 299 554 299 583 l 299 29 q 269 0 299 0 l 92 0 q 63 29 63 0 m 390 385 q 306 363 339 385 q 236 300 272 340 l 236 413 q 301 504 269 463 q 370 572 332 546 q 461 597 408 597 q 501 594 482 597 q 536 585 521 592 q 552 567 551 578 q 550 546 553 557 l 511 389 q 472 372 506 364 q 435 381 457 376 q 390 385 414 385 m -3 -272 l 58 -96 q 115 -57 72 -57 l 261 -57 q 295 -70 286 -57 q 290 -106 304 -83 l 188 -281 q 165 -309 176 -299 q 131 -319 153 -319 l 25 -319 q -3 -272 -19 -319 z "},"š":{"ha":640,"x_min":25,"x_max":608,"o":"m 322 153 q 350 158 342 153 q 358 174 358 164 q 340 194 358 186 q 258 214 322 203 q 99 280 151 233 q 46 400 46 326 q 80 505 46 461 q 176 573 114 549 q 324 597 239 597 q 466 581 393 597 q 582 539 539 564 q 599 520 597 529 q 596 500 600 511 l 553 397 q 535 374 546 379 q 503 381 524 369 q 426 413 476 396 q 329 431 376 431 q 305 426 314 431 q 296 413 296 422 q 316 392 296 400 q 410 368 336 383 q 559 308 510 349 q 608 189 608 268 q 567 66 608 110 q 460 4 526 22 q 313 -14 393 -14 q 171 1 240 -14 q 49 42 101 15 q 28 62 31 51 q 32 90 25 72 l 72 192 q 90 210 79 207 q 114 206 100 213 q 225 165 171 178 q 322 153 279 153 m 238 640 q 202 650 215 640 q 181 679 189 660 l 99 856 q 96 890 88 878 q 126 903 104 903 l 204 903 q 237 892 225 903 q 261 864 249 882 l 321 768 l 381 864 q 403 892 392 882 q 438 903 415 903 l 515 903 q 544 890 536 903 q 543 856 553 878 l 461 679 q 438 650 451 660 q 404 640 425 640 l 238 640 z "},"ś":{"ha":640,"x_min":25,"x_max":608,"o":"m 322 153 q 350 158 342 153 q 358 174 358 164 q 340 194 358 186 q 258 214 322 203 q 99 280 151 233 q 46 400 46 326 q 80 505 46 461 q 176 573 114 549 q 324 597 239 597 q 466 581 393 597 q 582 539 539 564 q 599 520 597 529 q 596 500 600 511 l 553 397 q 535 374 546 379 q 503 381 524 369 q 426 413 476 396 q 329 431 376 431 q 305 426 314 431 q 296 413 296 422 q 316 392 296 400 q 410 368 336 383 q 559 308 510 349 q 608 189 608 268 q 567 66 608 110 q 460 4 526 22 q 313 -14 393 -14 q 171 1 240 -14 q 49 42 101 15 q 28 62 31 51 q 32 90 25 72 l 72 192 q 90 210 79 207 q 114 206 100 213 q 225 165 171 178 q 322 153 279 153 m 238 688 l 319 864 q 341 893 328 883 q 376 903 354 903 l 522 903 q 556 889 547 903 q 551 854 565 875 l 428 679 q 403 651 415 661 q 371 640 392 640 l 265 640 q 235 653 243 640 q 238 688 226 665 z "},"ş":{"ha":640,"x_min":25,"x_max":608,"o":"m 322 153 q 350 158 342 153 q 358 174 358 164 q 340 194 358 186 q 258 214 322 203 q 99 280 151 233 q 46 400 46 326 q 80 505 46 461 q 176 573 114 549 q 324 597 239 597 q 466 581 393 597 q 582 539 539 564 q 599 520 597 529 q 596 500 600 511 l 553 397 q 535 374 546 379 q 503 381 524 369 q 426 413 476 396 q 329 431 376 431 q 305 426 314 431 q 296 413 296 422 q 316 392 296 400 q 410 368 336 383 q 559 308 510 349 q 608 189 608 268 q 567 66 608 110 q 460 4 526 22 q 313 -14 393 -14 q 171 1 240 -14 q 49 42 101 15 q 28 62 31 51 q 32 90 25 72 l 72 192 q 90 210 79 207 q 114 206 100 213 q 225 165 171 178 q 322 153 279 153 m 215 -149 q 197 -128 193 -149 l 214 -65 q 229 -51 217 -54 q 257 -48 240 -50 q 294 -46 274 -46 q 421 -81 383 -46 q 458 -172 458 -117 q 410 -283 458 -246 q 283 -319 361 -319 q 210 -312 242 -319 q 161 -296 179 -306 q 153 -285 153 -292 q 154 -272 153 -278 l 178 -194 q 185 -185 181 -187 q 197 -186 190 -182 q 224 -194 210 -192 q 256 -197 238 -197 q 285 -190 275 -197 q 296 -169 296 -182 q 285 -152 296 -158 q 260 -146 275 -146 q 234 -147 244 -146 q 215 -149 224 -149 z "},"ŝ":{"ha":640,"x_min":25,"x_max":608,"o":"m 322 153 q 350 158 342 153 q 358 174 358 164 q 340 194 358 186 q 258 214 322 203 q 99 280 151 233 q 46 400 46 326 q 80 505 46 461 q 176 573 114 549 q 324 597 239 597 q 466 581 393 597 q 582 539 539 564 q 599 520 597 529 q 596 500 600 511 l 553 397 q 535 374 546 379 q 503 381 524 369 q 426 413 476 396 q 329 431 376 431 q 305 426 314 431 q 296 413 296 422 q 316 392 296 400 q 410 368 336 383 q 559 308 510 349 q 608 189 608 268 q 567 66 608 110 q 460 4 526 22 q 313 -14 393 -14 q 171 1 240 -14 q 49 42 101 15 q 28 62 31 51 q 32 90 25 72 l 72 192 q 90 210 79 207 q 114 206 100 213 q 225 165 171 178 q 322 153 279 153 m 261 679 q 237 651 249 661 q 204 640 225 640 l 126 640 q 96 653 104 640 q 99 688 88 665 l 181 864 q 202 893 189 883 q 238 903 215 903 l 404 903 q 438 893 425 903 q 461 864 451 883 l 543 688 q 544 653 553 665 q 515 640 536 640 l 438 640 q 403 651 415 640 q 381 679 392 661 l 321 775 l 261 679 z "},"ș":{"ha":640,"x_min":25,"x_max":608,"o":"m 322 153 q 350 158 342 153 q 358 174 358 164 q 340 194 358 186 q 258 214 322 203 q 99 280 151 233 q 46 400 46 326 q 80 505 46 461 q 176 573 114 549 q 324 597 239 597 q 466 581 393 597 q 582 539 539 564 q 599 520 597 529 q 596 500 600 511 l 553 397 q 535 374 546 379 q 503 381 524 369 q 426 413 476 396 q 329 431 376 431 q 305 426 314 431 q 296 413 296 422 q 316 392 296 400 q 410 368 336 383 q 559 308 510 349 q 608 189 608 268 q 567 66 608 110 q 460 4 526 22 q 313 -14 393 -14 q 171 1 240 -14 q 49 42 101 15 q 28 62 31 51 q 32 90 25 72 l 72 192 q 90 210 79 207 q 114 206 100 213 q 225 165 171 178 q 322 153 279 153 m 132 -272 l 193 -96 q 250 -57 207 -57 l 396 -57 q 430 -70 421 -57 q 425 -106 439 -83 l 322 -281 q 299 -309 311 -299 q 265 -319 288 -319 l 160 -319 q 132 -272 115 -319 z "},"ŧ":{"ha":556,"x_min":22,"x_max":529,"o":"m 51 431 q 22 457 22 431 l 22 554 q 51 583 22 583 l 476 583 q 506 554 506 583 l 506 457 q 476 431 506 431 l 51 431 m 349 238 q 358 192 349 204 q 385 179 367 179 q 417 184 403 179 q 444 194 432 189 q 481 182 471 208 l 525 60 q 527 40 529 47 q 511 25 525 32 q 438 -2 482 10 q 343 -14 394 -14 q 169 42 225 -14 q 113 222 113 99 l 113 735 q 142 764 113 764 l 319 764 q 349 735 349 764 l 349 238 m 51 260 q 22 286 22 260 l 22 356 q 51 385 22 385 l 476 385 q 506 356 506 385 l 506 286 q 476 260 506 260 l 51 260 z "},"ť":{"ha":556,"x_min":22,"x_max":563,"o":"m 51 396 q 22 422 22 396 l 22 554 q 51 583 22 583 l 476 583 q 506 554 506 583 l 506 422 q 476 396 506 396 l 51 396 m 349 238 q 358 192 349 204 q 385 179 367 179 q 417 184 403 179 q 444 194 432 189 q 481 182 471 208 l 525 60 q 527 40 529 47 q 511 25 525 32 q 438 -2 482 10 q 343 -14 394 -14 q 169 42 225 -14 q 113 222 113 99 l 113 735 q 142 764 113 764 l 319 764 q 349 735 349 764 l 349 238 m 379 668 l 379 851 q 389 882 379 874 q 421 890 399 890 l 526 890 q 557 879 551 890 q 556 842 563 868 l 514 667 q 498 636 508 644 q 468 628 488 628 l 417 628 q 388 637 396 628 q 379 668 379 646 z "},"ţ":{"ha":556,"x_min":22,"x_max":529,"o":"m 51 396 q 22 422 22 396 l 22 554 q 51 583 22 583 l 476 583 q 506 554 506 583 l 506 422 q 476 396 506 396 l 51 396 m 349 238 q 358 192 349 204 q 385 179 367 179 q 417 184 403 179 q 444 194 432 189 q 481 182 471 208 l 525 60 q 527 40 529 47 q 511 25 525 32 q 438 -2 482 10 q 343 -14 394 -14 q 169 42 225 -14 q 113 222 113 99 l 113 735 q 142 764 113 764 l 319 764 q 349 735 349 764 l 349 238 m 104 -272 l 165 -96 q 222 -57 179 -57 l 368 -57 q 402 -70 393 -57 q 397 -106 411 -83 l 294 -281 q 272 -309 283 -299 q 238 -319 260 -319 l 132 -319 q 104 -272 88 -319 z "},"ț":{"ha":556,"x_min":22,"x_max":529,"o":"m 51 396 q 22 422 22 396 l 22 554 q 51 583 22 583 l 476 583 q 506 554 506 583 l 506 422 q 476 396 506 396 l 51 396 m 349 238 q 358 192 349 204 q 385 179 367 179 q 417 184 403 179 q 444 194 432 189 q 481 182 471 208 l 525 60 q 527 40 529 47 q 511 25 525 32 q 438 -2 482 10 q 343 -14 394 -14 q 169 42 225 -14 q 113 222 113 99 l 113 735 q 142 764 113 764 l 319 764 q 349 735 349 764 l 349 238 m 104 -272 l 165 -96 q 222 -57 179 -57 l 368 -57 q 402 -70 393 -57 q 397 -106 411 -83 l 294 -281 q 272 -309 283 -299 q 238 -319 260 -319 l 132 -319 q 104 -272 88 -319 z "},"ú":{"ha":740,"x_min":53,"x_max":678,"o":"m 678 554 l 678 29 q 649 0 678 0 l 471 0 q 442 29 442 0 l 442 554 q 471 583 442 583 l 649 583 q 678 554 678 583 m 82 583 l 260 583 q 289 558 289 583 l 289 283 q 309 215 289 236 q 368 194 329 194 q 448 219 413 194 q 518 283 483 244 l 518 146 q 423 32 483 78 q 279 -14 363 -14 q 117 43 181 -14 q 53 217 53 100 l 53 556 q 82 583 53 583 m 288 688 l 369 864 q 391 893 378 883 q 426 903 404 903 l 572 903 q 606 889 597 903 q 601 854 615 875 l 478 679 q 453 651 465 661 q 421 640 442 640 l 315 640 q 285 653 293 640 q 288 688 276 665 z "},"û":{"ha":740,"x_min":53,"x_max":678,"o":"m 678 554 l 678 29 q 649 0 678 0 l 471 0 q 442 29 442 0 l 442 554 q 471 583 442 583 l 649 583 q 678 554 678 583 m 82 583 l 260 583 q 289 558 289 583 l 289 283 q 309 215 289 236 q 368 194 329 194 q 448 219 413 194 q 518 283 483 244 l 518 146 q 423 32 483 78 q 279 -14 363 -14 q 117 43 181 -14 q 53 217 53 100 l 53 556 q 82 583 53 583 m 311 679 q 287 651 299 661 q 254 640 275 640 l 176 640 q 146 653 154 640 q 149 688 138 665 l 231 864 q 252 893 239 883 q 288 903 265 903 l 454 903 q 488 893 475 903 q 511 864 501 883 l 593 688 q 594 653 603 665 q 565 640 586 640 l 488 640 q 453 651 465 640 q 431 679 442 661 l 371 775 l 311 679 z "},"ü":{"ha":740,"x_min":53,"x_max":678,"o":"m 678 554 l 678 29 q 649 0 678 0 l 471 0 q 442 29 442 0 l 442 554 q 471 583 442 583 l 649 583 q 678 554 678 583 m 82 583 l 260 583 q 289 558 289 583 l 289 283 q 309 215 289 236 q 368 194 329 194 q 448 219 413 194 q 518 283 483 244 l 518 146 q 423 32 483 78 q 279 -14 363 -14 q 117 43 181 -14 q 53 217 53 100 l 53 556 q 82 583 53 583 m 232 665 q 150 700 183 665 q 117 783 117 735 q 150 865 117 831 q 232 899 183 899 q 315 865 281 899 q 350 783 350 831 q 315 700 350 735 q 232 665 281 665 m 507 665 q 425 700 458 665 q 392 783 392 735 q 425 865 392 831 q 507 899 458 899 q 590 865 556 899 q 625 783 625 831 q 590 700 625 735 q 507 665 556 665 z "},"ù":{"ha":740,"x_min":53,"x_max":678,"o":"m 678 554 l 678 29 q 649 0 678 0 l 471 0 q 442 29 442 0 l 442 554 q 471 583 442 583 l 649 583 q 678 554 678 583 m 82 583 l 260 583 q 289 558 289 583 l 289 283 q 309 215 289 236 q 368 194 329 194 q 448 219 413 194 q 518 283 483 244 l 518 146 q 423 32 483 78 q 279 -14 363 -14 q 117 43 181 -14 q 53 217 53 100 l 53 556 q 82 583 53 583 m 454 688 q 456 653 464 665 q 426 640 447 640 l 321 640 q 288 651 299 640 q 264 679 276 661 l 140 854 q 135 889 125 875 q 169 903 144 903 l 315 903 q 349 893 336 903 q 372 864 363 883 l 454 688 z "},"ŭ":{"ha":740,"x_min":53,"x_max":678,"o":"m 678 554 l 678 29 q 649 0 678 0 l 471 0 q 442 29 442 0 l 442 554 q 471 583 442 583 l 649 583 q 678 554 678 583 m 82 583 l 260 583 q 289 558 289 583 l 289 283 q 309 215 289 236 q 368 194 329 194 q 448 219 413 194 q 518 283 483 244 l 518 146 q 423 32 483 78 q 279 -14 363 -14 q 117 43 181 -14 q 53 217 53 100 l 53 556 q 82 583 53 583 m 371 640 q 258 661 311 640 q 172 730 206 682 q 132 858 138 778 q 160 889 129 889 l 257 889 q 278 883 269 889 q 289 861 286 878 q 317 799 293 817 q 371 782 342 782 q 423 799 399 782 q 453 861 447 817 q 463 883 454 878 q 485 889 471 889 l 582 889 q 610 858 611 889 q 569 730 604 778 q 483 661 535 682 q 371 640 431 640 z "},"ű":{"ha":740,"x_min":53,"x_max":714,"o":"m 678 554 l 678 29 q 649 0 678 0 l 471 0 q 442 29 442 0 l 442 554 q 471 583 442 583 l 649 583 q 678 554 678 583 m 82 583 l 260 583 q 289 558 289 583 l 289 283 q 309 215 289 236 q 368 194 329 194 q 448 219 413 194 q 518 283 483 244 l 518 146 q 423 32 483 78 q 279 -14 363 -14 q 117 43 181 -14 q 53 217 53 100 l 53 556 q 82 583 53 583 m 122 688 l 204 864 q 226 893 213 883 q 261 903 239 903 l 393 903 q 427 889 418 903 q 422 854 436 875 l 299 679 q 274 651 286 661 q 242 640 263 640 l 150 640 q 119 653 128 640 q 122 688 111 665 m 400 688 l 482 864 q 503 893 490 883 q 539 903 517 903 l 671 903 q 705 889 696 903 q 700 854 714 875 l 576 679 q 552 651 564 661 q 519 640 540 640 l 428 640 q 397 653 406 640 q 400 688 389 665 z "},"ū":{"ha":740,"x_min":53,"x_max":678,"o":"m 678 554 l 678 29 q 649 0 678 0 l 471 0 q 442 29 442 0 l 442 554 q 471 583 442 583 l 649 583 q 678 554 678 583 m 82 583 l 260 583 q 289 558 289 583 l 289 283 q 309 215 289 236 q 368 194 329 194 q 448 219 413 194 q 518 283 483 244 l 518 146 q 423 32 483 78 q 279 -14 363 -14 q 117 43 181 -14 q 53 217 53 100 l 53 556 q 82 583 53 583 m 181 694 q 151 721 151 694 l 151 825 q 181 854 151 854 l 561 854 q 590 825 590 854 l 590 721 q 561 694 590 694 l 181 694 z "},"ų":{"ha":740,"x_min":53,"x_max":694,"o":"m 543 -275 q 413 -244 464 -275 q 361 -142 361 -214 q 394 -55 361 -89 q 481 0 426 -21 l 471 0 q 471 0 471 0 q 471 0 471 0 q 442 29 442 0 q 442 38 442 33 q 442 47 442 43 q 389 12 418 26 q 326 -10 360 -3 q 279 -14 303 -14 q 124 37 186 -14 q 54 190 61 88 q 53 203 53 196 q 53 217 53 210 l 53 556 q 67 579 53 572 q 74 583 69 582 q 82 583 78 583 l 260 583 q 289 558 289 583 l 289 283 q 309 215 289 236 q 368 194 329 194 q 368 194 368 194 q 368 194 368 194 q 407 200 389 194 q 442 215 425 206 l 442 554 q 442 563 442 558 q 446 569 443 567 q 471 583 453 583 l 649 583 q 657 583 653 583 q 664 579 661 582 q 678 554 678 572 l 678 554 l 678 29 q 650 0 678 0 q 592 -10 618 0 q 552 -37 567 -21 q 538 -74 538 -54 q 552 -110 538 -100 q 589 -121 567 -121 q 610 -119 601 -121 q 628 -114 618 -117 q 651 -112 643 -108 q 664 -131 658 -115 l 689 -204 q 693 -216 692 -211 q 694 -225 694 -221 q 672 -250 694 -240 q 617 -267 651 -260 q 543 -275 583 -275 z "},"ů":{"ha":740,"x_min":53,"x_max":678,"o":"m 678 554 l 678 29 q 649 0 678 0 l 471 0 q 442 29 442 0 l 442 554 q 471 583 442 583 l 649 583 q 678 554 678 583 m 82 583 l 260 583 q 289 558 289 583 l 289 283 q 309 215 289 236 q 368 194 329 194 q 448 219 413 194 q 518 283 483 244 l 518 146 q 423 32 483 78 q 279 -14 363 -14 q 117 43 181 -14 q 53 217 53 100 l 53 556 q 82 583 53 583 m 371 760 q 410 776 394 760 q 426 817 426 792 q 410 855 426 840 q 371 869 394 869 q 333 855 347 869 q 318 817 318 840 q 333 776 318 792 q 371 760 347 760 m 369 632 q 234 685 288 632 q 181 817 181 738 q 205 908 181 868 q 272 973 229 949 q 369 997 315 997 q 469 973 425 997 q 538 908 513 949 q 564 817 564 868 q 538 722 564 764 q 469 656 513 681 q 369 632 425 632 z "},"ũ":{"ha":740,"x_min":53,"x_max":678,"o":"m 678 554 l 678 29 q 649 0 678 0 l 471 0 q 442 29 442 0 l 442 554 q 471 583 442 583 l 649 583 q 678 554 678 583 m 82 583 l 260 583 q 289 558 289 583 l 289 283 q 309 215 289 236 q 368 194 329 194 q 448 219 413 194 q 518 283 483 244 l 518 146 q 423 32 483 78 q 279 -14 363 -14 q 117 43 181 -14 q 53 217 53 100 l 53 556 q 82 583 53 583 m 308 721 q 267 713 283 721 q 235 690 251 706 q 208 674 219 678 q 183 683 196 669 l 121 756 q 116 774 114 763 q 126 796 118 786 q 214 870 174 849 q 293 892 254 892 q 346 882 319 892 q 397 862 372 872 q 442 851 421 851 q 480 858 467 851 q 511 882 493 865 q 538 900 525 896 q 564 889 551 904 l 622 821 q 628 801 629 813 q 619 779 626 789 q 540 703 575 728 q 463 679 504 679 q 408 690 435 679 q 356 710 381 700 q 308 721 331 721 z "},"ẃ":{"ha":1114,"x_min":8,"x_max":1106,"o":"m 463 28 q 422 0 454 0 l 235 0 q 210 6 221 0 q 193 28 199 13 l 18 536 q 18 573 8 563 q 53 583 28 583 l 215 583 q 253 576 239 583 q 274 546 268 568 l 353 208 l 331 208 l 438 544 q 454 574 444 565 q 490 583 464 583 l 638 583 q 674 574 664 583 q 690 544 685 564 l 797 208 l 775 208 l 854 544 q 911 583 864 583 l 1061 583 q 1096 573 1086 583 q 1096 536 1106 563 l 921 28 q 881 0 910 0 l 693 0 q 668 6 679 0 q 651 28 657 13 l 550 332 l 564 332 l 463 28 m 474 688 l 556 864 q 578 893 565 883 q 613 903 590 903 l 758 903 q 793 889 783 903 q 788 854 803 875 l 664 679 q 640 651 651 661 q 607 640 629 640 l 501 640 q 472 653 479 640 q 474 688 464 665 z "},"ŵ":{"ha":1114,"x_min":8,"x_max":1106,"o":"m 463 28 q 422 0 454 0 l 235 0 q 210 6 221 0 q 193 28 199 13 l 18 536 q 18 573 8 563 q 53 583 28 583 l 215 583 q 253 576 239 583 q 274 546 268 568 l 353 208 l 331 208 l 438 544 q 454 574 444 565 q 490 583 464 583 l 638 583 q 674 574 664 583 q 690 544 685 564 l 797 208 l 775 208 l 854 544 q 911 583 864 583 l 1061 583 q 1096 573 1086 583 q 1096 536 1106 563 l 921 28 q 881 0 910 0 l 693 0 q 668 6 679 0 q 651 28 657 13 l 550 332 l 564 332 l 463 28 m 497 679 q 474 651 486 661 q 440 640 463 640 l 363 640 q 333 653 340 640 q 335 688 325 665 l 417 864 q 439 893 426 883 q 474 903 451 903 l 640 903 q 675 893 663 903 q 697 864 688 883 l 779 688 q 782 653 790 665 q 751 640 774 640 l 674 640 q 640 651 651 640 q 617 679 628 661 l 557 775 l 497 679 z "},"ẅ":{"ha":1114,"x_min":8,"x_max":1106,"o":"m 463 28 q 422 0 454 0 l 235 0 q 210 6 221 0 q 193 28 199 13 l 18 536 q 18 573 8 563 q 53 583 28 583 l 215 583 q 253 576 239 583 q 274 546 268 568 l 353 208 l 331 208 l 438 544 q 454 574 444 565 q 490 583 464 583 l 638 583 q 674 574 664 583 q 690 544 685 564 l 797 208 l 775 208 l 854 544 q 911 583 864 583 l 1061 583 q 1096 573 1086 583 q 1096 536 1106 563 l 921 28 q 881 0 910 0 l 693 0 q 668 6 679 0 q 651 28 657 13 l 550 332 l 564 332 l 463 28 m 418 665 q 337 700 371 665 q 303 783 303 735 q 337 865 303 831 q 418 899 371 899 q 501 865 467 899 q 536 783 536 831 q 501 700 536 735 q 418 665 467 665 m 693 665 q 612 700 646 665 q 578 783 578 735 q 612 865 578 831 q 693 899 646 899 q 776 865 742 899 q 811 783 811 831 q 776 700 811 735 q 693 665 742 665 z "},"ẁ":{"ha":1114,"x_min":8,"x_max":1106,"o":"m 463 28 q 422 0 454 0 l 235 0 q 210 6 221 0 q 193 28 199 13 l 18 536 q 18 573 8 563 q 53 583 28 583 l 215 583 q 253 576 239 583 q 274 546 268 568 l 353 208 l 331 208 l 438 544 q 454 574 444 565 q 490 583 464 583 l 638 583 q 674 574 664 583 q 690 544 685 564 l 797 208 l 775 208 l 854 544 q 911 583 864 583 l 1061 583 q 1096 573 1086 583 q 1096 536 1106 563 l 921 28 q 881 0 910 0 l 693 0 q 668 6 679 0 q 651 28 657 13 l 550 332 l 564 332 l 463 28 m 640 688 q 643 653 651 665 q 613 640 635 640 l 507 640 q 474 651 485 640 q 450 679 463 661 l 326 854 q 322 889 313 875 q 356 903 331 903 l 501 903 q 536 893 524 903 q 558 864 549 883 l 640 688 z "},"ý":{"ha":728,"x_min":-21,"x_max":729,"o":"m 385 221 l 471 28 l 263 28 q 221 56 232 28 l 18 536 q 18 573 8 563 q 53 583 28 583 l 215 583 q 253 576 239 583 q 274 546 267 569 l 385 221 m 268 -37 l 482 554 q 529 583 493 583 l 689 583 q 714 546 729 583 l 449 -132 q 375 -273 413 -224 q 292 -341 338 -322 q 186 -360 247 -360 q 90 -346 142 -360 q 3 -314 38 -332 q -11 -279 -21 -301 l 38 -156 q 74 -143 47 -129 q 117 -163 93 -153 q 164 -174 142 -174 q 200 -167 186 -174 q 229 -131 214 -160 q 268 -37 244 -101 m 281 688 l 363 864 q 385 893 372 883 q 419 903 397 903 l 565 903 q 600 889 590 903 q 594 854 610 875 l 471 679 q 447 651 458 661 q 414 640 436 640 l 308 640 q 278 653 286 640 q 281 688 271 665 z "},"ÿ":{"ha":728,"x_min":-21,"x_max":729,"o":"m 385 221 l 471 28 l 263 28 q 221 56 232 28 l 18 536 q 18 573 8 563 q 53 583 28 583 l 215 583 q 253 576 239 583 q 274 546 267 569 l 385 221 m 268 -37 l 482 554 q 529 583 493 583 l 689 583 q 714 546 729 583 l 449 -132 q 375 -273 413 -224 q 292 -341 338 -322 q 186 -360 247 -360 q 90 -346 142 -360 q 3 -314 38 -332 q -11 -279 -21 -301 l 38 -156 q 74 -143 47 -129 q 117 -163 93 -153 q 164 -174 142 -174 q 200 -167 186 -174 q 229 -131 214 -160 q 268 -37 244 -101 m 225 665 q 144 700 178 665 q 110 783 110 735 q 144 865 110 831 q 225 899 178 899 q 308 865 274 899 q 343 783 343 831 q 308 700 343 735 q 225 665 274 665 m 500 665 q 419 700 453 665 q 385 783 385 735 q 419 865 385 831 q 500 899 453 899 q 583 865 549 899 q 618 783 618 831 q 583 700 618 735 q 500 665 549 665 z "},"ŷ":{"ha":728,"x_min":-21,"x_max":729,"o":"m 385 221 l 471 28 l 263 28 q 221 56 232 28 l 18 536 q 18 573 8 563 q 53 583 28 583 l 215 583 q 253 576 239 583 q 274 546 267 569 l 385 221 m 268 -37 l 482 554 q 529 583 493 583 l 689 583 q 714 546 729 583 l 449 -132 q 375 -273 413 -224 q 292 -341 338 -322 q 186 -360 247 -360 q 90 -346 142 -360 q 3 -314 38 -332 q -11 -279 -21 -301 l 38 -156 q 74 -143 47 -129 q 117 -163 93 -153 q 164 -174 142 -174 q 200 -167 186 -174 q 229 -131 214 -160 q 268 -37 244 -101 m 304 679 q 281 651 293 661 q 247 640 269 640 l 169 640 q 140 653 147 640 q 142 688 132 665 l 224 864 q 246 893 233 883 q 281 903 258 903 l 447 903 q 482 893 469 903 q 504 864 494 883 l 586 688 q 589 653 597 665 q 558 640 581 640 l 481 640 q 447 651 458 640 q 424 679 435 661 l 364 775 l 304 679 z "},"ỳ":{"ha":728,"x_min":-21,"x_max":729,"o":"m 385 221 l 471 28 l 263 28 q 221 56 232 28 l 18 536 q 18 573 8 563 q 53 583 28 583 l 215 583 q 253 576 239 583 q 274 546 267 569 l 385 221 m 268 -37 l 482 554 q 529 583 493 583 l 689 583 q 714 546 729 583 l 449 -132 q 375 -273 413 -224 q 292 -341 338 -322 q 186 -360 247 -360 q 90 -346 142 -360 q 3 -314 38 -332 q -11 -279 -21 -301 l 38 -156 q 74 -143 47 -129 q 117 -163 93 -153 q 164 -174 142 -174 q 200 -167 186 -174 q 229 -131 214 -160 q 268 -37 244 -101 m 447 688 q 450 653 458 665 q 419 640 442 640 l 314 640 q 281 651 292 640 q 257 679 269 661 l 133 854 q 128 889 119 875 q 163 903 138 903 l 308 903 q 343 893 331 903 q 365 864 356 883 l 447 688 z "},"ž":{"ha":628,"x_min":39,"x_max":592,"o":"m 592 26 q 563 0 592 0 l 68 0 q 39 26 39 0 l 39 158 q 44 180 39 174 q 60 194 50 186 l 281 396 l 82 396 q 53 422 53 396 l 53 554 q 82 583 53 583 l 542 583 q 571 554 571 583 l 571 422 q 551 388 571 403 l 317 188 l 563 188 q 592 158 592 188 l 592 26 m 231 640 q 196 650 208 640 q 174 679 183 660 l 92 856 q 90 890 82 878 q 119 903 97 903 l 197 903 q 231 892 219 903 q 254 864 243 882 l 314 768 l 374 864 q 397 892 385 882 q 431 903 408 903 l 508 903 q 539 890 531 903 q 536 856 547 878 l 454 679 q 432 650 444 660 q 397 640 419 640 l 231 640 z "},"ź":{"ha":628,"x_min":39,"x_max":592,"o":"m 592 26 q 563 0 592 0 l 68 0 q 39 26 39 0 l 39 158 q 44 180 39 174 q 60 194 50 186 l 281 396 l 82 396 q 53 422 53 396 l 53 554 q 82 583 53 583 l 542 583 q 571 554 571 583 l 571 422 q 551 388 571 403 l 317 188 l 563 188 q 592 158 592 188 l 592 26 m 231 688 l 313 864 q 335 893 322 883 q 369 903 347 903 l 515 903 q 550 889 540 903 q 544 854 560 875 l 421 679 q 397 651 408 661 q 364 640 386 640 l 258 640 q 228 653 236 640 q 231 688 221 665 z "},"ż":{"ha":628,"x_min":39,"x_max":592,"o":"m 592 26 q 563 0 592 0 l 68 0 q 39 26 39 0 l 39 158 q 44 180 39 174 q 60 194 50 186 l 281 396 l 82 396 q 53 422 53 396 l 53 554 q 82 583 53 583 l 542 583 q 571 554 571 583 l 571 422 q 551 388 571 403 l 317 188 l 563 188 q 592 158 592 188 l 592 26 m 319 650 q 226 689 264 650 q 189 783 189 728 q 226 876 189 838 q 319 914 264 914 q 415 876 376 914 q 453 783 453 838 q 415 689 453 728 q 319 650 376 650 z "},"´":{"ha":694,"x_min":254,"x_max":593,"o":"m 264 688 l 346 864 q 368 893 356 883 q 403 903 381 903 l 549 903 q 583 889 574 903 q 578 854 593 875 l 454 679 q 431 651 442 661 q 397 640 419 640 l 292 640 q 262 653 269 640 q 264 688 254 665 z "},"`":{"ha":694,"x_min":103,"x_max":442,"o":"m 431 688 q 433 653 442 665 q 403 640 425 640 l 297 640 q 264 651 275 640 q 240 679 253 661 l 117 854 q 112 889 103 875 q 146 903 121 903 l 292 903 q 326 893 314 903 q 349 864 339 883 l 431 688 z "},"ˆ":{"ha":694,"x_min":115,"x_max":581,"o":"m 288 679 q 265 651 276 661 q 231 640 253 640 l 153 640 q 123 653 131 640 q 125 688 115 665 l 207 864 q 229 893 217 883 q 264 903 242 903 l 431 903 q 465 893 453 903 q 488 864 478 883 l 569 688 q 572 653 581 665 q 542 640 564 640 l 464 640 q 430 651 442 640 q 407 679 418 661 l 347 775 l 288 679 z "},"ˇ":{"ha":694,"x_min":115,"x_max":581,"o":"m 264 640 q 229 650 242 640 q 207 679 217 660 l 125 856 q 123 890 115 878 q 153 903 131 903 l 231 903 q 265 892 253 903 q 288 864 276 882 l 347 768 l 407 864 q 430 892 418 882 q 464 903 442 903 l 542 903 q 572 890 564 903 q 569 856 581 878 l 488 679 q 465 650 478 660 q 431 640 453 640 l 264 640 z "},"˜":{"ha":694,"x_min":92,"x_max":606,"o":"m 285 721 q 245 713 261 721 q 211 690 229 706 q 185 674 197 678 q 160 683 172 669 l 97 756 q 93 774 92 763 q 103 796 94 786 q 191 870 151 849 q 269 892 231 892 q 323 882 297 892 q 373 862 349 872 q 418 851 397 851 q 456 858 443 851 q 488 882 469 865 q 515 900 503 896 q 540 889 528 904 l 599 821 q 604 801 606 813 q 596 779 603 789 q 517 703 553 728 q 439 679 482 679 q 384 690 411 679 q 332 710 357 700 q 285 721 307 721 z "},"¨":{"ha":694,"x_min":93,"x_max":601,"o":"m 208 665 q 127 700 161 665 q 93 783 93 735 q 127 865 93 831 q 208 899 161 899 q 292 865 257 899 q 326 783 326 831 q 292 700 326 735 q 208 665 257 665 m 483 665 q 402 700 436 665 q 368 783 368 735 q 402 865 368 831 q 483 899 436 899 q 567 865 532 899 q 601 783 601 831 q 567 700 601 735 q 483 665 532 665 z "},"˚":{"ha":694,"x_min":157,"x_max":540,"o":"m 347 760 q 310 776 325 760 q 294 817 294 792 q 310 855 294 840 q 347 869 325 869 q 387 855 371 869 q 403 817 403 840 q 387 776 403 792 q 347 760 371 760 m 346 632 q 445 656 401 632 q 515 722 489 681 q 540 817 540 764 q 515 908 540 868 q 445 973 489 949 q 346 997 401 997 q 249 973 292 997 q 182 908 207 949 q 157 817 157 868 q 211 685 157 738 q 346 632 265 632 z "},"¸":{"ha":694,"x_min":217,"x_max":522,"o":"m 279 -149 q 261 -128 257 -149 l 278 -65 q 293 -51 281 -54 q 321 -48 304 -50 q 358 -46 338 -46 q 485 -81 447 -46 q 522 -172 522 -117 q 474 -283 522 -246 q 347 -319 425 -319 q 274 -312 306 -319 q 225 -296 243 -306 q 217 -285 217 -292 q 218 -272 217 -278 l 242 -194 q 249 -185 244 -187 q 261 -186 254 -182 q 288 -194 274 -192 q 319 -197 301 -197 q 349 -190 339 -197 q 360 -169 360 -182 q 349 -152 360 -158 q 324 -146 339 -146 q 298 -147 308 -146 q 279 -149 288 -149 z "},"˝":{"ha":694,"x_min":89,"x_max":692,"o":"m 99 688 l 181 864 q 203 893 190 883 q 238 903 215 903 l 369 903 q 404 889 394 903 q 399 854 414 875 l 275 679 q 251 651 263 661 q 218 640 240 640 l 126 640 q 97 653 104 640 q 99 688 89 665 m 376 688 l 458 864 q 481 893 468 883 q 515 903 493 903 l 647 903 q 682 889 672 903 q 676 854 692 875 l 553 679 q 529 651 540 661 q 496 640 518 640 l 404 640 q 374 653 382 640 q 376 688 367 665 z "},"˘":{"ha":694,"x_min":107,"x_max":588,"o":"m 347 640 q 235 661 288 640 q 149 730 183 682 q 108 858 114 778 q 136 889 107 889 l 233 889 q 256 883 247 889 q 265 861 264 878 q 294 799 271 817 q 347 782 318 782 q 400 799 376 782 q 429 861 424 817 q 440 883 432 878 q 461 889 447 889 l 558 889 q 586 858 588 889 q 547 730 581 778 q 460 661 513 682 q 347 640 407 640 z "},"¯":{"ha":694,"x_min":128,"x_max":567,"o":"m 157 694 q 128 721 128 694 l 128 825 q 157 854 128 854 l 538 854 q 567 825 567 854 l 567 721 q 538 694 567 694 l 157 694 z "},"˙":{"ha":694,"x_min":215,"x_max":479,"o":"m 346 650 q 253 689 290 650 q 215 783 215 728 q 253 876 215 838 q 346 914 290 914 q 441 876 403 914 q 479 783 479 838 q 441 689 479 728 q 346 650 403 650 z "},"·":{"ha":694,"x_min":215,"x_max":479,"o":"m 346 233 q 253 272 290 233 q 215 367 215 311 q 253 459 215 421 q 346 497 290 497 q 441 459 403 497 q 479 367 479 421 q 441 272 479 311 q 346 233 403 233 z "},"˛":{"ha":694,"x_min":150,"x_max":485,"o":"m 444 14 q 356 -19 385 1 q 326 -74 326 -39 q 341 -110 326 -99 q 378 -121 356 -121 q 399 -119 390 -121 q 417 -114 408 -117 q 440 -112 432 -108 q 453 -131 447 -115 l 478 -204 q 482 -233 485 -224 q 461 -250 479 -243 q 406 -267 440 -258 q 332 -275 372 -275 q 201 -244 253 -275 q 150 -142 150 -214 q 184 -47 150 -83 q 276 10 218 -11 q 407 46 335 31 l 444 14 z "},"̦":{"ha":694,"x_min":185,"x_max":508,"o":"m 201 -272 l 263 -96 q 319 -57 276 -57 l 465 -57 q 499 -70 490 -57 q 494 -106 508 -83 l 392 -281 q 369 -309 381 -299 q 335 -319 357 -319 l 229 -319 q 201 -272 185 -319 z "},".":{"ha":346,"x_min":28,"x_max":318,"o":"m 171 -14 q 69 29 111 -14 q 28 133 28 72 q 69 235 28 193 q 171 278 111 278 q 275 235 232 278 q 318 133 318 193 q 275 29 318 72 q 171 -14 232 -14 z "},",":{"ha":399,"x_min":40,"x_max":371,"o":"m 44 -125 l 106 211 q 125 241 110 232 q 163 250 140 250 l 322 250 q 351 201 371 250 l 221 -133 q 164 -172 207 -172 l 72 -172 q 45 -160 50 -172 q 44 -125 40 -147 z "},":":{"ha":346,"x_min":28,"x_max":318,"o":"m 171 -14 q 69 29 111 -14 q 28 133 28 72 q 69 235 28 193 q 171 278 111 278 q 275 235 232 278 q 318 133 318 193 q 275 29 318 72 q 171 -14 232 -14 m 171 306 q 69 349 111 306 q 28 453 28 392 q 69 555 28 513 q 171 597 111 597 q 275 555 232 597 q 318 453 318 513 q 275 349 318 392 q 171 306 232 306 z "},";":{"ha":346,"x_min":-8,"x_max":322,"o":"m 171 306 q 69 349 111 306 q 28 453 28 392 q 69 555 28 513 q 171 597 111 597 q 275 555 232 597 q 318 453 318 513 q 275 349 318 392 q 171 306 232 306 m -4 -125 l 57 211 q 76 241 61 232 q 114 250 92 250 l 274 250 q 303 201 322 250 l 172 -133 q 115 -172 158 -172 l 24 -172 q -3 -160 1 -172 q -4 -125 -8 -147 z "},"…":{"ha":1047,"x_min":28,"x_max":1019,"o":"m 171 -14 q 69 29 111 -14 q 28 133 28 72 q 69 235 28 193 q 171 278 111 278 q 275 235 232 278 q 318 133 318 193 q 275 29 318 72 q 171 -14 232 -14 m 522 -14 q 421 29 463 -14 q 379 133 379 72 q 421 235 379 193 q 522 278 463 278 q 626 235 583 278 q 669 133 669 193 q 626 29 669 72 q 522 -14 583 -14 m 872 -14 q 771 29 813 -14 q 729 133 729 72 q 771 235 729 193 q 872 278 813 278 q 976 235 933 278 q 1019 133 1019 193 q 976 29 1019 72 q 872 -14 933 -14 z "},"?":{"ha":607,"x_min":21,"x_max":557,"o":"m 292 -14 q 196 26 232 -14 q 160 122 160 65 q 196 217 160 178 q 292 256 232 256 q 389 217 350 256 q 428 122 428 178 q 389 26 428 65 q 292 -14 350 -14 m 363 303 l 215 303 q 192 326 192 303 l 192 356 q 204 437 192 400 q 235 506 217 474 q 273 567 254 538 q 304 627 292 597 q 317 689 317 657 q 298 733 317 718 q 249 749 279 749 q 180 738 208 749 q 121 714 151 728 q 82 731 94 701 l 25 860 q 22 881 21 871 q 39 899 24 892 q 138 939 76 919 q 285 958 200 958 q 487 899 417 958 q 557 733 557 839 q 540 626 557 672 q 497 544 522 581 q 447 478 472 508 q 403 417 421 447 q 386 350 386 386 l 386 326 q 363 303 386 303 z "},"!":{"ha":421,"x_min":75,"x_max":344,"o":"m 208 -14 q 113 26 149 -14 q 76 122 76 65 q 113 217 76 178 q 208 256 149 256 q 306 217 267 256 q 344 122 344 178 q 306 26 344 65 q 208 -14 267 -14 m 107 332 l 76 915 q 84 937 75 929 q 106 944 93 944 l 306 944 q 335 915 338 944 l 304 332 q 275 303 301 303 l 136 303 q 107 332 110 303 z "},"¿":{"ha":607,"x_min":44,"x_max":581,"o":"m 310 597 q 406 558 369 597 q 442 461 442 518 q 406 367 442 406 q 310 328 369 328 q 213 367 251 328 q 174 461 174 406 q 213 558 174 518 q 310 597 251 597 m 239 281 l 386 281 q 410 257 410 281 l 410 228 q 397 147 410 183 q 366 78 385 110 q 328 16 347 46 q 297 -44 310 -14 q 285 -106 285 -74 q 303 -150 285 -135 q 353 -165 322 -165 q 422 -155 393 -165 q 481 -131 450 -144 q 519 -147 507 -118 l 576 -276 q 579 -297 581 -286 q 563 -315 578 -308 q 463 -356 525 -336 q 317 -375 401 -375 q 115 -315 186 -375 q 44 -150 44 -256 q 62 -43 44 -89 q 105 39 79 3 q 156 106 131 75 q 198 167 181 136 q 215 233 215 199 l 215 257 q 239 281 215 281 z "},"¡":{"ha":421,"x_min":75,"x_max":344,"o":"m 208 597 q 306 558 267 597 q 344 461 344 518 q 306 367 344 406 q 208 328 267 328 q 113 367 149 328 q 76 461 76 406 q 113 558 76 518 q 208 597 149 597 m 304 251 l 335 -332 q 306 -361 338 -361 l 106 -361 q 84 -353 93 -361 q 76 -332 75 -346 l 107 251 q 136 281 110 281 l 275 281 q 304 251 301 281 z "},"(":{"ha":493,"x_min":69,"x_max":472,"o":"m 69 389 q 112 658 69 540 q 223 856 154 776 q 369 968 292 935 q 394 969 386 975 q 408 951 401 963 l 461 875 q 468 849 472 861 q 453 829 464 838 q 347 660 386 774 q 308 389 308 547 q 347 117 308 231 q 453 -51 386 4 q 468 -71 464 -60 q 461 -97 472 -82 l 408 -174 q 394 -190 401 -183 q 369 -190 386 -197 q 223 -76 292 -156 q 112 121 154 3 q 69 389 69 239 z "},")":{"ha":493,"x_min":22,"x_max":424,"o":"m 424 389 q 381 121 424 239 q 271 -76 339 3 q 124 -190 203 -156 q 99 -190 107 -197 q 85 -174 92 -183 l 32 -97 q 26 -71 22 -82 q 40 -51 31 -60 q 146 117 107 4 q 185 389 185 231 q 146 660 185 547 q 40 829 107 774 q 26 849 31 838 q 32 875 22 861 l 85 951 q 99 969 92 963 q 124 968 107 975 q 271 856 203 935 q 381 658 339 776 q 424 389 424 540 z "},"{":{"ha":531,"x_min":21,"x_max":510,"o":"m 485 -183 q 413 -210 456 -197 q 321 -222 369 -222 q 158 -166 215 -222 q 101 8 101 -110 q 106 74 101 38 q 116 145 111 110 q 121 206 121 181 q 108 265 121 250 q 69 281 94 281 l 49 281 q 21 310 21 281 l 21 426 q 49 456 21 456 l 69 456 q 108 472 94 456 q 121 531 121 488 q 116 591 121 556 q 106 663 111 626 q 101 728 101 700 q 158 902 101 846 q 321 958 215 958 q 413 947 369 958 q 485 919 456 935 q 499 885 510 906 l 443 765 q 428 749 436 751 q 407 753 421 747 q 380 762 393 758 q 349 765 367 765 q 316 753 326 765 q 306 708 306 740 q 309 656 306 688 q 316 592 313 624 q 319 539 319 561 q 293 433 319 475 q 218 368 267 390 q 293 304 267 346 q 319 197 319 263 q 316 144 319 175 q 309 81 313 113 q 306 28 306 50 q 316 -17 306 -4 q 349 -29 326 -29 q 380 -26 367 -29 q 407 -17 393 -22 q 428 -12 421 -11 q 443 -29 436 -14 l 499 -149 q 485 -183 510 -169 z "},"}":{"ha":531,"x_min":21,"x_max":510,"o":"m 46 -183 q 32 -149 21 -169 l 88 -29 q 102 -12 94 -14 q 124 -17 110 -11 q 151 -26 138 -22 q 182 -29 164 -29 q 215 -17 204 -29 q 225 28 225 -4 q 222 81 225 50 q 215 144 218 113 q 211 197 211 175 q 238 304 211 263 q 313 368 264 346 q 238 433 264 390 q 211 539 211 475 q 215 592 211 561 q 222 656 218 624 q 225 708 225 688 q 215 753 225 740 q 182 765 204 765 q 151 762 164 765 q 124 753 138 758 q 102 749 110 747 q 88 765 94 751 l 32 885 q 46 919 21 906 q 118 947 75 935 q 210 958 161 958 q 373 902 317 958 q 429 728 429 846 q 424 663 429 700 q 415 591 419 626 q 410 531 410 556 q 423 472 410 488 q 461 456 436 456 l 482 456 q 510 426 510 456 l 510 310 q 482 281 510 281 l 461 281 q 423 265 436 281 q 410 206 410 250 q 415 145 410 181 q 424 74 419 110 q 429 8 429 38 q 373 -166 429 -110 q 210 -222 317 -222 q 118 -210 161 -222 q 46 -183 75 -197 z "},"[":{"ha":494,"x_min":90,"x_max":453,"o":"m 90 -181 l 90 917 q 119 944 90 944 l 269 944 q 299 917 299 944 l 299 -181 q 269 -208 299 -208 l 119 -208 q 90 -181 90 -208 m 425 -28 q 453 -57 453 -28 l 453 -179 q 425 -208 453 -208 l 161 -208 l 161 -28 l 425 -28 m 425 944 q 453 915 453 944 l 453 793 q 425 764 453 764 l 161 764 l 161 944 l 425 944 z "},"]":{"ha":494,"x_min":42,"x_max":404,"o":"m 404 -181 q 375 -208 404 -208 l 225 -208 q 196 -181 196 -208 l 196 917 q 225 944 196 944 l 375 944 q 404 917 404 944 l 404 -181 m 69 -28 l 333 -28 l 333 -208 l 69 -208 q 42 -179 42 -208 l 42 -57 q 69 -28 42 -28 m 69 944 l 333 944 l 333 764 l 69 764 q 42 793 42 764 l 42 915 q 69 944 42 944 z "},"/":{"ha":565,"x_min":25,"x_max":546,"o":"m 307 917 q 317 937 311 929 q 336 944 324 944 l 517 944 q 536 917 546 944 l 258 28 q 249 8 254 15 q 229 0 243 0 l 51 0 q 32 8 39 0 q 29 28 25 15 l 307 917 z "},"\\":{"ha":565,"x_min":19,"x_max":540,"o":"m 258 917 l 536 28 q 533 8 540 15 q 514 0 526 0 l 336 0 q 317 8 322 0 q 307 28 311 15 l 29 917 q 49 944 19 944 l 229 944 q 248 937 242 944 q 258 917 254 929 z "},"_":{"ha":765,"x_min":28,"x_max":738,"o":"m 56 -222 q 28 -193 28 -222 l 28 -71 q 56 -42 28 -42 l 710 -42 q 738 -71 738 -42 l 738 -193 q 710 -222 738 -222 l 56 -222 z "},"-":{"ha":500,"x_min":35,"x_max":465,"o":"m 63 285 q 35 314 35 285 l 35 450 q 63 479 35 479 l 438 479 q 465 450 465 479 l 465 314 q 438 285 465 285 l 63 285 z "},"­":{"ha":500,"x_min":0,"x_max":0,"o":""},"–":{"ha":694,"x_min":28,"x_max":667,"o":"m 56 319 q 28 349 28 319 l 28 471 q 56 500 28 500 l 639 500 q 667 471 667 500 l 667 349 q 639 319 667 319 l 56 319 z "},"—":{"ha":1389,"x_min":28,"x_max":1361,"o":"m 56 319 q 28 349 28 319 l 28 471 q 56 500 28 500 l 1333 500 q 1361 471 1361 500 l 1361 349 q 1333 319 1361 319 l 56 319 z "},"¦":{"ha":333,"x_min":63,"x_max":271,"o":"m 63 556 l 63 1028 q 92 1056 63 1056 l 242 1056 q 271 1028 271 1056 l 271 556 q 242 528 271 528 l 92 528 q 63 556 63 528 m 63 -83 l 63 389 q 92 417 63 417 l 242 417 q 271 389 271 417 l 271 -83 q 242 -111 271 -111 l 92 -111 q 63 -83 63 -111 z "},"|":{"ha":333,"x_min":63,"x_max":271,"o":"m 63 -83 l 63 1028 q 92 1056 63 1056 l 242 1056 q 271 1028 271 1056 l 271 -83 q 242 -111 271 -111 l 92 -111 q 63 -83 63 -111 z "},"«":{"ha":803,"x_min":42,"x_max":740,"o":"m 354 217 q 378 197 374 204 q 382 167 382 189 l 382 26 q 370 -3 382 4 q 335 6 358 -11 l 69 190 q 48 210 54 201 q 42 232 42 218 l 42 361 q 47 383 42 376 q 65 399 51 389 l 335 586 q 370 596 358 603 q 382 565 382 589 l 382 425 q 378 395 382 403 q 354 375 374 388 l 219 288 l 219 304 l 354 217 m 713 217 q 736 197 732 204 q 740 167 740 189 l 740 26 q 728 -3 740 4 q 693 6 717 -11 l 428 190 q 406 210 413 201 q 400 232 400 218 l 400 361 q 405 383 400 376 q 424 399 410 389 l 693 586 q 728 596 717 603 q 740 565 740 589 l 740 425 q 736 395 740 403 q 713 375 732 388 l 578 288 l 578 304 l 713 217 z "},"»":{"ha":803,"x_min":63,"x_max":761,"o":"m 90 217 l 229 304 l 229 288 l 90 375 q 67 395 72 388 q 63 425 63 403 l 63 565 q 74 596 63 589 q 110 586 86 603 l 379 399 q 398 383 393 389 q 403 361 403 376 l 403 232 q 397 210 403 218 q 375 190 390 201 l 110 6 q 74 -3 86 -11 q 63 26 63 4 l 63 167 q 67 197 63 189 q 90 217 72 204 m 449 217 l 588 304 l 588 288 l 449 375 q 426 395 431 388 q 421 425 421 403 l 421 565 q 433 596 421 589 q 468 586 444 603 l 738 399 q 756 383 751 389 q 761 361 761 376 l 761 232 q 755 210 761 218 q 733 190 749 201 l 468 6 q 433 -3 444 -11 q 421 26 421 4 l 421 167 q 426 197 421 189 q 449 217 431 204 z "},"‹":{"ha":444,"x_min":42,"x_max":382,"o":"m 354 217 q 378 197 374 204 q 382 167 382 189 l 382 26 q 370 -3 382 4 q 335 6 358 -11 l 69 190 q 48 210 54 201 q 42 232 42 218 l 42 361 q 47 383 42 376 q 65 399 51 389 l 335 586 q 370 596 358 603 q 382 565 382 589 l 382 425 q 378 395 382 403 q 354 375 374 388 l 219 288 l 219 304 l 354 217 z "},"›":{"ha":444,"x_min":63,"x_max":403,"o":"m 90 217 l 229 304 l 229 288 l 90 375 q 67 395 72 388 q 63 425 63 403 l 63 565 q 74 596 63 589 q 110 586 86 603 l 379 399 q 398 383 393 389 q 403 361 403 376 l 403 232 q 397 210 403 218 q 375 190 390 201 l 110 6 q 74 -3 86 -11 q 63 26 63 4 l 63 167 q 67 197 63 189 q 90 217 72 204 z "},"‚":{"ha":403,"x_min":39,"x_max":385,"o":"m 44 -124 l 115 171 q 135 201 121 192 q 172 210 150 210 l 332 210 q 361 161 385 210 l 221 -132 q 199 -161 211 -151 q 164 -171 186 -171 l 72 -171 q 44 -158 50 -171 q 44 -124 39 -146 z "},"„":{"ha":708,"x_min":39,"x_max":690,"o":"m 44 -124 l 115 171 q 135 201 121 192 q 172 210 150 210 l 332 210 q 361 161 385 210 l 221 -132 q 199 -161 211 -151 q 164 -171 186 -171 l 72 -171 q 44 -158 50 -171 q 44 -124 39 -146 m 350 -124 l 421 171 q 441 201 426 192 q 478 210 456 210 l 638 210 q 667 161 690 210 l 526 -132 q 504 -161 517 -151 q 469 -171 492 -171 l 378 -171 q 350 -158 356 -171 q 350 -124 344 -146 z "},"‘":{"ha":403,"x_min":18,"x_max":364,"o":"m 358 897 l 288 603 q 267 573 282 582 q 231 564 253 564 l 71 564 q 42 613 18 564 l 182 906 q 204 935 192 925 q 239 944 217 944 l 331 944 q 358 933 353 944 q 358 897 364 921 z "},"“":{"ha":708,"x_min":18,"x_max":669,"o":"m 358 897 l 288 603 q 267 573 282 582 q 231 564 253 564 l 71 564 q 42 613 18 564 l 182 906 q 204 935 192 925 q 239 944 217 944 l 331 944 q 358 933 353 944 q 358 897 364 921 m 664 897 l 593 603 q 573 573 588 582 q 536 564 558 564 l 376 564 q 347 613 324 564 l 488 906 q 510 935 497 925 q 544 944 522 944 l 636 944 q 664 933 658 944 q 664 897 669 921 z "},"’":{"ha":403,"x_min":39,"x_max":385,"o":"m 44 611 l 115 906 q 135 935 121 926 q 172 944 150 944 l 332 944 q 361 896 385 944 l 221 603 q 199 574 211 583 q 164 564 186 564 l 72 564 q 44 576 50 564 q 44 611 39 589 z "},"”":{"ha":708,"x_min":39,"x_max":690,"o":"m 44 611 l 115 906 q 135 935 121 926 q 172 944 150 944 l 332 944 q 361 896 385 944 l 221 603 q 199 574 211 583 q 164 564 186 564 l 72 564 q 44 576 50 564 q 44 611 39 589 m 350 611 l 421 906 q 441 935 426 926 q 478 944 456 944 l 638 944 q 667 896 690 944 l 526 603 q 504 574 517 583 q 469 564 492 564 l 378 564 q 350 576 356 564 q 350 611 344 589 z "},"'":{"ha":342,"x_min":68,"x_max":275,"o":"m 89 639 l 69 896 q 78 934 68 924 q 111 944 89 944 l 231 944 q 265 933 256 944 q 272 896 275 922 l 249 639 q 238 608 247 617 q 211 599 228 599 l 126 599 q 89 639 93 599 z "},"\"":{"ha":586,"x_min":68,"x_max":519,"o":"m 89 639 l 69 896 q 78 934 68 924 q 111 944 89 944 l 231 944 q 265 933 256 944 q 272 896 275 922 l 249 639 q 238 608 247 617 q 211 599 228 599 l 126 599 q 89 639 93 599 m 333 639 l 314 896 q 323 934 313 924 q 356 944 333 944 l 475 944 q 510 933 500 944 q 517 896 519 922 l 493 639 q 482 608 492 617 q 456 599 472 599 l 371 599 q 333 639 338 599 z "},"•":{"ha":592,"x_min":53,"x_max":539,"o":"m 296 213 q 117 278 182 213 q 53 453 53 343 q 117 626 53 558 q 296 693 182 693 q 423 663 368 693 q 508 578 478 632 q 539 453 539 524 q 472 278 539 343 q 296 213 404 213 z "},"&":{"ha":1021,"x_min":49,"x_max":994,"o":"m 493 396 q 353 369 393 396 q 313 294 313 342 q 328 245 313 265 q 372 214 343 225 q 439 203 400 203 q 522 209 489 203 q 579 226 554 215 q 631 250 604 238 q 656 252 646 257 q 669 233 665 247 l 714 103 q 716 83 717 93 q 700 64 715 72 q 588 15 657 42 q 403 -12 518 -12 q 215 22 294 -12 q 92 120 136 56 q 49 274 49 185 q 99 424 49 364 q 241 515 150 485 q 453 544 332 544 l 454 439 q 242 471 326 439 q 117 562 158 503 q 76 701 76 621 q 119 832 76 774 q 240 924 161 890 q 425 958 318 958 q 554 942 500 958 q 642 908 608 926 q 658 891 657 901 q 656 869 660 881 l 593 729 q 554 713 581 700 q 504 735 528 728 q 443 743 481 743 q 365 719 389 743 q 340 664 340 696 q 353 621 340 639 q 400 593 367 603 q 493 583 433 583 q 522 554 522 583 l 522 422 q 493 396 522 396 m 489 396 q 460 422 460 396 l 460 554 q 489 583 460 583 l 942 583 q 971 554 971 583 l 971 422 q 942 396 971 396 l 489 396 m 814 238 q 823 192 814 204 q 850 179 832 179 q 883 184 868 179 q 910 194 897 189 q 946 182 936 208 l 990 60 q 992 40 994 47 q 976 25 990 32 q 903 -2 947 10 q 808 -14 860 -14 q 634 46 690 -14 q 578 236 578 106 l 578 651 q 607 681 578 681 l 785 681 q 814 651 814 681 l 814 238 z "},"¶":{"ha":850,"x_min":42,"x_max":760,"o":"m 544 28 q 515 0 544 0 l 407 0 q 378 28 378 0 l 378 917 q 407 944 378 944 l 515 944 q 544 917 544 944 l 544 28 m 357 417 q 192 451 264 417 q 81 544 121 485 q 42 681 42 604 q 81 822 42 763 q 192 913 121 881 q 358 944 264 944 l 472 944 l 472 417 l 357 417 m 760 28 q 731 0 760 0 l 622 0 q 593 28 593 0 l 593 917 q 622 944 593 944 l 731 944 q 760 917 760 944 l 760 28 z "},"†":{"ha":639,"x_min":42,"x_max":597,"o":"m 215 28 l 215 917 q 244 944 215 944 l 394 944 q 424 917 424 944 l 424 28 q 394 0 424 0 l 244 0 q 215 28 215 0 m 69 583 q 42 613 42 583 l 42 721 q 69 750 42 750 l 569 750 q 597 721 597 750 l 597 613 q 569 583 597 583 l 69 583 z "},"‡":{"ha":639,"x_min":42,"x_max":597,"o":"m 215 28 l 215 917 q 244 944 215 944 l 394 944 q 424 917 424 944 l 424 28 q 394 0 424 0 l 244 0 q 215 28 215 0 m 69 194 q 42 224 42 194 l 42 332 q 69 361 42 361 l 569 361 q 597 332 597 361 l 597 224 q 569 194 597 194 l 69 194 m 69 583 q 42 613 42 583 l 42 721 q 69 750 42 750 l 569 750 q 597 721 597 750 l 597 613 q 569 583 597 583 l 69 583 z "},"§":{"ha":722,"x_min":38,"x_max":681,"o":"m 594 233 l 439 326 q 451 350 446 338 q 456 381 456 363 q 433 428 456 408 q 372 463 411 447 q 282 493 333 479 q 123 578 176 524 q 69 725 69 633 q 106 849 69 796 q 208 930 142 901 q 364 958 275 958 q 456 951 407 958 q 548 930 504 943 q 619 900 592 917 q 636 881 635 890 q 633 861 638 872 l 590 747 q 572 724 583 729 q 540 731 561 719 q 475 761 518 744 q 383 778 432 778 q 335 765 351 778 q 319 724 319 751 q 344 680 319 701 q 433 643 369 658 q 559 597 503 626 q 648 522 615 567 q 681 414 681 478 q 657 308 681 350 q 594 233 633 265 m 124 588 l 279 494 q 267 472 272 485 q 263 440 263 460 q 285 394 263 414 q 347 358 307 374 q 436 328 386 343 q 595 242 542 297 q 649 96 649 188 q 613 -27 649 25 q 510 -108 576 -79 q 354 -137 444 -137 q 263 -130 311 -137 q 170 -108 214 -122 q 99 -79 126 -94 q 82 -60 83 -69 q 85 -40 81 -50 l 128 74 q 146 97 135 93 q 178 90 157 101 q 244 60 201 76 q 335 43 288 43 q 383 56 367 43 q 399 97 399 69 q 374 141 399 119 q 285 178 350 163 q 159 224 215 194 q 70 299 103 254 q 38 407 38 344 q 61 514 38 471 q 124 588 85 557 z "},"*":{"ha":594,"x_min":11,"x_max":583,"o":"m 225 708 l 201 896 q 210 934 199 924 q 243 944 221 944 l 349 944 q 390 896 399 944 l 363 708 q 351 677 360 686 q 325 668 342 668 l 263 668 q 236 677 244 668 q 225 708 228 686 m 379 678 l 508 540 q 504 476 543 504 l 418 414 q 356 429 379 385 l 268 597 q 275 651 249 633 l 325 689 q 352 697 340 700 q 379 678 364 693 m 332 593 l 240 428 q 213 402 228 404 q 179 413 197 400 l 93 475 q 88 539 53 504 l 221 674 q 249 692 236 690 q 275 685 261 694 l 325 647 q 342 625 340 638 q 332 593 343 613 m 236 613 l 51 647 q 18 667 25 653 q 18 701 11 681 l 50 803 q 72 833 58 826 q 110 826 86 839 l 279 743 q 306 722 300 733 q 306 694 311 710 l 286 635 q 269 613 281 617 q 236 613 258 608 m 314 749 l 485 829 q 543 806 529 850 l 576 704 q 576 667 583 681 q 543 650 569 654 l 356 618 q 322 620 333 614 q 306 642 311 626 l 286 701 q 287 729 281 719 q 314 749 293 739 z "},"™":{"ha":1025,"x_min":7,"x_max":983,"o":"m 131 536 l 131 926 q 149 944 131 944 l 267 944 q 285 926 285 944 l 285 536 q 267 519 285 519 l 149 519 q 131 536 131 519 m 24 815 q 7 833 7 815 l 7 926 q 24 944 7 944 l 393 944 q 410 926 410 944 l 410 833 q 393 815 410 815 l 24 815 m 693 519 q 671 531 678 519 l 592 686 l 599 689 l 599 536 q 581 519 599 519 l 472 519 q 454 536 454 519 l 454 926 q 472 944 454 944 l 606 944 q 631 931 626 944 l 740 699 l 714 699 l 824 931 q 850 944 829 944 l 965 944 q 983 926 983 944 l 983 536 q 965 519 983 519 l 857 519 q 839 536 839 519 l 839 689 l 846 686 l 765 531 q 744 519 761 519 l 693 519 z "},"®":{"ha":675,"x_min":21,"x_max":654,"o":"m 338 342 q 175 379 247 342 q 62 486 103 417 q 21 650 21 556 q 62 815 21 746 q 175 921 103 883 q 338 958 247 958 q 501 921 429 958 q 613 815 572 883 q 654 650 654 746 q 613 486 654 556 q 501 379 572 417 q 338 342 429 342 m 338 426 q 497 488 436 426 q 558 650 558 549 q 497 813 558 753 q 338 874 436 874 q 178 813 239 874 q 117 650 117 753 q 178 488 117 549 q 338 426 239 426 m 201 515 l 201 794 q 215 808 201 808 l 294 808 q 308 794 308 808 l 308 515 q 294 503 308 503 l 215 503 q 201 515 201 503 m 350 606 l 342 593 l 257 593 l 257 675 l 347 675 q 365 681 358 675 q 372 697 372 686 q 365 716 372 713 q 349 719 358 719 l 257 719 l 257 808 l 350 808 q 443 779 407 808 q 479 697 479 750 q 443 627 479 649 q 350 606 407 606 m 325 593 l 397 661 l 497 524 q 501 508 507 513 q 483 503 494 503 l 397 503 q 376 518 389 503 l 325 593 z "},"©":{"ha":1061,"x_min":31,"x_max":1031,"o":"m 531 -14 q 731 19 640 -14 q 890 117 822 53 q 994 270 957 181 q 1031 472 1031 360 q 994 674 1031 585 q 890 828 957 764 q 731 925 822 892 q 531 958 640 958 q 330 925 421 958 q 172 828 239 892 q 67 674 104 764 q 31 472 31 585 q 67 270 31 360 q 172 117 104 181 q 330 19 239 53 q 531 -14 421 -14 m 531 113 q 345 156 426 113 q 217 280 264 199 q 169 472 169 361 q 217 664 169 583 q 345 788 264 744 q 531 832 426 832 q 716 788 635 832 q 844 664 797 744 q 892 472 892 583 q 844 280 892 361 q 716 156 797 199 q 531 113 635 113 m 540 206 q 403 235 464 206 q 306 324 342 264 q 269 472 269 383 q 344 667 269 596 q 540 739 418 739 q 647 724 603 739 q 733 682 690 710 q 742 657 750 672 l 690 557 q 665 546 682 536 q 601 580 631 568 q 540 592 571 592 q 474 558 499 592 q 450 472 450 525 q 478 385 450 418 q 554 351 506 351 q 606 360 581 351 q 679 390 632 368 q 701 376 693 396 l 744 274 q 732 249 751 258 q 645 216 685 226 q 540 206 606 206 z "},"@":{"ha":1113,"x_min":35,"x_max":1085,"o":"m 588 374 q 537 354 560 374 q 501 302 514 335 q 489 229 489 269 q 506 165 489 186 q 554 143 524 143 q 605 166 583 143 q 661 236 626 189 l 675 113 q 590 24 633 61 q 471 -14 546 -14 q 344 43 396 -14 q 293 210 293 100 q 331 395 293 325 q 429 497 369 465 q 550 529 489 529 q 633 508 594 529 q 697 450 671 486 l 674 328 q 636 360 657 347 q 588 374 615 374 m 538 -237 q 281 -185 394 -237 q 101 -28 167 -133 q 35 239 35 78 q 77 456 35 358 q 195 622 119 553 q 370 730 271 692 q 583 768 469 768 q 791 733 699 768 q 949 639 883 699 q 1050 502 1015 579 q 1085 340 1085 425 q 1047 157 1085 238 q 946 31 1010 76 q 800 -14 882 -14 q 644 45 690 -14 q 608 196 597 104 l 646 493 q 674 515 649 515 l 811 515 q 831 497 833 515 l 789 218 q 794 147 782 168 q 838 125 806 125 q 914 176 888 125 q 940 322 940 226 q 896 499 940 429 q 771 604 851 569 q 583 639 690 639 q 390 591 479 639 q 245 453 300 543 q 190 239 190 364 q 283 -22 190 64 q 543 -108 376 -108 q 651 -98 604 -108 q 726 -79 697 -87 q 765 -96 754 -72 l 793 -162 q 796 -181 797 -172 q 779 -196 794 -189 q 674 -226 736 -215 q 538 -237 613 -237 z "},"ª":{"ha":546,"x_min":18,"x_max":532,"o":"m 525 582 l 451 510 q 417 496 439 499 q 372 508 396 493 l 293 560 l 279 575 l 279 763 q 267 790 279 779 q 236 801 256 801 q 169 792 206 801 q 94 768 132 782 q 76 767 81 764 q 64 785 71 771 l 28 871 q 47 907 18 894 q 145 942 89 926 q 271 958 201 958 q 375 942 329 958 q 447 885 421 926 q 474 765 474 843 l 474 661 q 486 635 474 642 l 521 617 q 532 599 532 610 q 525 582 532 589 m 306 757 l 306 679 l 250 679 q 221 671 232 679 q 210 646 210 663 q 218 623 210 632 q 250 614 226 614 q 286 624 271 614 q 328 651 301 633 l 347 539 q 265 505 300 515 q 194 494 231 494 q 74 531 118 494 q 29 633 29 567 q 74 719 29 682 q 207 757 119 757 l 306 757 z "},"º":{"ha":572,"x_min":21,"x_max":551,"o":"m 286 494 q 94 553 168 494 q 21 725 21 613 q 94 899 21 839 q 286 958 168 958 q 478 899 404 958 q 551 725 551 839 q 478 553 551 613 q 286 494 404 494 m 286 653 q 328 674 311 653 q 344 725 344 694 q 328 777 344 757 q 286 797 311 797 q 243 777 260 797 q 226 725 226 757 q 243 674 226 694 q 286 653 260 653 z "},"#":{"ha":858,"x_min":35,"x_max":824,"o":"m 106 0 q 87 8 93 0 q 83 28 81 15 l 250 833 q 279 861 257 861 l 428 861 q 447 833 454 861 l 281 28 q 272 8 278 15 q 251 0 265 0 l 106 0 m 569 833 q 599 861 576 861 l 747 861 q 767 833 774 861 l 600 28 q 591 8 597 15 q 571 0 585 0 l 425 0 q 406 8 413 0 q 403 28 400 15 l 569 833 m 63 213 q 35 242 35 213 l 35 342 q 63 371 35 371 l 743 371 q 771 342 771 371 l 771 242 q 743 213 771 213 l 63 213 m 824 619 l 824 519 q 796 490 824 490 l 115 490 q 88 519 88 490 l 88 619 q 115 649 88 649 l 796 649 q 824 619 824 649 z "},"€":{"ha":918,"x_min":10,"x_max":892,"o":"m 597 -14 q 355 42 463 -14 q 185 206 247 97 q 122 472 122 314 q 182 731 122 622 q 349 899 242 840 q 597 958 456 958 q 741 943 679 958 q 858 894 803 928 q 872 856 886 879 l 800 731 q 783 712 792 717 q 761 714 774 707 q 688 742 726 735 q 611 750 650 750 q 489 715 542 750 q 408 618 436 681 q 379 472 379 556 q 408 326 379 389 q 491 229 438 264 q 618 194 544 194 q 692 200 654 194 q 783 232 731 206 q 819 213 806 243 l 881 82 q 863 44 892 58 q 739 0 799 14 q 597 -14 679 -14 m 36 510 q 15 539 11 510 l 33 632 q 64 656 39 656 l 708 656 q 728 648 721 656 q 731 626 735 640 l 701 539 q 668 510 692 510 l 36 510 m 33 293 q 14 322 10 293 l 32 414 q 64 439 38 439 l 640 439 q 660 410 668 439 l 632 318 q 601 293 624 293 l 33 293 z "},"$":{"ha":832,"x_min":46,"x_max":783,"o":"m 526 -111 q 497 -139 526 -139 l 347 -139 q 318 -111 318 -139 l 318 111 l 526 111 l 526 -111 m 526 1056 l 526 833 l 318 833 l 318 1056 q 347 1083 318 1083 l 497 1083 q 526 1056 526 1083 m 446 201 q 485 208 469 201 q 510 227 501 214 q 519 258 519 240 q 513 286 519 274 q 488 310 506 299 q 436 333 469 321 q 349 363 403 346 q 184 435 246 393 q 95 534 122 478 q 68 664 68 590 q 106 813 68 746 q 220 919 143 879 q 415 958 297 958 q 597 935 506 958 q 753 875 688 913 q 770 856 768 865 q 767 836 772 847 l 697 685 q 678 662 689 667 q 647 668 668 657 q 538 718 601 693 q 408 743 474 743 q 366 737 383 743 q 340 718 349 731 q 332 689 332 706 q 347 651 332 667 q 403 619 363 635 q 518 579 443 603 q 626 537 578 561 q 710 478 675 513 q 765 398 746 444 q 783 288 783 351 q 740 124 783 192 q 622 22 697 57 q 447 -14 546 -14 q 254 4 346 -14 q 71 69 163 22 q 49 90 53 79 q 54 118 46 101 l 125 268 q 167 282 139 296 q 306 224 244 246 q 446 201 368 201 z "},"¥":{"ha":921,"x_min":14,"x_max":908,"o":"m 457 540 l 633 892 q 660 932 649 919 q 694 944 672 944 l 860 944 q 897 932 885 944 q 893 893 908 919 l 581 347 l 340 347 l 28 893 q 25 932 14 919 q 61 944 36 944 l 242 944 q 277 935 265 944 q 303 897 289 925 l 481 540 l 457 540 m 335 28 l 335 444 q 364 472 335 472 l 556 472 q 585 444 585 472 l 585 28 q 556 0 585 0 l 364 0 q 335 28 335 0 m 100 400 q 72 429 72 400 l 72 517 q 100 546 72 546 l 822 546 q 850 517 850 546 l 850 429 q 822 400 850 400 l 100 400 m 100 178 q 72 207 72 178 l 72 294 q 100 324 72 324 l 822 324 q 850 294 850 324 l 850 207 q 822 178 850 178 l 100 178 z "},"£":{"ha":779,"x_min":56,"x_max":738,"o":"m 421 200 l 171 200 q 144 405 153 303 q 135 597 135 507 q 221 860 135 763 q 465 958 307 958 q 623 943 563 958 q 718 906 683 928 q 736 887 735 896 q 733 867 738 878 l 675 726 q 660 708 669 713 q 636 710 651 703 q 574 734 606 725 q 506 743 543 743 q 416 697 443 743 q 389 563 389 650 q 397 380 389 472 q 421 200 404 288 m 83 0 q 56 29 56 0 l 56 179 q 83 208 56 208 l 696 208 q 724 179 724 208 l 724 29 q 696 0 724 0 l 83 0 m 83 396 q 56 425 56 396 l 56 540 q 83 569 56 569 l 556 569 q 583 540 583 569 l 583 425 q 556 396 583 396 l 83 396 z "},"₹":{"ha":771,"x_min":63,"x_max":715,"o":"m 90 792 q 63 821 63 792 l 63 915 q 90 944 63 944 l 688 944 q 715 915 715 944 l 715 821 q 688 792 715 792 l 519 792 q 542 750 532 772 q 558 704 551 728 l 688 704 q 715 675 715 704 l 715 581 q 688 551 715 551 l 556 551 q 524 481 544 514 q 474 421 503 447 q 408 375 444 394 q 333 346 372 356 l 583 47 q 588 12 603 24 q 549 0 574 0 l 364 0 q 333 8 342 0 q 306 38 324 17 l 86 294 q 71 316 79 304 q 63 346 63 328 l 63 435 q 90 464 63 464 l 149 464 q 244 487 204 464 q 304 551 285 510 l 90 551 q 63 581 63 551 l 63 675 q 90 704 63 704 l 306 704 q 246 769 286 747 q 150 792 206 792 l 90 792 z "},"¢":{"ha":614,"x_min":32,"x_max":594,"o":"m 275 297 q 306 213 275 244 q 386 181 336 181 q 444 190 418 181 q 493 213 469 199 q 521 219 511 224 q 536 199 531 214 l 590 75 q 592 58 594 65 q 572 39 589 50 q 481 0 533 14 q 364 -14 429 -14 q 119 65 207 -14 q 32 292 32 144 q 117 519 32 440 q 344 597 201 597 q 467 582 411 597 q 556 550 524 567 q 572 533 571 543 q 569 511 574 522 l 524 385 q 485 368 513 353 q 430 393 458 383 q 372 403 401 403 q 321 390 343 403 q 287 353 299 376 q 275 297 275 329 m 232 486 l 232 694 q 261 722 232 722 l 411 722 q 440 694 440 722 l 440 486 q 411 458 440 458 l 261 458 q 232 486 232 458 m 232 -97 l 232 111 q 261 139 232 139 l 411 139 q 440 111 440 139 l 440 -97 q 411 -125 440 -125 l 261 -125 q 232 -97 232 -125 z "},"ƒ":{"ha":883,"x_min":13,"x_max":871,"o":"m 279 396 q 256 422 251 396 l 279 554 q 313 583 285 583 l 724 583 q 744 575 738 583 q 749 554 751 567 l 725 422 q 690 396 721 396 l 279 396 m 214 -361 q 108 -347 156 -361 q 29 -314 61 -332 q 15 -299 17 -307 q 22 -279 13 -292 l 99 -160 q 136 -147 115 -133 q 167 -162 151 -156 q 206 -168 183 -168 q 235 -156 224 -168 q 251 -110 246 -143 l 394 700 q 488 895 418 832 q 669 958 558 958 q 776 944 728 958 q 854 911 824 929 q 869 897 867 904 q 861 876 871 889 l 785 757 q 747 744 768 731 q 718 759 733 753 q 681 765 703 765 q 650 753 661 765 q 632 707 639 740 l 489 -103 q 396 -298 467 -235 q 214 -361 325 -361 z "},"¤":{"ha":797,"x_min":46,"x_max":751,"o":"m 399 125 q 236 160 310 125 q 119 264 163 196 q 76 431 76 332 q 119 597 76 529 q 236 701 163 665 q 399 736 310 736 q 562 701 489 736 q 678 597 635 665 q 721 431 721 529 q 678 264 721 332 q 562 160 635 196 q 399 125 489 125 m 399 299 q 481 335 450 299 q 513 431 513 371 q 481 526 513 490 q 399 563 450 563 q 316 526 347 563 q 285 431 285 490 q 316 335 285 371 q 399 299 347 299 m 193 521 l 63 675 q 46 710 46 696 q 64 739 46 725 l 150 811 q 181 823 169 826 q 211 799 193 819 l 342 643 q 339 589 367 613 l 249 513 q 193 521 219 488 m 604 521 q 549 513 578 488 l 458 589 q 456 643 431 613 l 586 799 q 617 823 604 819 q 647 811 629 826 l 733 739 q 751 710 751 725 q 735 675 751 696 l 604 521 m 193 336 q 249 344 219 369 l 339 268 q 342 214 367 244 l 211 58 q 181 34 193 38 q 150 46 169 31 l 64 118 q 46 147 46 133 q 63 182 46 161 l 193 336 m 604 336 l 735 182 q 751 147 751 161 q 733 118 751 133 l 647 46 q 617 34 629 31 q 586 58 604 38 l 456 214 q 458 268 431 244 l 549 344 q 604 336 578 369 z "},"°":{"ha":533,"x_min":28,"x_max":506,"o":"m 267 650 q 215 672 235 650 q 194 726 194 693 q 215 781 194 758 q 267 803 235 803 q 318 781 297 803 q 339 726 339 758 q 318 672 339 693 q 267 650 297 650 m 267 496 q 391 526 338 496 q 475 609 444 557 q 506 726 506 661 q 475 843 506 790 q 391 927 444 896 q 267 958 338 958 q 142 927 196 958 q 58 843 88 896 q 28 726 28 790 q 58 609 28 661 q 142 526 88 557 q 267 496 196 496 z "}}}
